<?xml version="1.0" encoding="UTF-8"?>
<!DOCTYPE svg PUBLIC "-//W3C//DTD SVG 1.1//EN" "http://www.w3.org/Graphics/SVG/1.1/DTD/svg11.dtd">
<!-- Creator: CorelDRAW 2018 (64-Bit) -->
<svg xmlns="http://www.w3.org/2000/svg" xml:space="preserve" width="126.056mm" height="68.2704mm" version="1.1" style="shape-rendering:geometricPrecision; text-rendering:geometricPrecision; image-rendering:optimizeQuality; fill-rule:evenodd; clip-rule:evenodd"
viewBox="0 0 98459.09 53324.25"
 xmlns:xlink="http://www.w3.org/1999/xlink">
 <defs>
  <style type="text/css">
   <![CDATA[
    .str0 {stroke:black;stroke-width:781.07;stroke-miterlimit:22.9256}
    .fil0 {fill:red}
    .fil2 {fill:black;fill-rule:nonzero}
    .fil1 {fill:white;fill-rule:nonzero}
   ]]>
  </style>
 </defs>
 <g id="Layer_x0020_1">
  <metadata id="CorelCorpID_0Corel-Layer"/>
  <g id="_2569689419504">
   <path class="fil0 str0" d="M91250.24 19959.41c3765.64,0 6818.31,3000.89 6818.31,6702.71 0,3701.82 -3052.67,6702.71 -6818.31,6702.71 -3765.64,0 -6818.31,-3000.89 -6818.31,-6702.71 0,-3701.82 3052.67,-6702.71 6818.31,-6702.71z"/>
   <path class="fil0 str0" d="M49229.54 390.54c3765.64,0 6818.31,3000.89 6818.31,6702.71 0,3701.82 -3052.67,6702.71 -6818.31,6702.71 -3765.64,0 -6818.31,-3000.89 -6818.31,-6702.71 0,-3701.82 3052.67,-6702.71 6818.31,-6702.71z"/>
   <path class="fil0 str0" d="M49229.54 39528.29c3765.64,0 6818.31,3000.89 6818.31,6702.71 0,3701.82 -3052.67,6702.71 -6818.31,6702.71 -3765.64,0 -6818.31,-3000.89 -6818.31,-6702.71 0,-3701.82 3052.67,-6702.71 6818.31,-6702.71z"/>
   <path class="fil0 str0" d="M7208.85 390.54c3765.64,0 6818.31,3000.89 6818.31,6702.71 0,3701.82 -3052.67,6702.71 -6818.31,6702.71 -3765.64,0 -6818.31,-3000.89 -6818.31,-6702.71 0,-3701.82 3052.67,-6702.71 6818.31,-6702.71z"/>
   <path class="fil0 str0" d="M7208.85 39528.29c3765.64,0 6818.31,3000.89 6818.31,6702.71 0,3701.82 -3052.67,6702.71 -6818.31,6702.71 -3765.64,0 -6818.31,-3000.89 -6818.31,-6702.71 0,-3701.82 3052.67,-6702.71 6818.31,-6702.71z"/>
   <path class="fil1" d="M4038.39 9216.05l0 -4219.21 2539.43 0 0 674.54 -1732.66 0 0 1044.92 1653.3 0 0 654.7 -1653.3 0 0 1170.52 1732.66 0 0 674.54 -2539.43 0zm3530.3 0l0 -701.01 1077.96 0 0 -2712.44 -937.99 516.91 -259 -641.5 1342.51 -707.58 661.26 0 0 3544.59 925.89 0 0 701.01 -2810.62 0z"/>
   <path class="fil1" d="M45959.89 48340.6l0 -4219.21 2539.43 0 0 674.54 -1732.66 0 0 1044.92 1653.3 0 0 654.7 -1653.3 0 0 1170.52 1732.66 0 0 674.54 -2539.43 0zm5897.81 -859.73l0 859.73 -770.45 0 0 -859.73 -1960.73 0 0 -674.54 1644.47 -2684.94 1086.71 0 0 2665.1 641.5 0 0 694.37 -641.5 0zm-760.53 -2597.85l-1199.18 1903.48 1199.18 0 0 -1903.48z"/>
   <path class="fil1" d="M88106.26 28738.61l0 -4219.21 2539.43 0 0 674.54 -1732.66 0 0 1044.92 1653.3 0 0 654.7 -1653.3 0 0 1170.52 1732.66 0 0 674.54 -2539.43 0zm6287.96 -1349.07c0,225.96 -47.33,426.54 -142.16,602.91 -94.74,175.19 -225.96,322.9 -393.51,444.2 -168.63,120.13 -365.86,211.59 -594.01,274.39 -228.15,62.88 -476.14,93.73 -742.88,93.73 -67.25,0 -137.78,-2.27 -212.76,-6.64 -76.08,-4.37 -152.08,-9.92 -229.25,-16.56 -78.26,-6.56 -153.17,-15.39 -225.96,-25.31 -73.81,-9.92 -141.06,-19.84 -203.86,-30.85l0 -687.81c123.41,29.76 264.47,54.05 423.19,71.7 159.81,18.67 322.97,27.49 488.33,27.49 323.99,0 569.79,-61.7 739.52,-185.11 168.63,-124.58 253.54,-296.5 253.54,-515.82 0,-228.15 -78.26,-397.96 -235.88,-508.17 -157.62,-111.3 -411.08,-166.37 -762.72,-166.37l-826.61 0 0 -2241.92 2433.59 0 0 740.69 -1699.54 0 0 859.73 303.06 0c216.05,0 421.08,19.84 617.28,58.42 196.13,38.59 368.12,105.76 518.01,201.67 149.89,95.92 268.92,225.96 358.2,389.05 89.28,164.26 134.42,370.39 134.42,620.56z"/>
   <path class="fil1" d="M4048.31 48376.92l0 -4219.21 2539.43 0 0 674.54 -1732.66 0 0 1044.92 1653.3 0 0 654.7 -1653.3 0 0 1170.52 1732.66 0 0 674.54 -2539.43 0zm3457.58 0l0 -581.98 997.51 -997.43c186.21,-187.38 336.17,-348.28 449.66,-483.88 112.4,-135.59 199.49,-256.82 261.19,-363.75 61.78,-106.93 101.46,-204.95 121.3,-295.4 18.67,-90.37 28.59,-184.02 28.59,-281.03 0,-79.36 -13.2,-155.43 -38.51,-227.06 -26.48,-72.72 -63.97,-134.42 -113.57,-187.38 -48.5,-52.88 -111.3,-94.74 -186.29,-126.77 -76,-30.85 -161.99,-46.24 -259,-46.24 -165.28,0 -318.52,36.32 -460.68,108.02 -142.23,71.62 -276.66,168.63 -403.42,288.76l-416.62 -535.66c182.93,-170.82 389.05,-306.42 618.3,-408.89 229.32,-102.56 477.31,-153.25 743.97,-153.25 207.22,0 393.51,26.48 562.14,79.36 167.54,52.88 310.79,130.05 431,233.7 119.04,103.57 211.59,232.53 277.75,387.96 64.99,154.26 98.02,333.99 98.02,535.66 0,168.63 -22.03,325.16 -67.17,470.6 -45.22,144.42 -111.38,286.58 -197.3,424.36 -86,137.78 -191.83,275.56 -318.52,413.34 -125.67,137.78 -268.92,283.22 -431,435.37l-612.83 584.17 1778.97 0 0 727.41 -2863.5 0z"/>
   <path class="fil1" d="M46062.37 9206.13l0 -4219.21 2539.43 0 0 674.54 -1732.66 0 0 1044.92 1653.3 0 0 654.7 -1653.3 0 0 1170.52 1732.66 0 0 674.54 -2539.43 0zm6334.28 -1287.37c0,208.31 -38.59,396.79 -115.76,563.23 -78.19,167.54 -197.22,309.7 -357.11,426.54 -159.81,117.94 -361.48,207.22 -605.1,270.02 -243.54,62.88 -529.02,93.73 -858.56,93.73 -72.72,0 -149.89,-1.09 -230.34,-4.45 -81.62,-3.28 -160.98,-6.56 -241.43,-12.11 -79.36,-4.37 -156.53,-11.01 -231.43,-17.65 -76.08,-6.56 -143.33,-15.39 -203.94,-25.31l0 -687.81c135.59,25.38 287.67,46.32 456.3,61.78 168.63,16.48 345,24.21 528.01,24.21 178.55,0 332.82,-15.47 461.77,-45.22 128.96,-29.76 234.79,-73.81 319.62,-131.14 83.81,-57.33 145.51,-127.86 185.19,-211.59 39.68,-83.81 59.52,-178.55 59.52,-284.39 0,-92.56 -20.93,-176.37 -61.7,-252.37 -40.77,-74.98 -102.48,-138.87 -187.38,-191.83 -83.73,-52.88 -190.66,-93.65 -320.71,-122.32 -130.05,-29.76 -284.39,-44.05 -462.94,-44.05l-468.41 0 0 -601.82 429.83 0c168.63,0 307.51,-16.56 418.81,-49.6 110.21,-34.21 199.49,-78.26 264.55,-134.5 66.16,-56.16 112.4,-122.32 141.06,-198.39 27.57,-77.09 41.87,-157.62 41.87,-241.35 0,-171.91 -56.16,-303.13 -167.46,-392.41 -112.47,-89.28 -285.48,-134.42 -520.27,-134.42 -168.63,0 -333.99,16.48 -498.17,48.5 -163.17,33.04 -332.89,76 -507,130.05l0 -661.34c96.93,-31.95 189.57,-59.52 277.75,-81.54 88.18,-20.93 176.29,-39.68 264.47,-55.14 88.18,-14.29 178.55,-25.31 269,-31.95 90.37,-6.64 184.02,-9.92 279.94,-9.92 232.53,0 437.56,24.29 612.83,73.89 175.19,49.6 322.9,120.13 441.93,211.59 120.13,91.46 209.41,203.86 270.02,335.08 60.61,131.14 90.37,277.75 90.37,438.65 0,256.82 -58.35,464.04 -176.29,622.75 -116.85,157.62 -281.11,278.84 -492.7,362.57 135.59,22.1 257.91,59.52 368.12,111.38 109.12,52.88 203.94,121.22 282.2,203.86 78.19,82.64 138.87,178.55 180.74,286.58 41.87,106.93 62.8,227.06 62.8,358.2z"/>
   <g>
    <path class="fil2" d="M41341.16 7483.78l-27314.01 0 0 -781.07 27314.01 0 0 781.07zm818.64 -62.88l-425.06 -655.32 0.08 655.4 -3082.12 -1997.99 424.9 -655.48 3082.12 1997.99 0.08 655.4zm0 0l-0.08 -655.4 505.28 327.58 -505.2 327.82zm-3294.65 1671.89l-212.53 -327.66 3082.12 -1999.55 425.06 655.32 -3082.12 1999.55 -212.53 -327.66z"/>
   </g>
   <g>
    <path class="fil2" d="M12083.06 11761.81c-152.47,-152.47 -152.47,-399.91 0,-552.38 152.47,-152.47 399.91,-152.47 552.38,0l-552.38 552.38zm30343.25 30343.25l-30343.25 -30343.25 552.38 -552.38 30343.25 30343.25 -552.38 552.38zm623.38 534.41l162.78 -763.97 -463.33 463.49 -766.7 -3592.55 763.97 -163.01 766.7 3592.55 -463.41 463.49zm0 0l463.41 -463.49 125.67 589.01 -589.09 -125.52zm-3512.26 -1147.55l81.39 -382.02 3593.64 765.61 -162.78 763.97 -3593.57 -765.53 81.31 -382.02zm3441.26 60.77c152.47,152.47 152.47,399.91 0,552.38 -152.47,152.47 -399.91,152.47 -552.38,0l552.38 -552.38z"/>
   </g>
   <g>
    <path class="fil2" d="M14027.16 46621.54c-215.65,0 -390.54,-174.88 -390.54,-390.54 0,-215.65 174.88,-390.54 390.54,-390.54l0 781.07zm27314.01 0l-27314.01 0 0 -781.07 27314.01 0 0 781.07zm818.64 -62.88l-425.06 -655.32 0.08 655.4 -3082.12 -1997.99 424.9 -655.48 3082.12 1997.99 0.08 655.4zm0 0l-0.08 -655.4 505.28 327.58 -505.2 327.82zm-3294.65 1671.89l-212.53 -327.66 3082.12 -1999.55 425.06 655.32 -3082.12 1999.55 -212.53 -327.66zm2476.01 -2390.09c215.65,0 390.54,174.88 390.54,390.54 0,215.65 -174.88,390.54 -390.54,390.54l0 -781.07z"/>
   </g>
   <g>
    <path class="fil2" d="M56243.12 46569.2c-186.75,107.79 -425.69,43.82 -533.47,-142.94 -107.79,-186.75 -43.82,-425.69 142.94,-533.47l390.54 676.41zm28068.21 -16205.18l-28068.21 16205.18 -390.54 -676.41 28068.21 -16205.18 390.54 676.41zm677.5 -463.8l-695.78 -354.92 327.74 567.45 -3668.16 -189.25 40.23 -779.98 3668.16 189.25 327.82 567.45zm0 0l-327.82 -567.45 601.43 31.01 -273.61 536.44zm-2017.36 3095.24l-347.89 -177.46 1669.47 -3272.7 695.78 354.92 -1669.47 3272.7 -347.89 -177.46zm949.32 -3307.85c186.75,-107.79 425.69,-43.82 533.47,142.94 107.79,186.75 43.82,425.69 -142.94,533.47l-390.54 -676.41z"/>
   </g>
   <g>
    <path class="fil2" d="M55852.58 7431.45c-186.75,-107.79 -250.72,-346.72 -142.94,-533.47 107.79,-186.75 346.72,-250.72 533.47,-142.94l-390.54 676.41zm28068.21 16205.18l-28068.21 -16205.18 390.54 -676.41 28068.21 16205.18 -390.54 676.41zm740.38 354.84l-40.54 -779.98 -327.5 567.61 -1670.25 -3271.37 695.7 -355.15 1670.17 3271.29 -327.58 567.61zm0 0l327.58 -567.61 273.84 536.36 -601.43 31.24zm-3689.25 -199.41l-20.23 -389.99 3668.94 -190.58 40.54 779.98 -3668.94 190.58 -20.31 -389.99zm3339.4 -831.84c186.75,107.79 250.72,346.72 142.94,533.47 -107.79,186.75 -346.72,250.72 -533.47,142.94l390.54 -676.41z"/>
   </g>
   <polygon class="fil2" points="27546.3,6213.21 27546.3,5862.74 28085.24,5862.74 28085.24,4506.49 27616.28,4764.94 27486.78,4444.23 28157.96,4090.41 28488.67,4090.41 28488.67,5862.74 28951.53,5862.74 28951.53,6213.21 "/>
   <path class="fil2" d="M30150.24 25846.99c0,173.55 -18.67,328.44 -56.71,465.13 -37.49,136.61 -92.64,251.82 -165.35,346.02 -72.72,94.28 -160.9,165.9 -265.64,215.5 -104.12,49.6 -223.7,74.44 -358.2,74.44 -116.22,0 -223.15,-20.39 -321.26,-61.16 -98.1,-40.85 -182.38,-105.29 -253.54,-192.93 -71.08,-87.64 -126.14,-200.03 -166.37,-336.72 -39.68,-136.69 -59.52,-300.32 -59.52,-490.44 0,-173.63 19.29,-328.44 57.25,-465.13 38.04,-136.69 93.18,-251.82 165.35,-346.09 72.17,-94.2 160.9,-165.9 266.74,-215.5 105.29,-49.6 224.87,-74.36 358.2,-74.36 116.3,0 223.15,20.39 321.26,61.16 98.1,40.77 181.91,105.29 252.44,192.3 70.53,87.09 125.6,198.94 165.82,335.63 39.68,136.69 59.52,300.95 59.52,492.15zm-1249.8 7.73c0,21.48 0,41.87 0,60.61 0,18.75 1.09,37.96 3.28,57.25l791.93 -571.98c-38.04,-106.93 -87.64,-185.74 -149.89,-236.98 -61.78,-51.24 -134.5,-77.17 -218.78,-77.17 -60.06,0 -116.3,15.47 -168.09,46.32 -51.86,30.31 -96.46,77.72 -135.05,141.06 -38.04,63.89 -68.34,143.87 -90.37,239.71 -22.03,95.92 -33.04,209.41 -33.04,341.17zm853.09 6.01c0,-18.2 -0.62,-36.4 -1.72,-55.61 -1.09,-18.75 -1.64,-36.94 -1.64,-54.05l-786.93 568.7c34.68,104.2 83.18,181.37 145.51,232.06 62.8,50.14 135.52,75.45 218.23,75.45 60.06,0 116.77,-15.39 168.63,-46.79 52.33,-30.85 97.48,-78.26 136.06,-141.14 38.04,-62.8 67.8,-142.7 89.28,-238.62 21.48,-96.38 32.57,-209.41 32.57,-340zm1381.02 455.76c45.15,0 87.01,8.28 125.6,24.84 39.13,17.03 72.8,39.05 100.84,67.72 28.67,28.67 51.24,62.33 67.25,100.91 16.01,38.51 24.29,79.9 24.29,123.96 0,42.96 -8.28,83.18 -24.29,121.77 -16.01,38.04 -38.59,71.08 -67.25,99.74 -28.04,28.67 -61.7,50.69 -100.84,67.8 -38.59,16.56 -80.45,24.84 -125.6,24.84 -43.04,0 -83.81,-8.28 -121.3,-24.84 -38.04,-17.11 -70.53,-39.13 -98.65,-67.8 -28.04,-28.67 -50.14,-61.7 -66.08,-99.74 -16.01,-38.59 -24.29,-78.81 -24.29,-121.77 0,-44.05 8.28,-85.45 24.29,-123.96 15.93,-38.59 38.04,-72.25 66.08,-100.91 28.12,-28.67 60.61,-50.69 98.65,-67.72 37.49,-16.56 78.26,-24.84 121.3,-24.84zm1127.48 595.18l0 -290.95 498.72 -498.79c93.18,-93.65 168.09,-174.1 224.87,-241.9 56.24,-67.8 99.74,-128.41 130.6,-181.83 30.85,-53.5 50.69,-102.56 60.61,-147.7 9.37,-45.22 14.37,-92.01 14.37,-140.52 0,-39.68 -6.64,-77.72 -19.29,-113.57 -13.28,-36.32 -32.02,-67.17 -56.78,-93.65 -24.29,-26.48 -55.69,-47.41 -93.1,-63.35 -38.04,-15.47 -81.08,-23.2 -129.58,-23.2 -82.64,0 -159.26,18.2 -230.34,54.05 -71.08,35.77 -138.33,84.28 -201.67,144.34l-208.31 -267.83c91.46,-85.37 194.57,-153.17 309.15,-204.41 114.66,-51.32 238.62,-76.62 372.03,-76.62 103.57,0 196.67,13.2 281.03,39.68 83.73,26.48 155.43,64.99 215.5,116.85 59.52,51.79 105.76,116.22 138.87,193.94 32.49,77.17 49.05,166.99 49.05,267.83 0,84.36 -11.09,162.62 -33.66,235.34 -22.57,72.17 -55.61,143.25 -98.65,212.14 -42.96,68.89 -95.84,137.78 -159.26,206.67 -62.8,68.89 -134.42,141.61 -215.5,217.69l-306.34 292.04 889.41 0 0 363.75 -1431.71 0z"/>
   <path class="fil2" d="M70818.43 12957.4c0,173.55 -18.67,328.44 -56.71,465.13 -37.49,136.61 -92.64,251.82 -165.35,346.02 -72.72,94.28 -160.9,165.9 -265.64,215.5 -104.12,49.6 -223.7,74.44 -358.2,74.44 -116.22,0 -223.15,-20.39 -321.26,-61.16 -98.1,-40.85 -182.38,-105.29 -253.54,-192.93 -71.08,-87.64 -126.14,-200.03 -166.37,-336.72 -39.68,-136.69 -59.52,-300.32 -59.52,-490.44 0,-173.63 19.29,-328.44 57.25,-465.13 38.04,-136.69 93.18,-251.82 165.35,-346.09 72.17,-94.2 160.9,-165.9 266.74,-215.5 105.29,-49.6 224.87,-74.36 358.2,-74.36 116.3,0 223.15,20.39 321.26,61.16 98.1,40.77 181.91,105.29 252.44,192.3 70.53,87.09 125.6,198.94 165.82,335.63 39.68,136.69 59.52,300.95 59.52,492.15zm-1249.8 7.73c0,21.48 0,41.87 0,60.61 0,18.75 1.09,37.96 3.28,57.25l791.93 -571.98c-38.04,-106.93 -87.64,-185.74 -149.89,-236.98 -61.78,-51.24 -134.5,-77.17 -218.78,-77.17 -60.06,0 -116.3,15.47 -168.09,46.32 -51.86,30.31 -96.46,77.72 -135.05,141.06 -38.04,63.89 -68.34,143.87 -90.37,239.71 -22.03,95.92 -33.04,209.41 -33.04,341.17zm853.09 6.01c0,-18.2 -0.62,-36.4 -1.72,-55.61 -1.09,-18.75 -1.64,-36.94 -1.64,-54.05l-786.93 568.7c34.68,104.2 83.18,181.37 145.51,232.06 62.8,50.14 135.52,75.45 218.23,75.45 60.06,0 116.77,-15.39 168.63,-46.79 52.33,-30.85 97.48,-78.26 136.06,-141.14 38.04,-62.8 67.8,-142.7 89.28,-238.62 21.48,-96.38 32.57,-209.41 32.57,-340zm1381.02 455.76c45.15,0 87.01,8.28 125.6,24.84 39.13,17.03 72.8,39.05 100.84,67.72 28.67,28.67 51.24,62.33 67.25,100.91 16.01,38.51 24.29,79.9 24.29,123.96 0,42.96 -8.28,83.18 -24.29,121.77 -16.01,38.04 -38.59,71.08 -67.25,99.74 -28.04,28.67 -61.7,50.69 -100.84,67.8 -38.59,16.56 -80.45,24.84 -125.6,24.84 -43.04,0 -83.81,-8.28 -121.3,-24.84 -38.04,-17.11 -70.53,-39.13 -98.65,-67.8 -28.04,-28.67 -50.14,-61.7 -66.08,-99.74 -16.01,-38.59 -24.29,-78.81 -24.29,-121.77 0,-44.05 8.28,-85.45 24.29,-123.96 15.93,-38.59 38.04,-72.25 66.08,-100.91 28.12,-28.67 60.61,-50.69 98.65,-67.72 37.49,-16.56 78.26,-24.84 121.3,-24.84zm2612.07 -73.81c0,106.85 -19.21,203.31 -57.8,289.86 -39.13,86.54 -92.64,160.9 -160.98,222.61 -68.27,61.7 -149.34,109.66 -244.09,142.78 -94.82,33.59 -198.39,50.14 -311.34,50.14 -246.35,0 -434.82,-77.72 -564.87,-232.6 -130.05,-154.81 -195.11,-391.24 -195.11,-709.76 0,-116.3 7.19,-226.51 20.93,-331.8 13.75,-104.66 37.49,-201.13 69.98,-290.4 33.04,-88.73 77.17,-168.63 132.86,-240.81 55.07,-72.17 124.5,-133.41 207.14,-183.55 82.72,-49.6 180.82,-88.73 293.76,-115.68 112.94,-27.57 244.16,-41.32 394.05,-41.32l240.26 0 0 333.91 -280.48 0c-116.3,0 -213.86,11.56 -292.12,35.3 -78.81,23.67 -142.7,57.88 -192.3,101.93 -49.6,44.05 -86.54,97.56 -111.3,160.9 -24.84,63.42 -40.85,135.05 -48.5,214.95l-3.36 39.13c56.24,-27.03 119.58,-49.05 191.29,-66.7 71.62,-17.11 146.53,-25.93 224.79,-25.93 114.11,0 214.4,14.92 300.4,44.68 85.92,29.21 157.54,72.17 214.87,127.86 57.88,56.16 100.84,123.96 128.96,203.31 28.67,79.9 42.96,170.27 42.96,271.19zm-409.99 17.57c0,-49.05 -6.56,-94.74 -19.29,-136.06 -13.2,-41.32 -33.04,-77.17 -60.61,-106.93 -27.57,-29.21 -62.25,-52.33 -104.66,-69.44 -42.49,-16.56 -93.18,-24.84 -152.15,-24.84 -34.68,0 -68.89,2.81 -102.48,8.83 -33.59,6.09 -66.7,13.83 -98.1,23.74 -31.95,9.92 -61.7,20.39 -90.37,32.49 -28.67,12.11 -53.97,24.21 -76.62,37.49 0,108.57 7.73,200.03 22.65,274.94 14.84,74.98 37.96,135.59 68.27,183.01 30.93,47.41 68.89,81.54 114.66,102.48 45.77,20.93 98.65,31.4 158.71,31.4 51.79,0 98.1,-8.83 139.97,-25.85 41.87,-17.11 77.72,-41.87 107.48,-73.34 29.21,-31.95 52.33,-69.44 68.34,-112.94 15.93,-43.51 24.21,-92.01 24.21,-144.97z"/>
   <path class="fil2" d="M67115.52 35979.87c0,173.55 -18.67,328.44 -56.71,465.13 -37.49,136.61 -92.64,251.82 -165.35,346.02 -72.72,94.28 -160.9,165.9 -265.64,215.5 -104.12,49.6 -223.7,74.44 -358.2,74.44 -116.22,0 -223.15,-20.39 -321.26,-61.16 -98.1,-40.85 -182.38,-105.29 -253.54,-192.93 -71.08,-87.64 -126.14,-200.03 -166.37,-336.72 -39.68,-136.69 -59.52,-300.32 -59.52,-490.44 0,-173.63 19.29,-328.44 57.25,-465.13 38.04,-136.69 93.18,-251.82 165.35,-346.09 72.17,-94.2 160.9,-165.9 266.74,-215.5 105.29,-49.6 224.87,-74.36 358.2,-74.36 116.3,0 223.15,20.39 321.26,61.16 98.1,40.77 181.91,105.29 252.44,192.3 70.53,87.09 125.6,198.94 165.82,335.63 39.68,136.69 59.52,300.95 59.52,492.15zm-1249.8 7.73c0,21.48 0,41.87 0,60.61 0,18.75 1.09,37.96 3.28,57.25l791.93 -571.98c-38.04,-106.93 -87.64,-185.74 -149.89,-236.98 -61.78,-51.24 -134.5,-77.17 -218.78,-77.17 -60.06,0 -116.3,15.47 -168.09,46.32 -51.86,30.31 -96.46,77.72 -135.05,141.06 -38.04,63.89 -68.34,143.87 -90.37,239.71 -22.03,95.92 -33.04,209.41 -33.04,341.17zm853.09 6.01c0,-18.2 -0.62,-36.4 -1.72,-55.61 -1.09,-18.75 -1.64,-36.94 -1.64,-54.05l-786.93 568.7c34.68,104.2 83.18,181.37 145.51,232.06 62.8,50.14 135.52,75.45 218.23,75.45 60.06,0 116.77,-15.39 168.63,-46.79 52.33,-30.85 97.48,-78.26 136.06,-141.14 38.04,-62.8 67.8,-142.7 89.28,-238.62 21.48,-96.38 32.57,-209.41 32.57,-340zm1381.02 455.76c45.15,0 87.01,8.28 125.6,24.84 39.13,17.03 72.8,39.05 100.84,67.72 28.67,28.67 51.24,62.33 67.25,100.91 16.01,38.51 24.29,79.9 24.29,123.96 0,42.96 -8.28,83.18 -24.29,121.77 -16.01,38.04 -38.59,71.08 -67.25,99.74 -28.04,28.67 -61.7,50.69 -100.84,67.8 -38.59,16.56 -80.45,24.84 -125.6,24.84 -43.04,0 -83.81,-8.28 -121.3,-24.84 -38.04,-17.11 -70.53,-39.13 -98.65,-67.8 -28.04,-28.67 -50.14,-61.7 -66.08,-99.74 -16.01,-38.59 -24.29,-78.81 -24.29,-121.77 0,-44.05 8.28,-85.45 24.29,-123.96 15.93,-38.59 38.04,-72.25 66.08,-100.91 28.12,-28.67 60.61,-50.69 98.65,-67.72 37.49,-16.56 78.26,-24.84 121.3,-24.84zm2347.6 165.35l0 429.83 -385.23 0 0 -429.83 -980.4 0 0 -337.27 822.24 -1342.43 543.39 0 0 1332.51 320.71 0 0 347.19 -320.71 0zm-380.23 -1298.93l-599.63 951.74 599.63 0 0 -951.74z"/>
   <path class="fil2" d="M27264.1 44279.64c0,173.55 -18.67,328.44 -56.71,465.13 -37.49,136.61 -92.64,251.82 -165.35,346.02 -72.72,94.28 -160.9,165.9 -265.64,215.5 -104.12,49.6 -223.7,74.44 -358.2,74.44 -116.22,0 -223.15,-20.39 -321.26,-61.16 -98.1,-40.85 -182.38,-105.29 -253.54,-192.93 -71.08,-87.64 -126.14,-200.03 -166.37,-336.72 -39.68,-136.69 -59.52,-300.32 -59.52,-490.44 0,-173.63 19.29,-328.44 57.25,-465.13 38.04,-136.69 93.18,-251.82 165.35,-346.09 72.17,-94.2 160.9,-165.9 266.74,-215.5 105.29,-49.6 224.87,-74.36 358.2,-74.36 116.3,0 223.15,20.39 321.26,61.16 98.1,40.77 181.91,105.29 252.44,192.3 70.53,87.09 125.6,198.94 165.82,335.63 39.68,136.69 59.52,300.95 59.52,492.15zm-1249.8 7.73c0,21.48 0,41.87 0,60.61 0,18.75 1.09,37.96 3.28,57.25l791.93 -571.98c-38.04,-106.93 -87.64,-185.74 -149.89,-236.98 -61.78,-51.24 -134.5,-77.17 -218.78,-77.17 -60.06,0 -116.3,15.47 -168.09,46.32 -51.86,30.31 -96.46,77.72 -135.05,141.06 -38.04,63.89 -68.34,143.87 -90.37,239.71 -22.03,95.92 -33.04,209.41 -33.04,341.17zm853.09 6.01c0,-18.2 -0.62,-36.4 -1.72,-55.61 -1.09,-18.75 -1.64,-36.94 -1.64,-54.05l-786.93 568.7c34.68,104.2 83.18,181.37 145.51,232.06 62.8,50.14 135.52,75.45 218.23,75.45 60.06,0 116.77,-15.39 168.63,-46.79 52.33,-30.85 97.48,-78.26 136.06,-141.14 38.04,-62.8 67.8,-142.7 89.28,-238.62 21.48,-96.38 32.57,-209.41 32.57,-340zm1381.02 455.76c45.15,0 87.01,8.28 125.6,24.84 39.13,17.03 72.8,39.05 100.84,67.72 28.67,28.67 51.24,62.33 67.25,100.91 16.01,38.51 24.29,79.9 24.29,123.96 0,42.96 -8.28,83.18 -24.29,121.77 -16.01,38.04 -38.59,71.08 -67.25,99.74 -28.04,28.67 -61.7,50.69 -100.84,67.8 -38.59,16.56 -80.45,24.84 -125.6,24.84 -43.04,0 -83.81,-8.28 -121.3,-24.84 -38.04,-17.11 -70.53,-39.13 -98.65,-67.8 -28.04,-28.67 -50.14,-61.7 -66.08,-99.74 -16.01,-38.59 -24.29,-78.81 -24.29,-121.77 0,-44.05 8.28,-85.45 24.29,-123.96 15.93,-38.59 38.04,-72.25 66.08,-100.91 28.12,-28.67 60.61,-50.69 98.65,-67.72 37.49,-16.56 78.26,-24.84 121.3,-24.84zm2178.96 -522.46c52.88,28.67 103.02,61.24 150.98,95.92 47.41,35.3 89.28,75.53 125.67,121.22 35.77,45.77 64.44,97.01 85.37,154.89 20.93,57.33 31.48,122.86 31.48,196.21 0,95.84 -19.29,180.19 -57.88,253.46 -39.13,72.8 -92.64,134.5 -160.98,184.1 -68.27,49.05 -148.17,86.46 -240.26,111.3 -92.01,24.76 -191.21,36.94 -297.59,36.94 -118.49,0 -223.15,-12.73 -314.07,-38.04 -90.92,-25.38 -167.54,-61.16 -229.25,-107.48 -61.78,-46.32 -108.57,-101.93 -140.59,-167.54 -31.4,-65.53 -47.33,-138.87 -47.33,-219.87 0,-71.62 10.47,-136.14 31.4,-192.85 20.93,-56.24 49.6,-107.48 86.54,-153.79 36.32,-46.32 78.73,-87.64 126.14,-124.5 47.96,-36.4 98.65,-70.61 152.7,-101.46 -48.5,-28.12 -94.28,-58.97 -136.69,-92.01 -42.41,-33.59 -79.9,-71.08 -111.85,-112.94 -32.57,-41.94 -58.42,-88.73 -77.17,-140.52 -18.75,-51.86 -28.12,-110.29 -28.12,-175.82 0,-76.62 14.84,-148.25 44.6,-215.5 29.21,-67.25 73.34,-126.22 132.31,-176.91 58.42,-50.69 132.24,-90.37 220.97,-119.58 89.28,-29.21 193.47,-43.51 313.05,-43.51 109.66,0 207.69,11.56 293.68,34.68 86,23.2 158.71,56.24 217.14,99.2 58.97,43.04 103.57,94.28 133.95,154.34 30.85,59.52 46.24,125.67 46.24,197.85 0,66.7 -9.37,126.77 -27.57,180.74 -18.12,53.43 -42.96,102.48 -74.36,146.06 -30.85,43.51 -68.34,82.64 -111.3,117.94 -43.04,34.68 -88.73,67.17 -137.23,97.48zm-309.7 -152.08c38.59,-21.48 74.91,-44.05 109.12,-68.34 34.13,-24.21 63.35,-50.69 88.18,-79.9 24.76,-29.21 44.6,-60.61 60.06,-95.29 14.84,-34.21 22.57,-72.8 22.57,-114.66 0,-69.44 -27.57,-122.86 -82.64,-159.26 -55.14,-36.4 -134.5,-54.52 -238.07,-54.52 -101.46,0 -179.73,18.67 -234.79,56.16 -55.14,38.04 -82.64,94.28 -82.64,169.18 0,41.32 9.37,77.72 27.49,109.66 18.2,32.57 43.58,62.33 76.08,89.82 32.49,27.57 70.53,52.96 114.11,76.62 44.05,23.67 90.37,47.41 140.52,70.53zm-82.72 357.11c-41.87,22.57 -81.54,46.86 -119.04,72.72 -36.87,25.38 -69.44,54.05 -96.38,85.45 -27.57,30.85 -49.6,65.06 -65.61,102.48 -16.01,36.94 -24.21,78.81 -24.21,125.13 0,82.09 31.95,144.34 95.29,187.38 63.42,43.51 147.7,64.99 251.9,64.99 47.33,0 92.01,-4.92 133.88,-14.29 41.87,-9.92 78.81,-24.84 110.76,-45.77 31.95,-20.39 56.78,-46.24 74.98,-78.26 18.2,-31.95 27.57,-69.98 27.57,-114.04 0,-45.22 -10.54,-86 -30.93,-121.77 -20.39,-36.4 -48.43,-69.44 -83.73,-99.74 -35.85,-29.76 -77.17,-58.42 -124.58,-85.45 -47.33,-27.03 -96.93,-52.88 -149.89,-78.81z"/>
  </g>
 </g>
</svg>
