<?xml version="1.0" encoding="UTF-8"?>
<!DOCTYPE svg PUBLIC "-//W3C//DTD SVG 1.1//EN" "http://www.w3.org/Graphics/SVG/1.1/DTD/svg11.dtd">
<!-- Creator: CorelDRAW 2018 (64-Bit) -->
<svg xmlns="http://www.w3.org/2000/svg" xml:space="preserve" width="126.056mm" height="68.2704mm" version="1.1" style="shape-rendering:geometricPrecision; text-rendering:geometricPrecision; image-rendering:optimizeQuality; fill-rule:evenodd; clip-rule:evenodd"
viewBox="0 0 33461.47 18122.33"
 xmlns:xlink="http://www.w3.org/1999/xlink">
 <defs>
  <style type="text/css">
   <![CDATA[
    .str0 {stroke:black;stroke-width:265.45;stroke-miterlimit:22.9256}
    .str1 {stroke:black;stroke-width:66.36;stroke-miterlimit:10}
    .fil0 {fill:red}
    .fil2 {fill:black;fill-rule:nonzero}
    .fil1 {fill:white;fill-rule:nonzero}
    .fil3 {fill:black;fill-rule:nonzero}
   ]]>
  </style>
 </defs>
 <g id="Layer_x0020_1">
  <metadata id="CorelCorpID_0Corel-Layer"/>
  <g id="_2569689438544">
   <path class="fil0 str0" d="M31011.53 6783.24c1279.76,0 2317.21,1019.86 2317.21,2277.93 0,1258.07 -1037.46,2277.93 -2317.21,2277.93 -1279.76,0 -2317.21,-1019.86 -2317.21,-2277.93 0,-1258.07 1037.46,-2277.93 2317.21,-2277.93z"/>
   <path class="fil0 str0" d="M16730.73 132.72c1279.76,0 2317.21,1019.86 2317.21,2277.93 0,1258.07 -1037.46,2277.93 -2317.21,2277.93 -1279.76,0 -2317.21,-1019.86 -2317.21,-2277.93 0,-1258.07 1037.46,-2277.93 2317.21,-2277.93z"/>
   <path class="fil0 str0" d="M16730.73 13433.75c1279.76,0 2317.21,1019.86 2317.21,2277.93 0,1258.07 -1037.46,2277.93 -2317.21,2277.93 -1279.76,0 -2317.21,-1019.86 -2317.21,-2277.93 0,-1258.07 1037.46,-2277.93 2317.21,-2277.93z"/>
   <path class="fil0 str0" d="M2449.94 132.72c1279.76,0 2317.21,1019.86 2317.21,2277.93 0,1258.07 -1037.46,2277.93 -2317.21,2277.93 -1279.76,0 -2317.21,-1019.86 -2317.21,-2277.93 0,-1258.07 1037.46,-2277.93 2317.21,-2277.93z"/>
   <path class="fil0 str0" d="M2449.94 13433.75c1279.76,0 2317.21,1019.86 2317.21,2277.93 0,1258.07 -1037.46,2277.93 -2317.21,2277.93 -1279.76,0 -2317.21,-1019.86 -2317.21,-2277.93 0,-1258.07 1037.46,-2277.93 2317.21,-2277.93z"/>
   <polygon class="fil1" points="2701.08,2968.04 2445.98,2591.58 2189.77,2968.04 1866.13,2968.04 2284.54,2406.16 1887.48,1853.29 2213.37,1853.29 2465.09,2220.38 2712.68,1853.29 3013.49,1853.29 2628.4,2403.93 3033.71,2968.04 "/>
   <path class="fil1" d="M17231.93 15899.72c0,102.62 -14.6,191.02 -43.45,265.95 -28.85,74.54 -68.94,136.71 -120.62,185.79 -51.31,49.43 -112.36,86.14 -182.42,110.11 -70.42,23.6 -146.85,35.6 -229.24,35.6 -81.28,0 -156.56,-6 -226.61,-17.97 -69.68,-12.37 -136.36,-28.48 -200.04,-49.08l0 -1503.93 267.47 0 0 364.09 -10.86 219.5c40.06,-52.05 87.25,-93.65 140.82,-125.11 53.57,-31.48 118.36,-47.2 193.67,-47.2 65.91,0 124.36,13.11 175.3,39.71 51.31,26.2 94.39,63.68 128.85,112.36 34.83,48.68 61.42,107.51 79.79,176.79 18.34,69.31 27.34,146.85 27.34,233.38zm-280.95 10.86c0,-61.8 -4.49,-113.88 -13.09,-157.33 -9,-43.08 -21.37,-78.65 -37.85,-106.37 -16.48,-27.74 -36.71,-48.34 -60.31,-61.05 -23.97,-12.74 -50.94,-19.11 -81.65,-19.11 -45.31,0 -88.77,18.34 -129.96,55.05 -41.22,36.34 -85.05,86.16 -131.11,149.08l0 487.71c21.34,7.88 47.2,14.63 78.28,19.48 31.08,5.26 62.94,7.86 95.14,7.86 42.34,0 80.91,-8.6 115.36,-26.2 34.85,-17.63 64.45,-42.71 89.16,-74.94 24.34,-32.2 43.08,-71.54 56.2,-117.99 13.09,-46.45 19.83,-98.51 19.83,-156.19z"/>
   <path class="fil1" d="M31465.53 9574.7c-52.45,21.37 -107.14,37.08 -163.33,47.57 -56.17,10.11 -115.36,15.37 -176.42,15.37 -88.77,0 -167.82,-12 -238.24,-36.34 -70.03,-23.97 -129.59,-59.94 -178.67,-107.51 -49.06,-47.57 -86.51,-106.37 -112.36,-176.79 -25.85,-70.42 -38.97,-151.7 -38.97,-243.87 0,-89.14 14.25,-170.05 42.34,-242.73 28.08,-72.28 67.8,-134.08 119.11,-185.42 51.31,-51.31 112.76,-90.62 185.04,-118.74 71.94,-27.71 152.45,-41.57 240.87,-41.57 72.28,0 133.34,3.74 182.79,11.6 49.45,7.51 94.02,17.23 133.34,28.85l0 260.7c-45.31,-22.86 -94.77,-40.45 -147.56,-53.2 -53.2,-12.34 -103.39,-18.71 -150.96,-18.71 -49.82,0 -94.39,8.23 -134.1,25.08 -39.34,16.86 -72.65,40.45 -99.62,70.42 -27.37,29.97 -47.97,66.68 -62.19,109.39 -14.23,42.68 -21.34,89.88 -21.34,141.22 0,53.54 7.49,101.51 22.86,143.82 15.34,42.71 37.08,78.68 65.54,108.25 28.08,29.6 61.8,52.45 101.14,68.19 39.34,15.71 83.54,23.6 131.48,23.6 23.6,0 48.31,-1.51 74.17,-4.88 25.85,-3.37 51.68,-8.23 77.54,-14.6 26.23,-6 51.68,-13.48 76.79,-21.34 25.46,-8.26 49.06,-16.86 70.8,-26.6l0 238.21z"/>
   <path class="fil1" d="M2654.07 15915.83c-38.57,96.62 -79.02,181.28 -120.99,254.33 -42.31,73.05 -88.39,133.73 -138.96,182.42 -50.57,49.08 -106.76,85.42 -168.56,110.13 -61.82,24.34 -131.11,36.71 -207.9,36.71 -18.34,0 -38.2,-0.74 -59.94,-2.63 -21.34,-1.88 -43.45,-4.86 -66.28,-8.23l0 -227.38c8.6,1.49 18.71,3 30.34,4.86 11.23,1.88 23.23,3.37 35.57,4.51 12.37,1.11 25.11,2.23 37.83,3 12.74,0.74 24.74,1.11 35.6,1.11 30.71,0 59.2,-6 85.77,-17.6 26.23,-11.63 50.57,-28.11 73.05,-48.71 22.11,-20.97 42.34,-45.68 60.68,-74.91 18.37,-28.83 34.46,-60.31 48.34,-94.77l-443.14 -1114.75 298.55 0 232.24 633.04 69.28 203.02 67.8 -195.16 233.36 -640.9 287.69 0 -390.32 991.9z"/>
   <path class="fil1" d="M16982.83 2968.04l-6.74 -145.71c-23.6,24.71 -47.94,47.57 -73.79,68.17 -25.48,20.97 -53.57,38.97 -84.28,54.31 -31.08,15 -64.42,26.97 -100.76,35.23 -36.34,8.6 -76.02,12.72 -119.11,12.72 -57.31,0 -107.51,-8.23 -150.59,-25.08 -43.08,-16.86 -79.42,-40.45 -108.62,-70.42 -29.6,-29.97 -51.71,-65.94 -66.68,-108.25 -14.97,-42.34 -22.48,-89.16 -22.48,-140.48 0,-52.43 11.26,-101.14 33.34,-145.71 22.48,-44.57 56.57,-82.79 102.28,-114.99 46.06,-32.23 102.99,-57.31 171.56,-75.68 68.54,-18.34 148.7,-27.34 241.21,-27.34l146.08 0 0 -67.05c0,-28.46 -4.11,-54.31 -11.97,-77.54 -8.26,-23.23 -20.97,-42.68 -38.97,-58.8 -17.97,-16.11 -41.2,-28.48 -69.65,-37.45 -28.48,-8.63 -63.68,-13.11 -105.28,-13.11 -65.91,0 -131.08,7.49 -194.76,22.48 -64.05,14.97 -126.25,35.94 -186.19,62.91l0 -213.5c53.57,-21.34 114.99,-38.97 184.67,-53.2 70.05,-13.86 142.73,-20.97 218.01,-20.97 82.4,0 153.56,7.86 212.76,23.6 59.2,15.74 107.88,39.34 146.45,70.8 38.22,31.46 66.68,70.8 85.05,117.99 18.34,47.2 27.34,102.25 27.34,165.19l0 761.89 -228.87 0zm-38.6 -492.2l-164.05 0c-45.34,0 -83.91,4.49 -115.36,13.11 -31.48,8.97 -56.94,20.97 -76.79,36.34 -19.86,15.34 -34.46,32.94 -43.45,52.8 -9.37,20.23 -13.86,41.6 -13.86,64.42 0,44.97 14.6,79.79 43.83,103.39 29.6,23.6 69.28,35.6 120.22,35.6 37.08,0 76.05,-13.48 116.51,-40.45 40.08,-26.97 84.65,-65.94 132.96,-116.13l0 -149.08z"/>
   <g>
    <path class="fil2" d="M14049.86 2543.38l-9282.71 0 0 -265.45 9282.71 0 0 265.45zm278.22 -21.37l-144.46 -222.71 0.03 222.74 -1047.46 -679.02 144.4 -222.76 1047.46 679.02 0.03 222.74zm0 0l-0.03 -222.74 171.72 111.33 -171.69 111.41zm-1119.69 568.19l-72.23 -111.36 1047.46 -679.55 144.46 222.71 -1047.46 679.55 -72.23 -111.36z"/>
   </g>
   <g>
    <path class="fil2" d="M4767.15 15844.4c-73.29,0 -132.72,-59.43 -132.72,-132.72 0,-73.29 59.43,-132.72 132.72,-132.72l0 265.45zm9282.71 0l-9282.71 0 0 -265.45 9282.71 0 0 265.45zm278.22 -21.37l-144.46 -222.71 0.03 222.74 -1047.46 -679.02 144.4 -222.76 1047.46 679.02 0.03 222.74zm0 0l-0.03 -222.74 171.72 111.33 -171.69 111.41zm-1119.69 568.19l-72.23 -111.36 1047.46 -679.55 144.46 222.71 -1047.46 679.55 -72.23 -111.36zm841.47 -812.27c73.29,0 132.72,59.43 132.72,132.72 0,73.29 -59.43,132.72 -132.72,132.72l0 -265.45z"/>
   </g>
   <g>
    <path class="fil2" d="M19114.31 15826.61c-63.47,36.63 -144.67,14.89 -181.3,-48.58 -36.63,-63.47 -14.89,-144.67 48.58,-181.3l132.72 229.88zm9539.02 -5507.35l-9539.02 5507.35 -132.72 -229.88 9539.02 -5507.35 132.72 229.88zm230.25 -157.62l-236.46 -120.62 111.38 192.85 -1246.63 -64.32 13.67 -265.08 1246.63 64.32 111.41 192.85zm0 0l-111.41 -192.85 204.4 10.54 -92.99 182.31zm-685.6 1051.92l-118.23 -60.31 567.37 -1112.23 236.46 120.62 -567.37 1112.23 -118.23 -60.31zm322.63 -1124.18c63.47,-36.63 144.67,-14.89 181.3,48.58 36.63,63.47 14.89,144.67 -48.58,181.3l-132.72 -229.88z"/>
   </g>
   <g>
    <path class="fil2" d="M18981.58 2525.59c-63.47,-36.63 -85.21,-117.83 -48.58,-181.3 36.63,-63.47 117.83,-85.21 181.3,-48.58l-132.72 229.88zm9539.02 5507.35l-9539.02 -5507.35 132.72 -229.88 9539.02 5507.35 -132.72 229.88zm251.62 120.59l-13.78 -265.08 -111.3 192.9 -567.64 -1111.78 236.44 -120.7 567.61 1111.75 -111.33 192.9zm0 0l111.33 -192.9 93.07 182.28 -204.4 10.62zm-1253.8 -67.77l-6.88 -132.54 1246.89 -64.77 13.78 265.08 -1246.89 64.77 -6.9 -132.54zm1134.9 -282.7c63.47,36.63 85.21,117.83 48.58,181.3 -36.63,63.47 -117.83,85.21 -181.3,48.58l132.72 -229.88z"/>
   </g>
   <g>
    <path class="fil3 str1" d="M22901.77 14056.23c1.73,-6.9 5.15,-17.25 5.15,-25.88 0,-17.25 -17.25,-17.25 -20.68,-17.25 -1.73,0 -63.81,5.2 -94.85,8.63 -29.31,1.73 -55.13,5.2 -86.16,6.9 -41.41,3.45 -53.46,5.15 -53.46,36.23 0,17.2 17.25,17.2 34.51,17.2 87.92,0 87.92,15.53 87.92,32.78 0,6.88 0,10.35 -8.63,41.36l-213.79 855.09c-5.18,18.98 -8.6,32.76 -8.6,60.34 0,86.22 63.79,155.18 151.68,155.18 56.91,0 94.85,-37.93 122.43,-91.39 29.31,-56.86 53.43,-165.48 53.43,-172.38 0,-8.63 -6.88,-15.53 -17.23,-15.53 -15.53,0 -17.23,8.63 -24.16,34.48 -31,118.95 -62.04,210.32 -131,210.32 -51.71,0 -51.71,-55.13 -51.71,-79.29 0,-6.93 0,-43.08 12.05,-91.37l243.1 -965.41z"/>
    <path class="fil3 str1" d="M23326.59 14737.02c0,-31.08 -2.34,-32.23 -33.34,-32.23 -47.14,46 -108.04,73.58 -217.22,73.58l0 37.93c31,0 93.12,0 159.75,-31.03l0 589.56c0,42.55 -3.45,56.33 -112.63,56.33l-40.22 0 0 37.93c47.12,-3.42 145.97,-3.42 197.68,-3.42 51.71,0 151.68,0 198.82,3.42l0 -37.93 -40.22 0c-109.18,0 -112.63,-13.78 -112.63,-56.33l0 -637.82z"/>
    <path class="fil3 str1" d="M23994.04 15216.45c0,-99.97 -32.76,-174.13 -103.42,-174.13 -55.19,0 -82.79,44.86 -82.79,82.74 0,37.93 25.88,84.49 84.49,84.49 22.4,0 41.38,-6.9 56.91,-22.4 3.42,-3.48 5.15,-3.48 6.88,-3.48 3.45,0 3.45,24.16 3.45,32.78 0,56.86 -10.33,168.96 -110.35,280.98 -18.93,20.71 -18.93,24.18 -18.93,27.61 0,8.63 8.57,17.25 17.2,17.25 13.83,0 146.55,-127.57 146.55,-325.84zm863.13 -1160.23c1.73,-6.9 5.15,-17.25 5.15,-25.88 0,-17.25 -17.25,-17.25 -20.68,-17.25 -1.73,0 -63.81,5.2 -94.85,8.63 -29.31,1.73 -55.13,5.2 -86.16,6.9 -41.41,3.45 -53.46,5.15 -53.46,36.23 0,17.2 17.25,17.2 34.51,17.2 87.92,0 87.92,15.53 87.92,32.78 0,6.88 0,10.35 -8.63,41.36l-213.79 855.09c-5.18,18.98 -8.63,32.76 -8.63,60.34 0,86.22 63.81,155.18 151.7,155.18 56.91,0 94.85,-37.93 122.43,-91.39 29.31,-56.86 53.43,-165.48 53.43,-172.38 0,-8.63 -6.88,-15.53 -17.23,-15.53 -15.53,0 -17.23,8.63 -24.16,34.48 -31,118.95 -62.04,210.32 -131,210.32 -51.71,0 -51.71,-55.13 -51.71,-79.29 0,-6.93 0,-43.08 12.05,-91.37l243.1 -965.41z"/>
    <path class="fil3 str1" d="M25245.2 15234.64c18.4,-17.23 66.68,-55.13 85.08,-71.25 71.25,-65.51 139.04,-128.72 139.04,-233.3 0,-136.79 -114.94,-225.29 -258.6,-225.29 -137.93,0 -228.71,104.61 -228.71,206.89 0,56.33 44.83,64.37 60.89,64.37 24.16,0 59.78,-17.25 59.78,-60.89 0,-59.78 -57.44,-59.78 -71.25,-59.78 33.34,-83.91 110.32,-112.66 166.65,-112.66 106.9,0 162.06,90.78 162.06,187.35 0,119.51 -83.91,206.86 -219.53,345.93l-144.8 149.45c-13.8,12.64 -13.8,14.92 -13.8,43.64l453.97 0 33.34 -205.72 -35.62 0c-3.45,22.96 -12.64,80.46 -26.47,102.28 -6.85,9.18 -94.21,9.18 -112.6,9.18l-204.58 0 155.16 -140.21z"/>
    <path class="fil3 str1" d="M25932.13 15216.45c0,-99.97 -32.73,-174.13 -103.42,-174.13 -55.19,0 -82.77,44.86 -82.77,82.74 0,37.93 25.88,84.49 84.49,84.49 22.4,0 41.36,-6.9 56.89,-22.4 3.45,-3.48 5.15,-3.48 6.88,-3.48 3.48,0 3.48,24.16 3.48,32.78 0,56.86 -10.35,168.96 -110.37,280.98 -18.93,20.71 -18.93,24.18 -18.93,27.61 0,8.63 8.6,17.25 17.23,17.25 13.8,0 146.53,-127.57 146.53,-325.84zm742.43 -89.64c0,-49.98 -41.36,-84.49 -82.74,-84.49 -49.98,0 -84.47,41.38 -84.47,82.74 0,49.98 41.36,84.49 82.77,84.49 49.98,0 84.44,-41.36 84.44,-82.74zm761.41 0c0,-49.98 -41.38,-84.49 -82.74,-84.49 -49.98,0 -84.49,41.38 -84.49,82.74 0,49.98 41.38,84.49 82.77,84.49 50.01,0 84.47,-41.36 84.47,-82.74zm761.39 0c0,-49.98 -41.36,-84.49 -82.71,-84.49 -50.01,0 -84.49,41.38 -84.49,82.74 0,49.98 41.36,84.49 82.77,84.49 49.98,0 84.44,-41.36 84.44,-82.74zm763.09 89.64c0,-99.97 -32.73,-174.13 -103.42,-174.13 -55.19,0 -82.77,44.86 -82.77,82.74 0,37.93 25.88,84.49 84.49,84.49 22.4,0 41.36,-6.9 56.89,-22.4 3.45,-3.48 5.18,-3.48 6.88,-3.48 3.48,0 3.48,24.16 3.48,32.78 0,56.86 -10.35,168.96 -110.37,280.98 -18.93,20.71 -18.93,24.18 -18.93,27.61 0,8.63 8.6,17.25 17.23,17.25 13.8,0 146.53,-127.57 146.53,-325.84zm863.16 -1160.23c1.7,-6.9 5.15,-17.25 5.15,-25.88 0,-17.25 -17.25,-17.25 -20.71,-17.25 -1.7,0 -63.79,5.2 -94.82,8.63 -29.31,1.73 -55.13,5.2 -86.16,6.9 -41.41,3.45 -53.46,5.15 -53.46,36.23 0,17.2 17.23,17.2 34.48,17.2 87.94,0 87.94,15.53 87.94,32.78 0,6.88 0,10.35 -8.63,41.36l-213.79 855.09c-5.2,18.98 -8.63,32.76 -8.63,60.34 0,86.22 63.81,155.18 151.7,155.18 56.89,0 94.82,-37.93 122.43,-91.39 29.31,-56.86 53.41,-165.48 53.41,-172.38 0,-8.63 -6.85,-15.53 -17.2,-15.53 -15.53,0 -17.25,8.63 -24.16,34.48 -31.03,118.95 -62.06,210.32 -131,210.32 -51.71,0 -51.71,-55.13 -51.71,-79.29 0,-6.93 0,-43.08 12.05,-91.37l243.1 -965.41z"/>
    <path class="fil3 str1" d="M30223.01 14705.94c1.14,-2.28 4.62,-17.2 4.62,-18.34 0,-5.76 -4.62,-16.11 -18.4,-16.11 -4.62,0 -40.22,3.45 -66.68,5.76l-64.37 4.59c-25.27,2.28 -36.74,3.42 -36.74,24.1 0,16.11 16.06,16.11 29.86,16.11 55.16,0 55.16,6.9 55.16,17.25 0,3.42 0,5.73 -5.73,26.44l-163.22 653.96c-4.57,17.23 -4.57,24.1 -4.57,25.3 0,19.54 16.06,35.6 37.93,35.6 39.02,0 48.23,-36.79 52.85,-52.85 11.49,-48.29 41.36,-170.1 53.99,-218.36 63.23,6.88 140.26,28.72 140.26,94.21 0,5.76 0,11.49 -2.34,23.01 -3.45,14.92 -5.73,31.03 -5.73,36.76 0,67.8 50.57,117.22 117.25,117.22 48.26,0 78.15,-35.6 93.07,-57.47 27.58,-42.52 45.98,-111.46 45.98,-118.39 0,-11.47 -9.18,-14.92 -17.25,-14.92 -13.75,0 -16.09,6.88 -20.68,27.61 -14.94,53.99 -44.83,131 -98.83,131 -29.89,0 -36.79,-25.3 -36.79,-56.33 0,-14.92 1.14,-28.72 6.9,-55.13 1.14,-4.62 5.73,-23.01 5.73,-35.65 0,-94.26 -118.39,-114.94 -176.95,-123.01 42.5,-25.24 81.57,-64.32 95.35,-79.29 63.23,-62.04 114.94,-104.56 170.1,-104.56 14.94,0 28.72,3.42 37.93,14.92 -62.06,8.04 -62.06,62.09 -62.06,63.23 0,25.27 19.54,42.52 44.83,42.52 31.03,0 65.49,-25.3 65.49,-72.39 0,-39.07 -27.58,-80.46 -85.02,-80.46 -66.65,0 -126.43,50.57 -191.95,116.05 -66.68,65.51 -95.4,78.15 -113.77,86.22l113.77 -458.62z"/>
   </g>
   <g>
    <path class="fil3 str1" d="M22901.77 2766.7c1.73,-6.9 5.15,-17.25 5.15,-25.88 0,-17.25 -17.25,-17.25 -20.68,-17.25 -1.73,0 -63.81,5.2 -94.85,8.63 -29.31,1.73 -55.13,5.2 -86.16,6.9 -41.41,3.45 -53.46,5.15 -53.46,36.23 0,17.2 17.25,17.2 34.51,17.2 87.92,0 87.92,15.53 87.92,32.78 0,6.88 0,10.35 -8.63,41.36l-213.79 855.09c-5.18,18.98 -8.6,32.76 -8.6,60.34 0,86.22 63.79,155.18 151.68,155.18 56.91,0 94.85,-37.93 122.43,-91.39 29.31,-56.86 53.43,-165.48 53.43,-172.38 0,-8.63 -6.88,-15.53 -17.23,-15.53 -15.53,0 -17.23,8.63 -24.16,34.48 -31,118.95 -62.04,210.32 -131,210.32 -51.71,0 -51.71,-55.13 -51.71,-79.29 0,-6.93 0,-43.08 12.05,-91.37l243.1 -965.41z"/>
    <path class="fil3 str1" d="M23326.59 3447.5c0,-31.08 -2.34,-32.23 -33.34,-32.23 -47.14,46 -108.04,73.58 -217.22,73.58l0 37.93c31,0 93.12,0 159.75,-31.03l0 589.56c0,42.55 -3.45,56.33 -112.63,56.33l-40.22 0 0 37.93c47.12,-3.42 145.97,-3.42 197.68,-3.42 51.71,0 151.68,0 198.82,3.42l0 -37.93 -40.22 0c-109.18,0 -112.63,-13.78 -112.63,-56.33l0 -637.82z"/>
    <path class="fil3 str1" d="M23994.04 3926.92c0,-99.97 -32.76,-174.13 -103.42,-174.13 -55.19,0 -82.79,44.86 -82.79,82.74 0,37.93 25.88,84.49 84.49,84.49 22.4,0 41.38,-6.9 56.91,-22.4 3.42,-3.48 5.15,-3.48 6.88,-3.48 3.45,0 3.45,24.16 3.45,32.78 0,56.86 -10.33,168.96 -110.35,280.98 -18.93,20.71 -18.93,24.18 -18.93,27.61 0,8.63 8.57,17.25 17.2,17.25 13.83,0 146.55,-127.57 146.55,-325.84zm863.13 -1160.23c1.73,-6.9 5.15,-17.25 5.15,-25.88 0,-17.25 -17.25,-17.25 -20.68,-17.25 -1.73,0 -63.81,5.2 -94.85,8.63 -29.31,1.73 -55.13,5.2 -86.16,6.9 -41.41,3.45 -53.46,5.15 -53.46,36.23 0,17.2 17.25,17.2 34.51,17.2 87.92,0 87.92,15.53 87.92,32.78 0,6.88 0,10.35 -8.63,41.36l-213.79 855.09c-5.18,18.98 -8.63,32.76 -8.63,60.34 0,86.22 63.81,155.18 151.7,155.18 56.91,0 94.85,-37.93 122.43,-91.39 29.31,-56.86 53.43,-165.48 53.43,-172.38 0,-8.63 -6.88,-15.53 -17.23,-15.53 -15.53,0 -17.23,8.63 -24.16,34.48 -31,118.95 -62.04,210.32 -131,210.32 -51.71,0 -51.71,-55.13 -51.71,-79.29 0,-6.93 0,-43.08 12.05,-91.37l243.1 -965.41z"/>
    <path class="fil3 str1" d="M25245.2 3945.11c18.4,-17.23 66.68,-55.13 85.08,-71.25 71.25,-65.51 139.04,-128.72 139.04,-233.3 0,-136.79 -114.94,-225.29 -258.6,-225.29 -137.93,0 -228.71,104.61 -228.71,206.89 0,56.33 44.83,64.37 60.89,64.37 24.16,0 59.78,-17.25 59.78,-60.89 0,-59.78 -57.44,-59.78 -71.25,-59.78 33.34,-83.91 110.32,-112.66 166.65,-112.66 106.9,0 162.06,90.78 162.06,187.35 0,119.51 -83.91,206.86 -219.53,345.93l-144.8 149.45c-13.8,12.64 -13.8,14.92 -13.8,43.64l453.97 0 33.34 -205.72 -35.62 0c-3.45,22.96 -12.64,80.46 -26.47,102.28 -6.85,9.18 -94.21,9.18 -112.6,9.18l-204.58 0 155.16 -140.21z"/>
    <path class="fil3 str1" d="M25932.13 3926.92c0,-99.97 -32.73,-174.13 -103.42,-174.13 -55.19,0 -82.77,44.86 -82.77,82.74 0,37.93 25.88,84.49 84.49,84.49 22.4,0 41.36,-6.9 56.89,-22.4 3.45,-3.48 5.15,-3.48 6.88,-3.48 3.48,0 3.48,24.16 3.48,32.78 0,56.86 -10.35,168.96 -110.37,280.98 -18.93,20.71 -18.93,24.18 -18.93,27.61 0,8.63 8.6,17.25 17.23,17.25 13.8,0 146.53,-127.57 146.53,-325.84zm742.43 -89.64c0,-49.98 -41.36,-84.49 -82.74,-84.49 -49.98,0 -84.47,41.38 -84.47,82.74 0,49.98 41.36,84.49 82.77,84.49 49.98,0 84.44,-41.36 84.44,-82.74zm761.41 0c0,-49.98 -41.38,-84.49 -82.74,-84.49 -49.98,0 -84.49,41.38 -84.49,82.74 0,49.98 41.38,84.49 82.77,84.49 50.01,0 84.47,-41.36 84.47,-82.74zm761.39 0c0,-49.98 -41.36,-84.49 -82.71,-84.49 -50.01,0 -84.49,41.38 -84.49,82.74 0,49.98 41.36,84.49 82.77,84.49 49.98,0 84.44,-41.36 84.44,-82.74zm763.09 89.64c0,-99.97 -32.73,-174.13 -103.42,-174.13 -55.19,0 -82.77,44.86 -82.77,82.74 0,37.93 25.88,84.49 84.49,84.49 22.4,0 41.36,-6.9 56.89,-22.4 3.45,-3.48 5.18,-3.48 6.88,-3.48 3.48,0 3.48,24.16 3.48,32.78 0,56.86 -10.35,168.96 -110.37,280.98 -18.93,20.71 -18.93,24.18 -18.93,27.61 0,8.63 8.6,17.25 17.23,17.25 13.8,0 146.53,-127.57 146.53,-325.84zm863.16 -1160.23c1.7,-6.9 5.15,-17.25 5.15,-25.88 0,-17.25 -17.25,-17.25 -20.71,-17.25 -1.7,0 -63.79,5.2 -94.82,8.63 -29.31,1.73 -55.13,5.2 -86.16,6.9 -41.41,3.45 -53.46,5.15 -53.46,36.23 0,17.2 17.23,17.2 34.48,17.2 87.94,0 87.94,15.53 87.94,32.78 0,6.88 0,10.35 -8.63,41.36l-213.79 855.09c-5.2,18.98 -8.63,32.76 -8.63,60.34 0,86.22 63.81,155.18 151.7,155.18 56.89,0 94.82,-37.93 122.43,-91.39 29.31,-56.86 53.41,-165.48 53.41,-172.38 0,-8.63 -6.85,-15.53 -17.2,-15.53 -15.53,0 -17.25,8.63 -24.16,34.48 -31.03,118.95 -62.06,210.32 -131,210.32 -51.71,0 -51.71,-55.13 -51.71,-79.29 0,-6.93 0,-43.08 12.05,-91.37l243.1 -965.41z"/>
    <path class="fil3 str1" d="M30223.01 3416.41c1.14,-2.28 4.62,-17.2 4.62,-18.34 0,-5.76 -4.62,-16.11 -18.4,-16.11 -4.62,0 -40.22,3.45 -66.68,5.76l-64.37 4.59c-25.27,2.28 -36.74,3.42 -36.74,24.1 0,16.11 16.06,16.11 29.86,16.11 55.16,0 55.16,6.9 55.16,17.25 0,3.42 0,5.73 -5.73,26.44l-163.22 653.96c-4.57,17.23 -4.57,24.1 -4.57,25.3 0,19.54 16.06,35.6 37.93,35.6 39.02,0 48.23,-36.79 52.85,-52.85 11.49,-48.29 41.36,-170.1 53.99,-218.36 63.23,6.88 140.26,28.72 140.26,94.21 0,5.76 0,11.49 -2.34,23.01 -3.45,14.92 -5.73,31.03 -5.73,36.76 0,67.8 50.57,117.22 117.25,117.22 48.26,0 78.15,-35.6 93.07,-57.47 27.58,-42.52 45.98,-111.46 45.98,-118.39 0,-11.47 -9.18,-14.92 -17.25,-14.92 -13.75,0 -16.09,6.88 -20.68,27.61 -14.94,53.99 -44.83,131 -98.83,131 -29.89,0 -36.79,-25.3 -36.79,-56.33 0,-14.92 1.14,-28.72 6.9,-55.13 1.14,-4.62 5.73,-23.01 5.73,-35.65 0,-94.26 -118.39,-114.94 -176.95,-123.01 42.5,-25.24 81.57,-64.32 95.35,-79.29 63.23,-62.04 114.94,-104.56 170.1,-104.56 14.94,0 28.72,3.42 37.93,14.92 -62.06,8.04 -62.06,62.09 -62.06,63.23 0,25.27 19.54,42.52 44.83,42.52 31.03,0 65.49,-25.3 65.49,-72.39 0,-39.07 -27.58,-80.46 -85.02,-80.46 -66.65,0 -126.43,50.57 -191.95,116.05 -66.68,65.51 -95.4,78.15 -113.77,86.22l113.77 -458.62z"/>
   </g>
   <path class="fil3 str1" d="M9767.07 863.69c1.73,-6.9 5.15,-17.25 5.15,-25.88 0,-17.25 -17.25,-17.25 -20.68,-17.25 -1.73,0 -63.81,5.2 -94.85,8.63 -29.31,1.73 -55.13,5.2 -86.16,6.9 -41.41,3.45 -53.46,5.15 -53.46,36.23 0,17.2 17.25,17.2 34.51,17.2 87.92,0 87.92,15.53 87.92,32.78 0,6.88 0,10.35 -8.63,41.36l-213.79 855.09c-5.18,18.98 -8.6,32.76 -8.6,60.34 0,86.22 63.79,155.18 151.68,155.18 56.91,0 94.85,-37.93 122.43,-91.39 29.31,-56.86 53.43,-165.48 53.43,-172.38 0,-8.63 -6.88,-15.53 -17.23,-15.53 -15.53,0 -17.23,8.63 -24.16,34.48 -31,118.95 -62.04,210.32 -131,210.32 -51.71,0 -51.71,-55.13 -51.71,-79.29 0,-6.93 0,-43.08 12.05,-91.37l243.1 -965.41z"/>
   <path class="fil3 str1" d="M9767.07 14164.72c1.73,-6.9 5.15,-17.25 5.15,-25.88 0,-17.25 -17.25,-17.25 -20.68,-17.25 -1.73,0 -63.81,5.2 -94.85,8.63 -29.31,1.73 -55.13,5.2 -86.16,6.9 -41.41,3.45 -53.46,5.15 -53.46,36.23 0,17.2 17.25,17.2 34.51,17.2 87.92,0 87.92,15.53 87.92,32.78 0,6.88 0,10.35 -8.63,41.36l-213.79 855.09c-5.18,18.98 -8.6,32.76 -8.6,60.34 0,86.22 63.79,155.18 151.68,155.18 56.91,0 94.85,-37.93 122.43,-91.39 29.31,-56.86 53.43,-165.48 53.43,-172.38 0,-8.63 -6.88,-15.53 -17.23,-15.53 -15.53,0 -17.23,8.63 -24.16,34.48 -31,118.95 -62.04,210.32 -131,210.32 -51.71,0 -51.71,-55.13 -51.71,-79.29 0,-6.93 0,-43.08 12.05,-91.37l243.1 -965.41z"/>
  </g>
 </g>
</svg>
