<?xml version="1.0" encoding="UTF-8"?>
<!DOCTYPE svg PUBLIC "-//W3C//DTD SVG 1.1//EN" "http://www.w3.org/Graphics/SVG/1.1/DTD/svg11.dtd">
<!-- Creator: CorelDRAW 2018 (64-Bit) -->
<svg xmlns="http://www.w3.org/2000/svg" xml:space="preserve" width="187.951mm" height="211.714mm" version="1.1" style="shape-rendering:geometricPrecision; text-rendering:geometricPrecision; image-rendering:optimizeQuality; fill-rule:evenodd; clip-rule:evenodd"
viewBox="0 0 19851.34 22361.1"
 xmlns:xlink="http://www.w3.org/1999/xlink">
 <defs>
  <style type="text/css">
   <![CDATA[
    .fil0 {fill:black}
    .fil3 {fill:#33CC33}
    .fil4 {fill:#6699FF}
    .fil2 {fill:red}
    .fil1 {fill:black;fill-rule:nonzero}
   ]]>
  </style>
 </defs>
 <g id="Layer_x0020_1">
  <metadata id="CorelCorpID_0Corel-Layer"/>
  <g id="_2569689401392">
   <g>
    <path class="fil0" d="M4515.49 0l11027.98 0c207.72,0 377.67,169.95 377.67,377.67l0 966.83c0,207.72 -169.95,377.67 -377.67,377.67l-11027.98 0c-207.72,0 -377.67,-169.95 -377.67,-377.67l0 -966.83c0,-207.72 169.95,-377.67 377.67,-377.67zm11027.98 105.62l-11027.98 0c-74.7,0 -142.71,30.65 -192.06,80 -49.35,49.35 -80,117.35 -80,192.06l0 966.83c0,74.7 30.65,142.71 80,192.06 49.35,49.35 117.35,80 192.06,80l11027.98 0c74.7,0 142.71,-30.65 192.06,-80 49.35,-49.35 80,-117.35 80,-192.06l0 -966.83c0,-74.7 -30.65,-142.71 -80,-192.06 -49.35,-49.35 -117.35,-80 -192.06,-80z"/>
   </g>
   <g>
    <path class="fil0" d="M1524.32 4117.43l3172.45 0c207.72,0 377.66,169.94 377.66,377.66l0 966.85c0,207.72 -169.94,377.66 -377.66,377.66l-3172.45 0c-207.72,0 -377.66,-169.94 -377.66,-377.66l0 -966.85c0,-207.72 169.94,-377.66 377.66,-377.66zm3172.45 105.62l-3172.45 0c-74.72,0 -142.71,30.64 -192.06,79.99 -49.35,49.35 -79.99,117.34 -79.99,192.06l0 966.85c0,74.7 30.64,142.71 79.99,192.06 49.35,49.35 117.35,79.99 192.06,79.99l3172.45 0c74.7,0 142.71,-30.64 192.06,-79.99 49.35,-49.35 79.99,-117.35 79.99,-192.06l0 -966.85c0,-74.7 -30.64,-142.71 -79.99,-192.06 -49.35,-49.35 -117.35,-79.99 -192.06,-79.99z"/>
   </g>
   <g>
    <path class="fil0" d="M15154.56 4117.43l3172.45 0c207.72,0 377.66,169.94 377.66,377.66l0 966.85c0,207.72 -169.94,377.66 -377.66,377.66l-3172.45 0c-207.72,0 -377.66,-169.94 -377.66,-377.66l0 -966.85c0,-207.72 169.94,-377.66 377.66,-377.66zm3172.45 105.62l-3172.45 0c-74.7,0 -142.71,30.64 -192.06,79.99 -49.35,49.35 -79.99,117.35 -79.99,192.06l0 966.85c0,74.7 30.64,142.71 79.99,192.06 49.35,49.35 117.35,79.99 192.06,79.99l3172.45 0c74.7,0 142.71,-30.64 192.06,-79.99 49.35,-49.35 79.99,-117.35 79.99,-192.06l0 -966.85c0,-74.72 -30.64,-142.71 -79.99,-192.06 -49.35,-49.35 -117.34,-79.99 -192.06,-79.99z"/>
   </g>
   <g>
    <path class="fil0" d="M8443.24 4117.43l3172.45 0c207.72,0 377.66,169.94 377.66,377.66l0 966.85c0,207.72 -169.94,377.66 -377.66,377.66l-3172.45 0c-207.72,0 -377.66,-169.94 -377.66,-377.66l0 -966.85c0,-207.72 169.94,-377.66 377.66,-377.66zm3172.45 105.62l-3172.45 0c-74.72,0 -142.71,30.64 -192.06,79.99 -49.35,49.35 -79.99,117.34 -79.99,192.06l0 966.85c0,74.7 30.64,142.71 79.99,192.06 49.35,49.35 117.35,79.99 192.06,79.99l3172.45 0c74.7,0 142.71,-30.64 192.06,-79.99 49.35,-49.35 79.99,-117.35 79.99,-192.06l0 -966.85c0,-74.72 -30.64,-142.71 -79.99,-192.06 -49.35,-49.35 -117.34,-79.99 -192.06,-79.99z"/>
   </g>
   <g>
    <path class="fil1" d="M3110.55 2972.62c-29.16,0 -52.81,-23.65 -52.81,-52.81 0,-29.16 23.65,-52.81 52.81,-52.81l0 105.62zm13630.24 0l-13630.24 0 0 -105.62 13630.24 0 0 105.62zm0 -105.62c29.16,0 52.81,23.65 52.81,52.81 0,29.16 -23.65,52.81 -52.81,52.81l0 -105.62z"/>
   </g>
   <g>
    <path class="fil1" d="M3057.74 2919.81c0,-29.16 23.65,-52.81 52.81,-52.81 29.16,0 52.81,23.65 52.81,52.81l-105.62 0zm0 1197.62l0 -1197.62 105.62 0 0 1197.62 -105.62 0zm105.62 0c0,29.16 -23.65,52.81 -52.81,52.81 -29.16,0 -52.81,-23.65 -52.81,-52.81l105.62 0z"/>
   </g>
   <g>
    <path class="fil1" d="M16687.98 2919.81c0,-29.16 23.65,-52.81 52.81,-52.81 29.16,0 52.81,23.65 52.81,52.81l-105.62 0zm0 1197.62l0 -1197.62 105.62 0 0 1197.62 -105.62 0zm105.62 0c0,29.16 -23.65,52.81 -52.81,52.81 -29.16,0 -52.81,-23.65 -52.81,-52.81l105.62 0z"/>
   </g>
   <g>
    <path class="fil1" d="M9976.66 2919.81c0,-29.16 23.65,-52.81 52.81,-52.81 29.16,0 52.81,23.65 52.81,52.81l-105.62 0zm0 1197.62l0 -1197.62 105.62 0 0 1197.62 -105.62 0zm105.62 0c0,29.16 -23.65,52.81 -52.81,52.81 -29.16,0 -52.81,-23.65 -52.81,-52.81l105.62 0z"/>
   </g>
   <g>
    <path class="fil1" d="M9976.66 1722.18c0,-29.16 23.65,-52.81 52.81,-52.81 29.16,0 52.81,23.65 52.81,52.81l-105.62 0zm0 1197.63l0 -1197.63 105.62 0 0 1197.63 -105.62 0zm105.62 0c0,29.16 -23.65,52.81 -52.81,52.81 -29.16,0 -52.81,-23.65 -52.81,-52.81l105.62 0z"/>
   </g>
   <g>
    <g>
     <path class="fil1" d="M5186.03 9035.61c17.15,23.57 11.95,56.62 -11.63,73.78 -23.57,17.15 -56.62,11.95 -73.78,-11.63l85.4 -62.15zm-1384.09 -1902.14l1384.09 1902.14 -85.4 62.15 -1384.09 -1902.14 2.19 -64.95 83.22 2.8zm-85.4 62.15c-17.15,-23.57 -11.95,-56.62 11.63,-73.78 23.57,-17.15 56.62,-11.95 73.78,11.63l-85.4 62.15zm-1488.22 1717.83l1490.41 -1782.77 81.03 67.74 -1490.41 1782.77 -81.03 -67.74zm81.03 67.74c-18.71,22.37 -52.02,25.35 -74.39,6.64 -22.37,-18.71 -25.35,-52.02 -6.64,-74.39l81.03 67.74z"/>
    </g>
    <g>
     <path class="fil1" d="M2227.15 8979.74c-17.9,-23.01 -13.75,-56.21 9.26,-74.11 23.01,-17.9 56.21,-13.75 74.11,9.26l-83.38 64.85zm1827.24 2349.19l-1827.24 -2349.19 83.38 -64.85 1827.24 2349.19 -83.38 64.85zm83.38 -64.85c17.9,23.01 13.75,56.21 -9.26,74.11 -23.01,17.9 -56.21,13.75 -74.11,-9.26l83.38 -64.85z"/>
    </g>
    <g>
     <path class="fil1" d="M2224.52 8918.6c15.85,-24.47 48.56,-31.45 73.04,-15.6 24.47,15.85 31.45,48.56 15.6,73.04l-88.64 -57.44zm-1522.44 2349.19l1522.44 -2349.19 88.64 57.44 -1522.44 2349.19 -88.64 -57.44zm88.64 57.44c-15.85,24.47 -48.56,31.45 -73.04,15.6 -24.47,-15.85 -31.45,-48.56 -15.6,-73.04l88.64 57.44z"/>
    </g>
    <g>
     <path class="fil2" d="M3759.24 6418.15c412.22,0 746.39,334.17 746.39,746.39 0,412.22 -334.17,746.39 -746.39,746.39 -412.22,0 -746.39,-334.17 -746.39,-746.39 0,-412.22 334.17,-746.39 746.39,-746.39z"/>
     <path id="1" class="fil0" d="M3759.24 6418.15c412.22,0 746.39,334.17 746.39,746.39 0,412.22 -334.17,746.39 -746.39,746.39 -412.22,0 -746.39,-334.17 -746.39,-746.39 0,-412.22 334.17,-746.39 746.39,-746.39zm453.11 293.28c-115.95,-115.94 -276.15,-187.66 -453.11,-187.66 -176.95,0 -337.17,71.73 -453.11,187.66 -115.94,115.94 -187.66,276.15 -187.66,453.11 0,176.95 71.73,337.16 187.66,453.11 115.94,115.94 276.15,187.66 453.11,187.66 176.95,0 337.16,-71.73 453.11,-187.66 115.94,-115.95 187.66,-276.15 187.66,-453.11 0,-176.95 -71.73,-337.17 -187.66,-453.11z"/>
    </g>
    <g>
     <path class="fil2" d="M2268.83 8320.29c412.22,0 746.39,334.17 746.39,746.39 0,412.22 -334.17,746.39 -746.39,746.39 -412.22,0 -746.39,-334.17 -746.39,-746.39 0,-412.22 334.17,-746.39 746.39,-746.39z"/>
     <path id="1" class="fil0" d="M2268.83 8320.29c412.22,0 746.39,334.17 746.39,746.39 0,412.22 -334.17,746.39 -746.39,746.39 -412.22,0 -746.39,-334.17 -746.39,-746.39 0,-412.22 334.17,-746.39 746.39,-746.39zm453.11 293.28c-115.95,-115.94 -276.15,-187.66 -453.11,-187.66 -176.95,0 -337.17,71.73 -453.11,187.66 -115.94,115.94 -187.66,276.15 -187.66,453.11 0,176.95 71.73,337.16 187.66,453.11 115.94,115.94 276.15,187.66 453.11,187.66 176.95,0 337.16,-71.73 453.11,-187.66 115.94,-115.95 187.66,-276.15 187.66,-453.11 0,-176.95 -71.73,-337.17 -187.66,-453.11z"/>
    </g>
    <g>
     <path class="fil2" d="M5143.33 8320.29c412.22,0 746.39,334.17 746.39,746.39 0,412.22 -334.17,746.39 -746.39,746.39 -412.22,0 -746.39,-334.17 -746.39,-746.39 0,-412.22 334.17,-746.39 746.39,-746.39z"/>
     <path id="1" class="fil0" d="M5143.33 8320.29c412.22,0 746.39,334.17 746.39,746.39 0,412.22 -334.17,746.39 -746.39,746.39 -412.22,0 -746.39,-334.17 -746.39,-746.39 0,-412.22 334.17,-746.39 746.39,-746.39zm453.11 293.28c-115.95,-115.94 -276.15,-187.66 -453.11,-187.66 -176.95,0 -337.17,71.73 -453.11,187.66 -115.94,115.94 -187.66,276.15 -187.66,453.11 0,176.95 71.73,337.16 187.66,453.11 115.94,115.94 276.15,187.66 453.11,187.66 176.95,0 337.16,-71.73 453.11,-187.66 115.94,-115.95 187.66,-276.15 187.66,-453.11 0,-176.95 -71.73,-337.17 -187.66,-453.11z"/>
    </g>
    <g>
     <path class="fil2" d="M746.39 10550.11c412.22,0 746.39,334.17 746.39,746.39 0,412.22 -334.17,746.39 -746.39,746.39 -412.22,0 -746.39,-334.17 -746.39,-746.39 0,-412.22 334.17,-746.39 746.39,-746.39z"/>
     <path id="1" class="fil0" d="M746.39 10550.11c412.22,0 746.39,334.17 746.39,746.39 0,412.22 -334.17,746.39 -746.39,746.39 -412.22,0 -746.39,-334.17 -746.39,-746.39 0,-412.22 334.17,-746.39 746.39,-746.39zm453.11 293.28c-115.95,-115.94 -276.15,-187.66 -453.11,-187.66 -176.95,0 -337.17,71.73 -453.11,187.66 -115.94,115.94 -187.66,276.15 -187.66,453.11 0,176.95 71.73,337.17 187.66,453.11 115.94,115.94 276.15,187.66 453.11,187.66 176.95,0 337.16,-71.73 453.11,-187.66 115.94,-115.94 187.66,-276.15 187.66,-453.11 0,-176.95 -71.73,-337.17 -187.66,-453.11z"/>
    </g>
    <g>
     <path class="fil2" d="M4096.07 10550.11c412.22,0 746.39,334.17 746.39,746.39 0,412.22 -334.17,746.39 -746.39,746.39 -412.22,0 -746.39,-334.17 -746.39,-746.39 0,-412.22 334.17,-746.39 746.39,-746.39z"/>
     <path id="1" class="fil0" d="M4096.07 10550.11c412.22,0 746.39,334.17 746.39,746.39 0,412.22 -334.17,746.39 -746.39,746.39 -412.22,0 -746.39,-334.17 -746.39,-746.39 0,-412.22 334.17,-746.39 746.39,-746.39zm453.11 293.28c-115.95,-115.94 -276.15,-187.66 -453.11,-187.66 -176.95,0 -337.17,71.73 -453.11,187.66 -115.94,115.94 -187.66,276.15 -187.66,453.11 0,176.95 71.73,337.17 187.66,453.11 115.94,115.94 276.15,187.66 453.11,187.66 176.95,0 337.16,-71.73 453.11,-187.66 115.94,-115.94 187.66,-276.15 187.66,-453.11 0,-176.95 -71.73,-337.17 -187.66,-453.11z"/>
    </g>
    <g>
     <path class="fil2" d="M5474.69 12865.17c412.22,0 746.39,334.17 746.39,746.39 0,412.22 -334.17,746.39 -746.39,746.39 -412.22,0 -746.39,-334.17 -746.39,-746.39 0,-412.22 334.17,-746.39 746.39,-746.39z"/>
     <path id="1" class="fil0" d="M5474.69 12865.17c412.22,0 746.39,334.17 746.39,746.39 0,412.22 -334.17,746.39 -746.39,746.39 -412.22,0 -746.39,-334.17 -746.39,-746.39 0,-412.22 334.17,-746.39 746.39,-746.39zm453.11 293.28c-115.95,-115.94 -276.15,-187.66 -453.11,-187.66 -176.95,0 -337.17,71.73 -453.11,187.66 -115.94,115.95 -187.66,276.15 -187.66,453.11 0,176.95 71.73,337.17 187.66,453.11 115.94,115.94 276.15,187.66 453.11,187.66 176.95,0 337.16,-71.73 453.11,-187.66 115.94,-115.94 187.66,-276.15 187.66,-453.11 0,-176.95 -71.73,-337.16 -187.66,-453.11z"/>
    </g>
    <g>
     <path class="fil2" d="M2715.34 12865.17c412.22,0 746.39,334.17 746.39,746.39 0,412.22 -334.17,746.39 -746.39,746.39 -412.22,0 -746.39,-334.17 -746.39,-746.39 0,-412.22 334.17,-746.39 746.39,-746.39z"/>
     <path id="1" class="fil0" d="M2715.34 12865.17c412.22,0 746.39,334.17 746.39,746.39 0,412.22 -334.17,746.39 -746.39,746.39 -412.22,0 -746.39,-334.17 -746.39,-746.39 0,-412.22 334.17,-746.39 746.39,-746.39zm453.11 293.28c-115.95,-115.94 -276.15,-187.66 -453.11,-187.66 -176.95,0 -337.17,71.73 -453.11,187.66 -115.94,115.95 -187.66,276.15 -187.66,453.11 0,176.95 71.73,337.17 187.66,453.11 115.94,115.94 276.15,187.66 453.11,187.66 176.95,0 337.16,-71.73 453.11,-187.66 115.94,-115.94 187.66,-276.15 187.66,-453.11 0,-176.95 -71.73,-337.16 -187.66,-453.11z"/>
    </g>
    <g>
     <path class="fil1" d="M4452.57 11986.63c-15.05,-24.97 -7,-57.44 17.97,-72.49 24.97,-15.05 57.44,-7 72.49,17.97l-90.45 54.52zm620.24 1029.06l-620.24 -1029.06 90.45 -54.52 620.24 1029.06 -90.45 54.52zm90.45 -54.52c15.05,24.97 7,57.44 -17.97,72.49 -24.97,15.05 -57.44,7 -72.49,-17.97l90.45 -54.52z"/>
    </g>
    <g>
     <path class="fil1" d="M3613.26 11932.11c15.05,-24.97 47.52,-33.02 72.49,-17.97 24.97,15.05 33.02,47.52 17.97,72.49l-90.45 -54.52zm-620.24 1029.06l620.24 -1029.06 90.45 54.52 -620.24 1029.06 -90.45 -54.52zm90.45 54.52c-15.05,24.97 -47.52,33.02 -72.49,17.97 -24.97,-15.05 -33.02,-47.52 -17.97,-72.49l90.45 54.52z"/>
    </g>
   </g>
   <g>
    <g>
     <path class="fil1" d="M12104.96 9035.61c17.15,23.57 11.95,56.62 -11.63,73.78 -23.57,17.15 -56.62,11.95 -73.78,-11.63l85.4 -62.15zm-1384.09 -1902.14l1384.09 1902.14 -85.4 62.15 -1384.09 -1902.14 2.19 -64.95 83.22 2.8zm-85.4 62.15c-17.15,-23.57 -11.95,-56.62 11.63,-73.78 23.57,-17.15 56.62,-11.95 73.78,11.63l-85.4 62.15zm-1488.22 1717.83l1490.41 -1782.77 81.03 67.74 -1490.41 1782.77 -81.03 -67.74zm81.03 67.74c-18.71,22.37 -52.02,25.35 -74.39,6.64 -22.37,-18.71 -25.35,-52.02 -6.64,-74.39l81.03 67.74z"/>
    </g>
    <g>
     <path class="fil1" d="M9146.07 8979.74c-17.9,-23.01 -13.75,-56.21 9.26,-74.11 23.01,-17.9 56.21,-13.75 74.11,9.26l-83.38 64.85zm1827.24 2349.19l-1827.24 -2349.19 83.38 -64.85 1827.24 2349.19 -83.38 64.85zm83.38 -64.85c17.9,23.01 13.75,56.21 -9.26,74.11 -23.01,17.9 -56.21,13.75 -74.11,-9.26l83.38 -64.85z"/>
    </g>
    <g>
     <path class="fil1" d="M9143.44 8918.6c15.85,-24.47 48.56,-31.45 73.04,-15.6 24.47,15.85 31.45,48.56 15.6,73.04l-88.64 -57.44zm-1522.44 2349.19l1522.44 -2349.19 88.64 57.44 -1522.44 2349.19 -88.64 -57.44zm88.64 57.44c-15.85,24.47 -48.56,31.45 -73.04,15.6 -24.47,-15.85 -31.45,-48.56 -15.6,-73.04l88.64 57.44z"/>
    </g>
    <g>
     <path class="fil3" d="M10678.16 6418.15c412.22,0 746.39,334.17 746.39,746.39 0,412.22 -334.17,746.39 -746.39,746.39 -412.22,0 -746.39,-334.17 -746.39,-746.39 0,-412.22 334.17,-746.39 746.39,-746.39z"/>
     <path id="1" class="fil0" d="M10678.16 6418.15c412.22,0 746.39,334.17 746.39,746.39 0,412.22 -334.17,746.39 -746.39,746.39 -412.22,0 -746.39,-334.17 -746.39,-746.39 0,-412.22 334.17,-746.39 746.39,-746.39zm453.11 293.28c-115.94,-115.94 -276.15,-187.66 -453.11,-187.66 -176.95,0 -337.16,71.73 -453.11,187.66 -115.94,115.94 -187.66,276.15 -187.66,453.11 0,176.95 71.73,337.16 187.66,453.11 115.95,115.94 276.15,187.66 453.11,187.66 176.95,0 337.17,-71.73 453.11,-187.66 115.94,-115.95 187.66,-276.15 187.66,-453.11 0,-176.95 -71.73,-337.17 -187.66,-453.11z"/>
    </g>
    <g>
     <path class="fil3" d="M9187.76 8320.29c412.22,0 746.39,334.17 746.39,746.39 0,412.22 -334.17,746.39 -746.39,746.39 -412.22,0 -746.39,-334.17 -746.39,-746.39 0,-412.22 334.17,-746.39 746.39,-746.39z"/>
     <path id="1" class="fil0" d="M9187.76 8320.29c412.22,0 746.39,334.17 746.39,746.39 0,412.22 -334.17,746.39 -746.39,746.39 -412.22,0 -746.39,-334.17 -746.39,-746.39 0,-412.22 334.17,-746.39 746.39,-746.39zm453.11 293.28c-115.94,-115.94 -276.15,-187.66 -453.11,-187.66 -176.95,0 -337.17,71.73 -453.11,187.66 -115.94,115.94 -187.66,276.15 -187.66,453.11 0,176.95 71.73,337.16 187.66,453.11 115.94,115.94 276.15,187.66 453.11,187.66 176.95,0 337.17,-71.73 453.11,-187.66 115.94,-115.95 187.66,-276.15 187.66,-453.11 0,-176.95 -71.73,-337.17 -187.66,-453.11z"/>
    </g>
    <g>
     <path class="fil3" d="M12062.26 8320.29c412.22,0 746.39,334.17 746.39,746.39 0,412.22 -334.17,746.39 -746.39,746.39 -412.22,0 -746.39,-334.17 -746.39,-746.39 0,-412.22 334.17,-746.39 746.39,-746.39z"/>
     <path id="1" class="fil0" d="M12062.26 8320.29c412.22,0 746.39,334.17 746.39,746.39 0,412.22 -334.17,746.39 -746.39,746.39 -412.22,0 -746.39,-334.17 -746.39,-746.39 0,-412.22 334.17,-746.39 746.39,-746.39zm453.11 293.28c-115.94,-115.94 -276.15,-187.66 -453.11,-187.66 -176.95,0 -337.16,71.73 -453.11,187.66 -115.94,115.94 -187.66,276.15 -187.66,453.11 0,176.95 71.73,337.16 187.66,453.11 115.95,115.94 276.15,187.66 453.11,187.66 176.95,0 337.17,-71.73 453.11,-187.66 115.94,-115.95 187.66,-276.15 187.66,-453.11 0,-176.95 -71.73,-337.17 -187.66,-453.11z"/>
    </g>
    <g>
     <path class="fil3" d="M7665.31 10550.11c412.22,0 746.39,334.17 746.39,746.39 0,412.22 -334.17,746.39 -746.39,746.39 -412.22,0 -746.39,-334.17 -746.39,-746.39 0,-412.22 334.17,-746.39 746.39,-746.39z"/>
     <path id="1" class="fil0" d="M7665.31 10550.11c412.22,0 746.39,334.17 746.39,746.39 0,412.22 -334.17,746.39 -746.39,746.39 -412.22,0 -746.39,-334.17 -746.39,-746.39 0,-412.22 334.17,-746.39 746.39,-746.39zm453.11 293.28c-115.95,-115.94 -276.15,-187.66 -453.11,-187.66 -176.95,0 -337.17,71.73 -453.11,187.66 -115.94,115.94 -187.66,276.15 -187.66,453.11 0,176.95 71.73,337.17 187.66,453.11 115.94,115.94 276.15,187.66 453.11,187.66 176.95,0 337.16,-71.73 453.11,-187.66 115.94,-115.94 187.66,-276.15 187.66,-453.11 0,-176.95 -71.73,-337.17 -187.66,-453.11z"/>
    </g>
    <g>
     <path class="fil3" d="M11015 10550.11c412.22,0 746.39,334.17 746.39,746.39 0,412.22 -334.17,746.39 -746.39,746.39 -412.22,0 -746.39,-334.17 -746.39,-746.39 0,-412.22 334.17,-746.39 746.39,-746.39z"/>
     <path id="1" class="fil0" d="M11015 10550.11c412.22,0 746.39,334.17 746.39,746.39 0,412.22 -334.17,746.39 -746.39,746.39 -412.22,0 -746.39,-334.17 -746.39,-746.39 0,-412.22 334.17,-746.39 746.39,-746.39zm453.11 293.28c-115.94,-115.94 -276.15,-187.66 -453.11,-187.66 -176.95,0 -337.16,71.73 -453.11,187.66 -115.94,115.94 -187.66,276.15 -187.66,453.11 0,176.95 71.73,337.17 187.66,453.11 115.95,115.94 276.15,187.66 453.11,187.66 176.95,0 337.17,-71.73 453.11,-187.66 115.94,-115.94 187.66,-276.15 187.66,-453.11 0,-176.95 -71.73,-337.17 -187.66,-453.11z"/>
    </g>
    <g>
     <path class="fil3" d="M12393.62 12865.17c412.22,0 746.39,334.17 746.39,746.39 0,412.22 -334.17,746.39 -746.39,746.39 -412.22,0 -746.39,-334.17 -746.39,-746.39 0,-412.22 334.17,-746.39 746.39,-746.39z"/>
     <path id="1" class="fil0" d="M12393.62 12865.17c412.22,0 746.39,334.17 746.39,746.39 0,412.22 -334.17,746.39 -746.39,746.39 -412.22,0 -746.39,-334.17 -746.39,-746.39 0,-412.22 334.17,-746.39 746.39,-746.39zm453.11 293.28c-115.94,-115.94 -276.15,-187.66 -453.11,-187.66 -176.95,0 -337.16,71.73 -453.11,187.66 -115.94,115.95 -187.66,276.15 -187.66,453.11 0,176.95 71.73,337.17 187.66,453.11 115.95,115.94 276.15,187.66 453.11,187.66 176.95,0 337.17,-71.73 453.11,-187.66 115.94,-115.94 187.66,-276.15 187.66,-453.11 0,-176.95 -71.73,-337.16 -187.66,-453.11z"/>
    </g>
    <g>
     <path class="fil3" d="M9634.26 12865.17c412.22,0 746.39,334.17 746.39,746.39 0,412.22 -334.17,746.39 -746.39,746.39 -412.22,0 -746.39,-334.17 -746.39,-746.39 0,-412.22 334.17,-746.39 746.39,-746.39z"/>
     <path id="1" class="fil0" d="M9634.26 12865.17c412.22,0 746.39,334.17 746.39,746.39 0,412.22 -334.17,746.39 -746.39,746.39 -412.22,0 -746.39,-334.17 -746.39,-746.39 0,-412.22 334.17,-746.39 746.39,-746.39zm453.11 293.28c-115.94,-115.94 -276.15,-187.66 -453.11,-187.66 -176.95,0 -337.17,71.73 -453.11,187.66 -115.94,115.95 -187.66,276.15 -187.66,453.11 0,176.95 71.73,337.17 187.66,453.11 115.94,115.94 276.15,187.66 453.11,187.66 176.95,0 337.17,-71.73 453.11,-187.66 115.94,-115.94 187.66,-276.15 187.66,-453.11 0,-176.95 -71.73,-337.16 -187.66,-453.11z"/>
    </g>
    <g>
     <path class="fil1" d="M11371.49 11986.63c-15.05,-24.97 -7,-57.44 17.97,-72.49 24.97,-15.05 57.44,-7 72.49,17.97l-90.45 54.52zm620.24 1029.06l-620.24 -1029.06 90.45 -54.52 620.24 1029.06 -90.45 54.52zm90.45 -54.52c15.05,24.97 7,57.44 -17.97,72.49 -24.97,15.05 -57.44,7 -72.49,-17.97l90.45 -54.52z"/>
    </g>
    <g>
     <path class="fil1" d="M10532.19 11932.11c15.05,-24.97 47.52,-33.02 72.49,-17.97 24.97,15.05 33.02,47.52 17.97,72.49l-90.45 -54.52zm-620.24 1029.06l620.24 -1029.06 90.45 54.52 -620.24 1029.06 -90.45 -54.52zm90.45 54.52c-15.05,24.97 -47.52,33.02 -72.49,17.97 -24.97,-15.05 -33.02,-47.52 -17.97,-72.49l90.45 54.52z"/>
    </g>
   </g>
   <g>
    <g>
     <path class="fil1" d="M18816.29 9035.61c17.15,23.57 11.95,56.62 -11.63,73.78 -23.57,17.15 -56.62,11.95 -73.78,-11.63l85.4 -62.15zm-1384.09 -1902.14l1384.09 1902.14 -85.4 62.15 -1384.09 -1902.14 2.19 -64.95 83.22 2.8zm-85.4 62.15c-17.15,-23.57 -11.95,-56.62 11.63,-73.78 23.57,-17.15 56.62,-11.95 73.78,11.63l-85.4 62.15zm-1488.22 1717.83l1490.41 -1782.77 81.03 67.74 -1490.41 1782.77 -81.03 -67.74zm81.03 67.74c-18.71,22.37 -52.02,25.35 -74.39,6.64 -22.37,-18.71 -25.35,-52.02 -6.64,-74.39l81.03 67.74z"/>
    </g>
    <g>
     <path class="fil1" d="M15857.4 8979.74c-17.9,-23.01 -13.75,-56.21 9.26,-74.11 23.01,-17.9 56.21,-13.75 74.11,9.26l-83.38 64.85zm1827.24 2349.19l-1827.24 -2349.19 83.38 -64.85 1827.24 2349.19 -83.38 64.85zm83.38 -64.85c17.9,23.01 13.75,56.21 -9.26,74.11 -23.01,17.9 -56.21,13.75 -74.11,-9.26l83.38 -64.85z"/>
    </g>
    <g>
     <path class="fil1" d="M15854.77 8918.6c15.85,-24.47 48.56,-31.45 73.04,-15.6 24.47,15.85 31.45,48.56 15.6,73.04l-88.64 -57.44zm-1522.44 2349.19l1522.44 -2349.19 88.64 57.44 -1522.44 2349.19 -88.64 -57.44zm88.64 57.44c-15.85,24.47 -48.56,31.45 -73.04,15.6 -24.47,-15.85 -31.45,-48.56 -15.6,-73.04l88.64 57.44z"/>
    </g>
    <g>
     <path class="fil4" d="M17389.49 6418.15c412.22,0 746.39,334.17 746.39,746.39 0,412.22 -334.17,746.39 -746.39,746.39 -412.22,0 -746.39,-334.17 -746.39,-746.39 0,-412.22 334.17,-746.39 746.39,-746.39z"/>
     <path id="1" class="fil0" d="M17389.49 6418.15c412.22,0 746.39,334.17 746.39,746.39 0,412.22 -334.17,746.39 -746.39,746.39 -412.22,0 -746.39,-334.17 -746.39,-746.39 0,-412.22 334.17,-746.39 746.39,-746.39zm453.11 293.28c-115.94,-115.94 -276.15,-187.66 -453.11,-187.66 -176.95,0 -337.16,71.73 -453.11,187.66 -115.94,115.94 -187.66,276.15 -187.66,453.11 0,176.95 71.73,337.16 187.66,453.11 115.95,115.94 276.15,187.66 453.11,187.66 176.95,0 337.17,-71.73 453.11,-187.66 115.94,-115.95 187.66,-276.15 187.66,-453.11 0,-176.95 -71.73,-337.17 -187.66,-453.11z"/>
    </g>
    <g>
     <path class="fil4" d="M15899.08 8320.29c412.22,0 746.39,334.17 746.39,746.39 0,412.22 -334.17,746.39 -746.39,746.39 -412.22,0 -746.39,-334.17 -746.39,-746.39 0,-412.22 334.17,-746.39 746.39,-746.39z"/>
     <path id="1" class="fil0" d="M15899.08 8320.29c412.22,0 746.39,334.17 746.39,746.39 0,412.22 -334.17,746.39 -746.39,746.39 -412.22,0 -746.39,-334.17 -746.39,-746.39 0,-412.22 334.17,-746.39 746.39,-746.39zm453.11 293.28c-115.94,-115.94 -276.15,-187.66 -453.11,-187.66 -176.95,0 -337.16,71.73 -453.11,187.66 -115.94,115.94 -187.66,276.15 -187.66,453.11 0,176.95 71.73,337.16 187.66,453.11 115.95,115.94 276.15,187.66 453.11,187.66 176.95,0 337.17,-71.73 453.11,-187.66 115.94,-115.95 187.66,-276.15 187.66,-453.11 0,-176.95 -71.73,-337.17 -187.66,-453.11z"/>
    </g>
    <g>
     <path class="fil4" d="M18773.58 8320.29c412.22,0 746.39,334.17 746.39,746.39 0,412.22 -334.17,746.39 -746.39,746.39 -412.22,0 -746.39,-334.17 -746.39,-746.39 0,-412.22 334.17,-746.39 746.39,-746.39z"/>
     <path id="1" class="fil0" d="M18773.58 8320.29c412.22,0 746.39,334.17 746.39,746.39 0,412.22 -334.17,746.39 -746.39,746.39 -412.22,0 -746.39,-334.17 -746.39,-746.39 0,-412.22 334.17,-746.39 746.39,-746.39zm453.11 293.28c-115.94,-115.94 -276.15,-187.66 -453.11,-187.66 -176.95,0 -337.16,71.73 -453.11,187.66 -115.94,115.94 -187.66,276.15 -187.66,453.11 0,176.95 71.73,337.16 187.66,453.11 115.95,115.94 276.15,187.66 453.11,187.66 176.95,0 337.17,-71.73 453.11,-187.66 115.94,-115.95 187.66,-276.15 187.66,-453.11 0,-176.95 -71.73,-337.17 -187.66,-453.11z"/>
    </g>
    <g>
     <path class="fil4" d="M14376.64 10550.11c412.22,0 746.39,334.17 746.39,746.39 0,412.22 -334.17,746.39 -746.39,746.39 -412.22,0 -746.39,-334.17 -746.39,-746.39 0,-412.22 334.17,-746.39 746.39,-746.39z"/>
     <path id="1" class="fil0" d="M14376.64 10550.11c412.22,0 746.39,334.17 746.39,746.39 0,412.22 -334.17,746.39 -746.39,746.39 -412.22,0 -746.39,-334.17 -746.39,-746.39 0,-412.22 334.17,-746.39 746.39,-746.39zm453.11 293.28c-115.94,-115.94 -276.15,-187.66 -453.11,-187.66 -176.95,0 -337.16,71.73 -453.11,187.66 -115.94,115.94 -187.66,276.15 -187.66,453.11 0,176.95 71.73,337.17 187.66,453.11 115.95,115.94 276.15,187.66 453.11,187.66 176.95,0 337.17,-71.73 453.11,-187.66 115.94,-115.94 187.66,-276.15 187.66,-453.11 0,-176.95 -71.73,-337.17 -187.66,-453.11z"/>
    </g>
    <g>
     <path class="fil4" d="M17726.32 10550.11c412.22,0 746.39,334.17 746.39,746.39 0,412.22 -334.17,746.39 -746.39,746.39 -412.22,0 -746.39,-334.17 -746.39,-746.39 0,-412.22 334.17,-746.39 746.39,-746.39z"/>
     <path id="1" class="fil0" d="M17726.32 10550.11c412.22,0 746.39,334.17 746.39,746.39 0,412.22 -334.17,746.39 -746.39,746.39 -412.22,0 -746.39,-334.17 -746.39,-746.39 0,-412.22 334.17,-746.39 746.39,-746.39zm453.11 293.28c-115.94,-115.94 -276.15,-187.66 -453.11,-187.66 -176.95,0 -337.16,71.73 -453.11,187.66 -115.94,115.94 -187.66,276.15 -187.66,453.11 0,176.95 71.73,337.17 187.66,453.11 115.95,115.94 276.15,187.66 453.11,187.66 176.95,0 337.17,-71.73 453.11,-187.66 115.94,-115.94 187.66,-276.15 187.66,-453.11 0,-176.95 -71.73,-337.17 -187.66,-453.11z"/>
    </g>
    <g>
     <path class="fil4" d="M19104.94 12865.17c412.22,0 746.39,334.17 746.39,746.39 0,412.22 -334.17,746.39 -746.39,746.39 -412.22,0 -746.39,-334.17 -746.39,-746.39 0,-412.22 334.17,-746.39 746.39,-746.39z"/>
     <path id="1" class="fil0" d="M19104.94 12865.17c412.22,0 746.39,334.17 746.39,746.39 0,412.22 -334.17,746.39 -746.39,746.39 -412.22,0 -746.39,-334.17 -746.39,-746.39 0,-412.22 334.17,-746.39 746.39,-746.39zm453.11 293.28c-115.94,-115.94 -276.15,-187.66 -453.11,-187.66 -176.95,0 -337.16,71.73 -453.11,187.66 -115.94,115.95 -187.66,276.15 -187.66,453.11 0,176.95 71.73,337.17 187.66,453.11 115.95,115.94 276.15,187.66 453.11,187.66 176.95,0 337.17,-71.73 453.11,-187.66 115.94,-115.94 187.66,-276.15 187.66,-453.11 0,-176.95 -71.73,-337.16 -187.66,-453.11z"/>
    </g>
    <g>
     <path class="fil4" d="M16345.59 12865.17c412.22,0 746.39,334.17 746.39,746.39 0,412.22 -334.17,746.39 -746.39,746.39 -412.22,0 -746.39,-334.17 -746.39,-746.39 0,-412.22 334.17,-746.39 746.39,-746.39z"/>
     <path id="1" class="fil0" d="M16345.59 12865.17c412.22,0 746.39,334.17 746.39,746.39 0,412.22 -334.17,746.39 -746.39,746.39 -412.22,0 -746.39,-334.17 -746.39,-746.39 0,-412.22 334.17,-746.39 746.39,-746.39zm453.11 293.28c-115.94,-115.94 -276.15,-187.66 -453.11,-187.66 -176.95,0 -337.16,71.73 -453.11,187.66 -115.94,115.95 -187.66,276.15 -187.66,453.11 0,176.95 71.73,337.17 187.66,453.11 115.95,115.94 276.15,187.66 453.11,187.66 176.95,0 337.17,-71.73 453.11,-187.66 115.94,-115.94 187.66,-276.15 187.66,-453.11 0,-176.95 -71.73,-337.16 -187.66,-453.11z"/>
    </g>
    <g>
     <path class="fil1" d="M18082.82 11986.63c-15.05,-24.97 -7,-57.44 17.97,-72.49 24.97,-15.05 57.44,-7 72.49,17.97l-90.45 54.52zm620.24 1029.06l-620.24 -1029.06 90.45 -54.52 620.24 1029.06 -90.45 54.52zm90.45 -54.52c15.05,24.97 7,57.44 -17.97,72.49 -24.97,15.05 -57.44,7 -72.49,-17.97l90.45 -54.52z"/>
    </g>
    <g>
     <path class="fil1" d="M17243.52 11932.11c15.05,-24.97 47.52,-33.02 72.49,-17.97 24.97,15.05 33.02,47.52 17.97,72.49l-90.45 -54.52zm-620.24 1029.06l620.24 -1029.06 90.45 54.52 -620.24 1029.06 -90.45 -54.52zm90.45 54.52c-15.05,24.97 -47.52,33.02 -72.49,17.97 -24.97,-15.05 -33.02,-47.52 -17.97,-72.49l90.45 54.52z"/>
    </g>
   </g>
   <path class="fil1" d="M8946.12 15337.59c-21.11,8.57 -41.48,14.9 -61.23,19.13 -19.87,4.1 -40.37,6.21 -61.72,6.21 -34.16,0 -64.46,-5.09 -90.67,-15.16 -26.33,-10.05 -48.56,-24.96 -66.57,-44.96 -18.12,-19.87 -31.79,-44.58 -41.11,-74.02 -9.32,-29.44 -14.04,-63.72 -14.04,-102.84 0,-39.99 5.09,-75.63 15.28,-106.81 10.18,-31.17 24.71,-57.5 43.59,-78.99 19,-21.48 41.98,-37.88 68.94,-49.18 27.07,-11.31 57.5,-16.9 91.16,-16.9 10.93,0 21.11,0.25 30.68,0.75 9.69,0.5 19,1.36 28.19,2.74 9.32,1.36 18.63,3.11 28.06,5.21 9.44,2.24 19.25,5.1 29.44,8.45l0 88.68c-20.62,-9.69 -40.24,-16.52 -58.86,-20.62 -18.63,-4.1 -35.65,-6.21 -50.93,-6.21 -22.48,0 -41.73,4.1 -57.75,12.18 -16.02,8.2 -29.18,19.5 -39.49,34.27 -10.19,14.66 -17.77,32.04 -22.61,52.42 -4.84,20.24 -7.32,42.47 -7.32,66.69 0,25.72 2.48,48.69 7.45,69.06 4.97,20.24 12.67,37.38 23.1,51.42 10.44,14.16 23.72,24.84 40,32.29 16.15,7.33 35.52,11.06 57.75,11.06 7.95,0 16.65,-0.75 25.96,-2.36 9.32,-1.62 18.75,-3.6 28.32,-6.21 9.69,-2.49 19.13,-5.6 28.44,-9.07 9.32,-3.47 18.01,-7.08 25.95,-10.68l0 83.46zm214.5 -426.26l-104.33 0 0 -69.31 195.25 0 0 444.89 106.56 0 0 69.31 -314.48 0 0 -69.31 117.01 0 0 -375.58zm522.38 444.89l-2.23 -48.31c-7.83,8.2 -15.9,15.77 -24.47,22.6 -8.44,6.95 -17.75,12.92 -27.95,18.01 -10.31,4.96 -21.36,8.95 -33.41,11.67 -12.05,2.86 -25.21,4.22 -39.49,4.22 -19.01,0 -35.65,-2.74 -49.94,-8.32 -14.28,-5.59 -26.33,-13.41 -36.02,-23.35 -9.81,-9.93 -17.14,-21.85 -22.11,-35.89 -4.96,-14.04 -7.46,-29.56 -7.46,-46.58 0,-17.38 3.73,-33.53 11.06,-48.31 7.46,-14.78 18.76,-27.45 33.9,-38.13 15.28,-10.69 34.16,-19 56.89,-25.1 22.73,-6.08 49.31,-9.06 79.99,-9.06l48.44 0 0 -22.23c0,-9.44 -1.36,-18.01 -3.97,-25.71 -2.74,-7.7 -6.96,-14.16 -12.92,-19.5 -5.96,-5.34 -13.67,-9.44 -23.1,-12.42 -9.44,-2.86 -21.11,-4.35 -34.91,-4.35 -21.85,0 -43.46,2.48 -64.58,7.46 -21.24,4.96 -41.86,11.92 -61.73,20.86l0 -70.8c17.77,-7.08 38.13,-12.92 61.24,-17.63 23.22,-4.59 47.32,-6.96 72.28,-6.96 27.32,0 50.93,2.61 70.55,7.83 19.62,5.22 35.76,13.04 48.56,23.47 12.66,10.44 22.11,23.48 28.19,39.13 6.08,15.64 9.06,33.9 9.06,54.77l0 252.62 -75.89 0zm-12.79 -163.2l-54.39 0c-15.03,0 -27.82,1.49 -38.26,4.35 -10.44,2.98 -18.88,6.95 -25.46,12.04 -6.58,5.1 -11.43,10.93 -14.41,17.52 -3.11,6.71 -4.59,13.78 -4.59,21.36 0,14.9 4.85,26.46 14.53,34.28 9.81,7.83 22.97,11.8 39.87,11.8 12.29,0 25.21,-4.47 38.63,-13.41 13.29,-8.95 28.06,-21.86 44.09,-38.51l0 -49.43zm495.44 54.28c0,21.11 -4.72,39.12 -14.04,54.02 -9.32,14.9 -21.73,26.95 -37.14,36.4 -15.4,9.32 -32.78,16.15 -52.41,20.36 -19.5,4.22 -39.5,6.34 -59.87,6.34 -27.2,0 -51.67,-1.24 -73.53,-3.84 -21.85,-2.49 -42.47,-6.21 -61.85,-11.06l0 -79.73c22.86,9.43 45.59,16.27 68.19,20.49 22.73,4.22 44.1,6.34 64.22,6.34 23.34,0 40.74,-3.73 52.28,-11.19 11.55,-7.45 17.27,-17.14 17.27,-29.07 0,-5.59 -1.25,-10.68 -3.6,-15.27 -2.48,-4.59 -6.96,-9.06 -13.67,-13.29 -6.71,-4.22 -16.14,-8.58 -28.19,-13.04 -12.17,-4.59 -28.07,-9.56 -47.7,-15.16 -18.12,-5.09 -34.15,-10.8 -47.81,-17.26 -13.78,-6.46 -25.08,-14.04 -34.03,-22.73 -8.95,-8.69 -15.77,-18.87 -20.25,-30.43 -4.47,-11.55 -6.71,-24.97 -6.71,-40.49 0,-15.15 3.36,-29.31 10.19,-42.6 6.82,-13.41 16.89,-25.08 30.43,-35.15 13.41,-10.05 30.18,-18.01 50.42,-23.85 20.12,-5.83 43.59,-8.69 70.54,-8.69 23.35,0 43.97,1.25 61.85,3.73 18.01,2.48 33.91,5.22 47.7,8.2l0 72.29c-21.11,-6.83 -40.86,-11.67 -59.5,-14.41 -18.5,-2.86 -36.88,-4.22 -55.14,-4.22 -18.13,0 -32.78,3.23 -43.84,9.81 -11.06,6.46 -16.52,15.65 -16.52,27.2 0,5.59 1.12,10.56 3.23,14.9 2.23,4.35 6.58,8.58 12.92,12.8 6.45,4.1 15.4,8.44 26.94,12.92 11.55,4.47 26.83,9.32 45.71,14.65 21.37,6.08 39.25,12.55 53.9,19.5 14.53,6.96 26.21,14.79 35.03,23.48 8.94,8.69 15.27,18.63 19.13,29.81 3.84,11.19 5.83,23.98 5.83,38.26zm409.74 0c0,21.11 -4.72,39.12 -14.04,54.02 -9.32,14.9 -21.73,26.95 -37.14,36.4 -15.4,9.32 -32.78,16.15 -52.41,20.36 -19.5,4.22 -39.5,6.34 -59.87,6.34 -27.2,0 -51.67,-1.24 -73.53,-3.84 -21.85,-2.49 -42.47,-6.21 -61.85,-11.06l0 -79.73c22.86,9.43 45.59,16.27 68.19,20.49 22.73,4.22 44.1,6.34 64.22,6.34 23.34,0 40.74,-3.73 52.28,-11.19 11.55,-7.45 17.27,-17.14 17.27,-29.07 0,-5.59 -1.25,-10.68 -3.6,-15.27 -2.48,-4.59 -6.96,-9.06 -13.67,-13.29 -6.71,-4.22 -16.14,-8.58 -28.19,-13.04 -12.17,-4.59 -28.07,-9.56 -47.7,-15.16 -18.12,-5.09 -34.15,-10.8 -47.81,-17.26 -13.78,-6.46 -25.08,-14.04 -34.03,-22.73 -8.95,-8.69 -15.77,-18.87 -20.25,-30.43 -4.47,-11.55 -6.71,-24.97 -6.71,-40.49 0,-15.15 3.36,-29.31 10.19,-42.6 6.82,-13.41 16.89,-25.08 30.43,-35.15 13.41,-10.05 30.18,-18.01 50.42,-23.85 20.12,-5.83 43.59,-8.69 70.54,-8.69 23.35,0 43.97,1.25 61.85,3.73 18.01,2.48 33.91,5.22 47.7,8.2l0 72.29c-21.11,-6.83 -40.86,-11.67 -59.5,-14.41 -18.5,-2.86 -36.88,-4.22 -55.14,-4.22 -18.13,0 -32.78,3.23 -43.84,9.81 -11.06,6.46 -16.52,15.65 -16.52,27.2 0,5.59 1.12,10.56 3.23,14.9 2.23,4.35 6.58,8.58 12.92,12.8 6.45,4.1 15.4,8.44 26.94,12.92 11.55,4.47 26.83,9.32 45.71,14.65 21.37,6.08 39.25,12.55 53.9,19.5 14.53,6.96 26.21,14.79 35.03,23.48 8.94,8.69 15.27,18.63 19.13,29.81 3.84,11.19 5.83,23.98 5.83,38.26zm773.78 108.93l-26.09 -93.9 -166.18 0 -26.83 93.9 -88.8 0 140.73 -475.45 125.19 0 140.97 475.45 -98.99 0zm-108.19 -388.75l-63.34 221.82 125.07 0 -61.73 -221.82z"/>
   <path class="fil1" d="M15671.03 15337.59c-21.11,8.57 -41.48,14.9 -61.23,19.13 -19.87,4.1 -40.37,6.21 -61.72,6.21 -34.16,0 -64.46,-5.09 -90.67,-15.16 -26.33,-10.05 -48.56,-24.96 -66.57,-44.96 -18.12,-19.87 -31.79,-44.58 -41.11,-74.02 -9.32,-29.44 -14.04,-63.72 -14.04,-102.84 0,-39.99 5.09,-75.63 15.28,-106.81 10.18,-31.17 24.71,-57.5 43.59,-78.99 19,-21.48 41.98,-37.88 68.94,-49.18 27.07,-11.31 57.5,-16.9 91.16,-16.9 10.93,0 21.11,0.25 30.68,0.75 9.69,0.5 19,1.36 28.19,2.74 9.32,1.36 18.63,3.11 28.06,5.21 9.44,2.24 19.25,5.1 29.44,8.45l0 88.68c-20.62,-9.69 -40.24,-16.52 -58.86,-20.62 -18.63,-4.1 -35.65,-6.21 -50.93,-6.21 -22.48,0 -41.73,4.1 -57.75,12.18 -16.02,8.2 -29.18,19.5 -39.49,34.27 -10.19,14.66 -17.77,32.04 -22.61,52.42 -4.84,20.24 -7.32,42.47 -7.32,66.69 0,25.72 2.48,48.69 7.45,69.06 4.97,20.24 12.67,37.38 23.1,51.42 10.44,14.16 23.72,24.84 40,32.29 16.15,7.33 35.52,11.06 57.75,11.06 7.95,0 16.65,-0.75 25.96,-2.36 9.32,-1.62 18.75,-3.6 28.32,-6.21 9.69,-2.49 19.13,-5.6 28.44,-9.07 9.32,-3.47 18.01,-7.08 25.95,-10.68l0 83.46zm214.5 -426.26l-104.33 0 0 -69.31 195.25 0 0 444.89 106.56 0 0 69.31 -314.48 0 0 -69.31 117.01 0 0 -375.58zm522.38 444.89l-2.23 -48.31c-7.83,8.2 -15.9,15.77 -24.47,22.6 -8.44,6.95 -17.75,12.92 -27.95,18.01 -10.31,4.96 -21.36,8.95 -33.41,11.67 -12.05,2.86 -25.21,4.22 -39.49,4.22 -19.01,0 -35.65,-2.74 -49.94,-8.32 -14.28,-5.59 -26.33,-13.41 -36.02,-23.35 -9.81,-9.93 -17.14,-21.85 -22.11,-35.89 -4.96,-14.04 -7.46,-29.56 -7.46,-46.58 0,-17.38 3.73,-33.53 11.06,-48.31 7.46,-14.78 18.76,-27.45 33.9,-38.13 15.28,-10.69 34.16,-19 56.89,-25.1 22.73,-6.08 49.31,-9.06 79.99,-9.06l48.44 0 0 -22.23c0,-9.44 -1.36,-18.01 -3.97,-25.71 -2.74,-7.7 -6.96,-14.16 -12.92,-19.5 -5.96,-5.34 -13.67,-9.44 -23.1,-12.42 -9.44,-2.86 -21.11,-4.35 -34.91,-4.35 -21.85,0 -43.46,2.48 -64.58,7.46 -21.24,4.96 -41.86,11.92 -61.73,20.86l0 -70.8c17.77,-7.08 38.13,-12.92 61.24,-17.63 23.22,-4.59 47.32,-6.96 72.28,-6.96 27.32,0 50.93,2.61 70.55,7.83 19.62,5.22 35.76,13.04 48.56,23.47 12.66,10.44 22.11,23.48 28.19,39.13 6.08,15.64 9.06,33.9 9.06,54.77l0 252.62 -75.89 0zm-12.79 -163.2l-54.39 0c-15.03,0 -27.82,1.49 -38.26,4.35 -10.44,2.98 -18.88,6.95 -25.46,12.04 -6.58,5.1 -11.43,10.93 -14.41,17.52 -3.11,6.71 -4.59,13.78 -4.59,21.36 0,14.9 4.85,26.46 14.53,34.28 9.81,7.83 22.97,11.8 39.87,11.8 12.29,0 25.21,-4.47 38.63,-13.41 13.29,-8.95 28.06,-21.86 44.09,-38.51l0 -49.43zm495.44 54.28c0,21.11 -4.72,39.12 -14.04,54.02 -9.32,14.9 -21.73,26.95 -37.14,36.4 -15.4,9.32 -32.78,16.15 -52.41,20.36 -19.5,4.22 -39.5,6.34 -59.87,6.34 -27.2,0 -51.67,-1.24 -73.53,-3.84 -21.85,-2.49 -42.47,-6.21 -61.85,-11.06l0 -79.73c22.86,9.43 45.59,16.27 68.19,20.49 22.73,4.22 44.1,6.34 64.22,6.34 23.34,0 40.74,-3.73 52.28,-11.19 11.55,-7.45 17.27,-17.14 17.27,-29.07 0,-5.59 -1.25,-10.68 -3.6,-15.27 -2.48,-4.59 -6.96,-9.06 -13.67,-13.29 -6.71,-4.22 -16.14,-8.58 -28.19,-13.04 -12.17,-4.59 -28.07,-9.56 -47.7,-15.16 -18.12,-5.09 -34.15,-10.8 -47.81,-17.26 -13.78,-6.46 -25.08,-14.04 -34.03,-22.73 -8.95,-8.69 -15.77,-18.87 -20.25,-30.43 -4.47,-11.55 -6.71,-24.97 -6.71,-40.49 0,-15.15 3.36,-29.31 10.19,-42.6 6.82,-13.41 16.89,-25.08 30.43,-35.15 13.41,-10.05 30.18,-18.01 50.42,-23.85 20.12,-5.83 43.59,-8.69 70.54,-8.69 23.35,0 43.97,1.25 61.85,3.73 18.01,2.48 33.91,5.22 47.7,8.2l0 72.29c-21.11,-6.83 -40.86,-11.67 -59.5,-14.41 -18.5,-2.86 -36.88,-4.22 -55.14,-4.22 -18.13,0 -32.78,3.23 -43.84,9.81 -11.06,6.46 -16.52,15.65 -16.52,27.2 0,5.59 1.12,10.56 3.23,14.9 2.23,4.35 6.58,8.58 12.92,12.8 6.45,4.1 15.4,8.44 26.94,12.92 11.55,4.47 26.83,9.32 45.71,14.65 21.37,6.08 39.25,12.55 53.9,19.5 14.53,6.96 26.21,14.79 35.03,23.48 8.94,8.69 15.27,18.63 19.13,29.81 3.84,11.19 5.83,23.98 5.83,38.26zm409.74 0c0,21.11 -4.72,39.12 -14.04,54.02 -9.32,14.9 -21.73,26.95 -37.14,36.4 -15.4,9.32 -32.78,16.15 -52.41,20.36 -19.5,4.22 -39.5,6.34 -59.87,6.34 -27.2,0 -51.67,-1.24 -73.53,-3.84 -21.85,-2.49 -42.47,-6.21 -61.85,-11.06l0 -79.73c22.86,9.43 45.59,16.27 68.19,20.49 22.73,4.22 44.1,6.34 64.22,6.34 23.34,0 40.74,-3.73 52.28,-11.19 11.55,-7.45 17.27,-17.14 17.27,-29.07 0,-5.59 -1.25,-10.68 -3.6,-15.27 -2.48,-4.59 -6.96,-9.06 -13.67,-13.29 -6.71,-4.22 -16.14,-8.58 -28.19,-13.04 -12.17,-4.59 -28.07,-9.56 -47.7,-15.16 -18.12,-5.09 -34.15,-10.8 -47.81,-17.26 -13.78,-6.46 -25.08,-14.04 -34.03,-22.73 -8.95,-8.69 -15.77,-18.87 -20.25,-30.43 -4.47,-11.55 -6.71,-24.97 -6.71,-40.49 0,-15.15 3.36,-29.31 10.19,-42.6 6.82,-13.41 16.89,-25.08 30.43,-35.15 13.41,-10.05 30.18,-18.01 50.42,-23.85 20.12,-5.83 43.59,-8.69 70.54,-8.69 23.35,0 43.97,1.25 61.85,3.73 18.01,2.48 33.91,5.22 47.7,8.2l0 72.29c-21.11,-6.83 -40.86,-11.67 -59.5,-14.41 -18.5,-2.86 -36.88,-4.22 -55.14,-4.22 -18.13,0 -32.78,3.23 -43.84,9.81 -11.06,6.46 -16.52,15.65 -16.52,27.2 0,5.59 1.12,10.56 3.23,14.9 2.23,4.35 6.58,8.58 12.92,12.8 6.45,4.1 15.4,8.44 26.94,12.92 11.55,4.47 26.83,9.32 45.71,14.65 21.37,6.08 39.25,12.55 53.9,19.5 14.53,6.96 26.21,14.79 35.03,23.48 8.94,8.69 15.27,18.63 19.13,29.81 3.84,11.19 5.83,23.98 5.83,38.26zm510.97 108.93l0 -475.45 153.63 0c54.15,0 94.65,9.44 121.72,28.32 27.08,19.01 40.62,47.57 40.62,85.95 0,11.8 -1.37,23.47 -4.22,34.65 -2.74,11.3 -7.08,21.74 -12.92,31.17 -5.84,9.44 -13.04,17.77 -21.86,25.1 -8.69,7.2 -19,12.92 -30.93,17.02 11.92,1.99 23.23,5.83 33.91,11.54 10.8,5.71 20.24,13.04 28.32,22.11 8.07,9.2 14.53,19.88 19.24,32.3 4.72,12.29 7.09,26.08 7.09,41.36 0,48.56 -16.28,84.95 -48.69,109.42 -32.54,24.35 -79.49,36.51 -140.84,36.51l-145.07 0zm222.81 -345.65c0,-9.07 -1.49,-17.14 -4.34,-24.47 -2.99,-7.2 -7.58,-13.41 -14.04,-18.5 -6.46,-5.09 -14.78,-9.06 -24.84,-11.8 -10.05,-2.86 -22.23,-4.22 -36.64,-4.22l-54.28 0 0 125.94 54.28 0c14.66,0 26.95,-1.74 37.01,-5.34 10.07,-3.47 18.39,-8.31 24.84,-14.52 6.46,-6.21 11.06,-13.3 13.78,-21.24 2.86,-8.08 4.22,-16.65 4.22,-25.83zm-71.41 272.63c14.28,0 26.83,-1.87 37.63,-5.47 10.8,-3.6 19.87,-8.69 27.2,-15.03 7.33,-6.45 12.79,-14.04 16.65,-22.85 3.73,-8.7 5.59,-18.02 5.59,-27.95 0,-20.62 -7.7,-36.77 -23.1,-48.32 -15.53,-11.67 -39.12,-17.51 -70.92,-17.51l-55.77 0 0 137.13 62.73 0z"/>
   <path class="fil1" d="M2040.79 15337.59c-21.11,8.57 -41.48,14.9 -61.23,19.13 -19.87,4.1 -40.37,6.21 -61.72,6.21 -34.16,0 -64.46,-5.09 -90.67,-15.16 -26.33,-10.05 -48.56,-24.96 -66.57,-44.96 -18.12,-19.87 -31.79,-44.58 -41.11,-74.02 -9.32,-29.44 -14.04,-63.72 -14.04,-102.84 0,-39.99 5.09,-75.63 15.28,-106.81 10.18,-31.17 24.71,-57.5 43.59,-78.99 19,-21.48 41.98,-37.88 68.94,-49.18 27.07,-11.31 57.5,-16.9 91.16,-16.9 10.93,0 21.11,0.25 30.68,0.75 9.69,0.5 19,1.36 28.19,2.74 9.32,1.36 18.63,3.11 28.06,5.21 9.44,2.24 19.25,5.1 29.44,8.45l0 88.68c-20.62,-9.69 -40.24,-16.52 -58.86,-20.62 -18.63,-4.1 -35.65,-6.21 -50.93,-6.21 -22.48,0 -41.73,4.1 -57.75,12.18 -16.02,8.2 -29.18,19.5 -39.49,34.27 -10.19,14.66 -17.77,32.04 -22.61,52.42 -4.84,20.24 -7.32,42.47 -7.32,66.69 0,25.72 2.48,48.69 7.45,69.06 4.97,20.24 12.67,37.38 23.1,51.42 10.44,14.16 23.72,24.84 40,32.29 16.15,7.33 35.52,11.06 57.75,11.06 7.95,0 16.65,-0.75 25.96,-2.36 9.32,-1.62 18.75,-3.6 28.32,-6.21 9.69,-2.49 19.13,-5.6 28.44,-9.07 9.32,-3.47 18.01,-7.08 25.95,-10.68l0 83.46zm214.5 -426.26l-104.33 0 0 -69.31 195.25 0 0 444.89 106.56 0 0 69.31 -314.48 0 0 -69.31 117.01 0 0 -375.58zm522.38 444.89l-2.23 -48.31c-7.83,8.2 -15.9,15.77 -24.47,22.6 -8.44,6.95 -17.75,12.92 -27.95,18.01 -10.31,4.96 -21.36,8.95 -33.41,11.67 -12.05,2.86 -25.21,4.22 -39.49,4.22 -19.01,0 -35.65,-2.74 -49.94,-8.32 -14.28,-5.59 -26.33,-13.41 -36.02,-23.35 -9.81,-9.93 -17.14,-21.85 -22.11,-35.89 -4.96,-14.04 -7.46,-29.56 -7.46,-46.58 0,-17.38 3.73,-33.53 11.06,-48.31 7.46,-14.78 18.76,-27.45 33.9,-38.13 15.28,-10.69 34.16,-19 56.89,-25.1 22.73,-6.08 49.31,-9.06 79.99,-9.06l48.44 0 0 -22.23c0,-9.44 -1.36,-18.01 -3.97,-25.71 -2.74,-7.7 -6.96,-14.16 -12.92,-19.5 -5.96,-5.34 -13.67,-9.44 -23.1,-12.42 -9.44,-2.86 -21.11,-4.35 -34.91,-4.35 -21.85,0 -43.46,2.48 -64.58,7.46 -21.24,4.96 -41.86,11.92 -61.73,20.86l0 -70.8c17.77,-7.08 38.13,-12.92 61.24,-17.63 23.22,-4.59 47.32,-6.96 72.28,-6.96 27.32,0 50.93,2.61 70.55,7.83 19.62,5.22 35.76,13.04 48.56,23.47 12.66,10.44 22.11,23.48 28.19,39.13 6.08,15.64 9.06,33.9 9.06,54.77l0 252.62 -75.89 0zm-12.79 -163.2l-54.39 0c-15.03,0 -27.82,1.49 -38.26,4.35 -10.44,2.98 -18.88,6.95 -25.46,12.04 -6.58,5.1 -11.43,10.93 -14.41,17.52 -3.11,6.71 -4.59,13.78 -4.59,21.36 0,14.9 4.85,26.46 14.53,34.28 9.81,7.83 22.97,11.8 39.87,11.8 12.29,0 25.21,-4.47 38.63,-13.41 13.29,-8.95 28.06,-21.86 44.09,-38.51l0 -49.43zm495.44 54.28c0,21.11 -4.72,39.12 -14.04,54.02 -9.32,14.9 -21.73,26.95 -37.14,36.4 -15.4,9.32 -32.78,16.15 -52.41,20.36 -19.5,4.22 -39.5,6.34 -59.87,6.34 -27.2,0 -51.67,-1.24 -73.53,-3.84 -21.85,-2.49 -42.47,-6.21 -61.85,-11.06l0 -79.73c22.86,9.43 45.59,16.27 68.19,20.49 22.73,4.22 44.1,6.34 64.22,6.34 23.34,0 40.74,-3.73 52.28,-11.19 11.55,-7.45 17.27,-17.14 17.27,-29.07 0,-5.59 -1.25,-10.68 -3.6,-15.27 -2.48,-4.59 -6.96,-9.06 -13.67,-13.29 -6.71,-4.22 -16.14,-8.58 -28.19,-13.04 -12.17,-4.59 -28.07,-9.56 -47.7,-15.16 -18.12,-5.09 -34.15,-10.8 -47.81,-17.26 -13.78,-6.46 -25.08,-14.04 -34.03,-22.73 -8.95,-8.69 -15.77,-18.87 -20.25,-30.43 -4.47,-11.55 -6.71,-24.97 -6.71,-40.49 0,-15.15 3.36,-29.31 10.19,-42.6 6.82,-13.41 16.89,-25.08 30.43,-35.15 13.41,-10.05 30.18,-18.01 50.42,-23.85 20.12,-5.83 43.59,-8.69 70.54,-8.69 23.35,0 43.97,1.25 61.85,3.73 18.01,2.48 33.91,5.22 47.7,8.2l0 72.29c-21.11,-6.83 -40.86,-11.67 -59.5,-14.41 -18.5,-2.86 -36.88,-4.22 -55.14,-4.22 -18.13,0 -32.78,3.23 -43.84,9.81 -11.06,6.46 -16.52,15.65 -16.52,27.2 0,5.59 1.12,10.56 3.23,14.9 2.23,4.35 6.58,8.58 12.92,12.8 6.45,4.1 15.4,8.44 26.94,12.92 11.55,4.47 26.83,9.32 45.71,14.65 21.37,6.08 39.25,12.55 53.9,19.5 14.53,6.96 26.21,14.79 35.03,23.48 8.94,8.69 15.27,18.63 19.13,29.81 3.84,11.19 5.83,23.98 5.83,38.26zm409.74 0c0,21.11 -4.72,39.12 -14.04,54.02 -9.32,14.9 -21.73,26.95 -37.14,36.4 -15.4,9.32 -32.78,16.15 -52.41,20.36 -19.5,4.22 -39.5,6.34 -59.87,6.34 -27.2,0 -51.67,-1.24 -73.53,-3.84 -21.85,-2.49 -42.47,-6.21 -61.85,-11.06l0 -79.73c22.86,9.43 45.59,16.27 68.19,20.49 22.73,4.22 44.1,6.34 64.22,6.34 23.34,0 40.74,-3.73 52.28,-11.19 11.55,-7.45 17.27,-17.14 17.27,-29.07 0,-5.59 -1.25,-10.68 -3.6,-15.27 -2.48,-4.59 -6.96,-9.06 -13.67,-13.29 -6.71,-4.22 -16.14,-8.58 -28.19,-13.04 -12.17,-4.59 -28.07,-9.56 -47.7,-15.16 -18.12,-5.09 -34.15,-10.8 -47.81,-17.26 -13.78,-6.46 -25.08,-14.04 -34.03,-22.73 -8.95,-8.69 -15.77,-18.87 -20.25,-30.43 -4.47,-11.55 -6.71,-24.97 -6.71,-40.49 0,-15.15 3.36,-29.31 10.19,-42.6 6.82,-13.41 16.89,-25.08 30.43,-35.15 13.41,-10.05 30.18,-18.01 50.42,-23.85 20.12,-5.83 43.59,-8.69 70.54,-8.69 23.35,0 43.97,1.25 61.85,3.73 18.01,2.48 33.91,5.22 47.7,8.2l0 72.29c-21.11,-6.83 -40.86,-11.67 -59.5,-14.41 -18.5,-2.86 -36.88,-4.22 -55.14,-4.22 -18.13,0 -32.78,3.23 -43.84,9.81 -11.06,6.46 -16.52,15.65 -16.52,27.2 0,5.59 1.12,10.56 3.23,14.9 2.23,4.35 6.58,8.58 12.92,12.8 6.45,4.1 15.4,8.44 26.94,12.92 11.55,4.47 26.83,9.32 45.71,14.65 21.37,6.08 39.25,12.55 53.9,19.5 14.53,6.96 26.21,14.79 35.03,23.48 8.94,8.69 15.27,18.63 19.13,29.81 3.84,11.19 5.83,23.98 5.83,38.26zm510.97 108.93l0 -475.45 153.63 0c54.15,0 94.65,9.44 121.72,28.32 27.08,19.01 40.62,47.57 40.62,85.95 0,11.8 -1.37,23.47 -4.22,34.65 -2.74,11.3 -7.08,21.74 -12.92,31.17 -5.84,9.44 -13.04,17.77 -21.86,25.1 -8.69,7.2 -19,12.92 -30.93,17.02 11.92,1.99 23.23,5.83 33.91,11.54 10.8,5.71 20.24,13.04 28.32,22.11 8.07,9.2 14.53,19.88 19.24,32.3 4.72,12.29 7.09,26.08 7.09,41.36 0,48.56 -16.28,84.95 -48.69,109.42 -32.54,24.35 -79.49,36.51 -140.84,36.51l-145.07 0zm222.81 -345.65c0,-9.07 -1.49,-17.14 -4.34,-24.47 -2.99,-7.2 -7.58,-13.41 -14.04,-18.5 -6.46,-5.09 -14.78,-9.06 -24.84,-11.8 -10.05,-2.86 -22.23,-4.22 -36.64,-4.22l-54.28 0 0 125.94 54.28 0c14.66,0 26.95,-1.74 37.01,-5.34 10.07,-3.47 18.39,-8.31 24.84,-14.52 6.46,-6.21 11.06,-13.3 13.78,-21.24 2.86,-8.08 4.22,-16.65 4.22,-25.83zm-71.41 272.63c14.28,0 26.83,-1.87 37.63,-5.47 10.8,-3.6 19.87,-8.69 27.2,-15.03 7.33,-6.45 12.79,-14.04 16.65,-22.85 3.73,-8.7 5.59,-18.02 5.59,-27.95 0,-20.62 -7.7,-36.77 -23.1,-48.32 -15.53,-11.67 -39.12,-17.51 -70.92,-17.51l-55.77 0 0 137.13 62.73 0z"/>
   <path class="fil1" d="M2261.69 5087.7c0,25.95 -4.85,48.44 -14.41,67.56 -9.57,19.24 -22.98,35.02 -40.11,47.57 -17.27,12.42 -37.76,21.73 -61.48,27.82 -23.85,6.08 -49.68,9.06 -77.87,9.06 -24.97,0 -49.06,-1.49 -72.41,-4.34 -23.23,-2.86 -46.21,-7.58 -69.05,-14.29l0 -88.68c11.17,3.97 22.73,7.57 34.9,11.06 12.05,3.35 24.22,6.45 36.51,8.94 12.29,2.61 24.47,4.59 36.52,6.09 12.17,1.49 23.84,2.23 35.27,2.23 17.02,0 31.42,-1.49 43.22,-4.34 11.92,-2.99 21.62,-6.96 29.07,-12.18 7.57,-5.09 13.04,-11.17 16.39,-18.25 3.36,-7.09 5.09,-14.91 5.09,-23.35 0,-11.68 -3.35,-21.49 -10.05,-29.31 -6.58,-7.83 -15.4,-14.91 -26.33,-20.87 -10.93,-6.08 -23.35,-11.55 -37.26,-16.39 -14.04,-4.85 -28.19,-10.07 -42.6,-15.65 -14.41,-5.59 -28.57,-11.92 -42.61,-19 -13.91,-6.96 -26.33,-15.65 -37.25,-26.09 -10.93,-10.42 -19.75,-22.85 -26.33,-37.38 -6.71,-14.41 -10.07,-31.79 -10.07,-52.17 0,-18.63 3.36,-36.39 10.18,-53.16 6.83,-16.65 17.51,-31.3 32.04,-43.72 14.53,-12.55 33.16,-22.49 56.02,-29.93 22.85,-7.33 50.3,-11.06 82.59,-11.06 9.43,0 19.37,0.37 29.68,1.25 10.31,0.87 20.49,1.99 30.56,3.35 10.05,1.25 19.75,2.86 29.07,4.72 9.43,1.74 18.01,3.6 25.71,5.59l0 81.97c-7.7,-2.98 -16.28,-5.59 -25.46,-8.07 -9.19,-2.36 -18.76,-4.59 -28.57,-6.34 -9.81,-1.86 -19.74,-3.22 -29.68,-4.21 -9.94,-1 -19.37,-1.5 -28.32,-1.5 -15.78,0 -29.07,1.25 -40,3.86 -10.92,2.48 -19.87,6.08 -26.94,10.56 -7.09,4.47 -12.18,9.93 -15.28,16.51 -3.11,6.59 -4.72,13.79 -4.72,21.86 0,9.94 3.36,18.5 10.07,25.59 6.58,7.2 15.53,13.66 26.46,19.24 11.05,5.71 23.6,11.06 37.51,16.02 14.04,4.97 28.32,10.31 42.98,16.02 14.65,5.71 28.94,12.18 42.97,19.5 13.91,7.2 26.46,16.15 37.52,26.58 10.92,10.44 19.87,22.73 26.45,36.88 6.71,14.16 10.07,30.93 10.07,50.43zm177.23 -225.8l0 240.71c0,20.12 3.73,35.39 11.31,45.7 7.57,10.31 19,15.4 34.27,15.4 14.78,0 29.07,-6.08 42.72,-18.38 13.79,-12.17 28.32,-28.81 43.6,-49.68l0 -233.75 88.68 0 0 369.63 -76.64 0 -2.23 -54.52c-7.7,9.43 -15.65,18.01 -23.6,25.71 -8.08,7.7 -16.77,14.28 -26.09,19.75 -9.32,5.46 -19.5,9.69 -30.56,12.66 -11.05,3.11 -23.23,4.59 -36.64,4.59 -18.87,0 -35.39,-3.11 -49.67,-9.32 -14.16,-6.08 -25.96,-14.9 -35.4,-26.33 -9.56,-11.43 -16.65,-24.96 -21.36,-40.86 -4.72,-15.9 -7.09,-33.65 -7.09,-53.27l0 -248.04 88.68 0zm654.18 178.23c0,34.03 -4.85,63.34 -14.41,88.18 -9.57,24.71 -22.86,45.33 -40,61.61 -17.02,16.39 -37.26,28.56 -60.49,36.51 -23.34,7.83 -48.68,11.8 -76,11.8 -26.95,0 -51.92,-1.99 -75.15,-5.96 -23.1,-4.11 -45.21,-9.44 -66.32,-16.28l0 -498.67 88.68 0 0 120.72 -3.6 72.78c13.29,-17.26 28.94,-31.04 46.69,-41.48 17.77,-10.44 39.25,-15.65 64.22,-15.65 21.86,0 41.23,4.35 58.12,13.17 17.02,8.69 31.31,21.11 42.73,37.25 11.54,16.15 20.36,35.65 26.45,58.63 6.09,22.97 9.07,48.68 9.07,77.38zm-93.16 3.6c0,-20.49 -1.49,-37.76 -4.34,-52.17 -2.99,-14.28 -7.09,-26.08 -12.55,-35.28 -5.46,-9.19 -12.17,-16.02 -19.99,-20.24 -7.95,-4.22 -16.9,-6.34 -27.08,-6.34 -15.03,0 -29.44,6.08 -43.09,18.25 -13.67,12.05 -28.2,28.57 -43.47,49.44l0 161.7c7.08,2.61 15.65,4.85 25.96,6.46 10.31,1.73 20.86,2.61 31.55,2.61 14.03,0 26.83,-2.86 38.24,-8.69 11.55,-5.84 21.37,-14.16 29.56,-24.84 8.07,-10.69 14.28,-23.72 18.63,-39.12 4.35,-15.41 6.58,-32.67 6.58,-51.8zm475.32 78.87c0,21.11 -4.72,39.12 -14.04,54.02 -9.32,14.9 -21.73,26.95 -37.14,36.4 -15.4,9.32 -32.78,16.15 -52.41,20.36 -19.5,4.22 -39.5,6.34 -59.87,6.34 -27.2,0 -51.67,-1.24 -73.53,-3.84 -21.85,-2.49 -42.47,-6.21 -61.85,-11.06l0 -79.73c22.86,9.43 45.59,16.27 68.19,20.49 22.73,4.22 44.1,6.34 64.22,6.34 23.34,0 40.74,-3.73 52.28,-11.19 11.55,-7.45 17.27,-17.14 17.27,-29.07 0,-5.59 -1.25,-10.68 -3.6,-15.27 -2.48,-4.59 -6.96,-9.06 -13.67,-13.29 -6.71,-4.22 -16.14,-8.58 -28.19,-13.04 -12.17,-4.59 -28.07,-9.56 -47.7,-15.16 -18.12,-5.09 -34.15,-10.8 -47.81,-17.26 -13.78,-6.46 -25.08,-14.04 -34.03,-22.73 -8.95,-8.69 -15.77,-18.87 -20.25,-30.43 -4.47,-11.55 -6.71,-24.97 -6.71,-40.49 0,-15.15 3.36,-29.31 10.19,-42.6 6.82,-13.41 16.89,-25.08 30.43,-35.15 13.41,-10.05 30.18,-18.01 50.42,-23.85 20.12,-5.83 43.59,-8.69 70.54,-8.69 23.35,0 43.97,1.25 61.85,3.73 18.01,2.48 33.91,5.22 47.7,8.2l0 72.29c-21.11,-6.83 -40.86,-11.67 -59.5,-14.41 -18.5,-2.86 -36.88,-4.22 -55.14,-4.22 -18.13,0 -32.78,3.23 -43.84,9.81 -11.06,6.46 -16.52,15.65 -16.52,27.2 0,5.59 1.12,10.56 3.23,14.9 2.23,4.35 6.58,8.58 12.92,12.8 6.45,4.1 15.4,8.44 26.94,12.92 11.55,4.47 26.83,9.32 45.71,14.65 21.37,6.08 39.25,12.55 53.9,19.5 14.53,6.96 26.21,14.79 35.03,23.48 8.94,8.69 15.27,18.63 19.13,29.81 3.84,11.19 5.83,23.98 5.83,38.26zm426.88 -104.46c0,6.09 -0.13,13.92 -0.5,23.61 -0.37,9.69 -0.99,18.87 -1.74,27.32l-242.94 0c0,16.27 2.48,30.56 7.46,42.98 4.96,12.41 12.04,22.85 21.11,31.17 9.06,8.45 19.99,14.78 32.66,19.13 12.8,4.35 26.83,6.58 42.35,6.58 18.01,0 37.14,-1.36 57.64,-4.22 20.49,-2.72 41.73,-7.32 63.84,-13.66l0 70.8c-9.44,2.61 -19.75,4.96 -30.93,7.2 -11.17,2.11 -22.49,3.97 -34.16,5.71 -11.67,1.62 -23.35,2.85 -35.28,3.73 -11.91,0.87 -23.34,1.24 -34.53,1.24 -28.06,0 -53.27,-3.97 -75.63,-12.05 -22.23,-7.94 -41.23,-19.74 -56.76,-35.39 -15.53,-15.65 -27.32,-35.02 -35.52,-58.12 -8.32,-22.98 -12.42,-49.68 -12.42,-79.99 0,-30.06 4.1,-57.38 12.42,-82.1 8.2,-24.6 19.87,-45.71 34.9,-63.22 15.03,-17.64 33.29,-31.17 54.65,-40.74 21.49,-9.56 45.46,-14.41 71.92,-14.41 26.2,0 49.3,4.1 69.42,12.18 20.12,8.2 37.02,19.5 50.55,34.03 13.54,14.52 23.85,31.92 30.93,52.04 7.09,20.12 10.56,42.23 10.56,66.19zm-90.17 -12.41c0.24,-14.53 -1.62,-27.33 -5.47,-38.14 -3.84,-10.8 -9.19,-19.74 -15.77,-26.83 -6.71,-6.95 -14.53,-12.17 -23.35,-15.64 -8.82,-3.36 -18.38,-5.09 -28.57,-5.09 -22.35,0 -40.61,7.45 -54.89,22.48 -14.28,14.9 -22.86,36.02 -25.46,63.22l153.52 0zm482.77 222.07c-16.02,3.6 -32.16,6.46 -48.44,8.69 -16.27,2.11 -31.68,3.23 -46.2,3.23 -24.22,0 -45.22,-2.48 -62.73,-7.57 -17.64,-5.09 -32.17,-12.92 -43.72,-23.35 -11.55,-10.44 -19.99,-23.6 -25.46,-39.74 -5.46,-16.15 -8.2,-35.28 -8.2,-57.63l0 -180.22 -99.11 0 0 -69.31 99.11 0 0 -94.76 90.92 -23.72 0 118.48 143.82 0 0 69.31 -143.82 0 0 173.75c0,21.11 4.85,37.02 14.53,47.82 9.69,10.8 25.95,16.14 48.81,16.14 14.53,0 28.81,-1.24 42.61,-3.6 13.78,-2.48 26.45,-5.22 37.88,-8.32l0 70.8z"/>
   <path class="fil1" d="M9180.62 5087.7c0,25.95 -4.85,48.44 -14.41,67.56 -9.57,19.24 -22.98,35.02 -40.11,47.57 -17.27,12.42 -37.76,21.73 -61.48,27.82 -23.85,6.08 -49.68,9.06 -77.87,9.06 -24.97,0 -49.06,-1.49 -72.41,-4.34 -23.23,-2.86 -46.21,-7.58 -69.05,-14.29l0 -88.68c11.17,3.97 22.73,7.57 34.9,11.06 12.05,3.35 24.22,6.45 36.51,8.94 12.29,2.61 24.47,4.59 36.52,6.09 12.17,1.49 23.84,2.23 35.27,2.23 17.02,0 31.42,-1.49 43.22,-4.34 11.92,-2.99 21.62,-6.96 29.07,-12.18 7.57,-5.09 13.04,-11.17 16.39,-18.25 3.36,-7.09 5.09,-14.91 5.09,-23.35 0,-11.68 -3.35,-21.49 -10.05,-29.31 -6.58,-7.83 -15.4,-14.91 -26.33,-20.87 -10.93,-6.08 -23.35,-11.55 -37.26,-16.39 -14.04,-4.85 -28.19,-10.07 -42.6,-15.65 -14.41,-5.59 -28.57,-11.92 -42.61,-19 -13.91,-6.96 -26.33,-15.65 -37.25,-26.09 -10.93,-10.42 -19.75,-22.85 -26.33,-37.38 -6.71,-14.41 -10.07,-31.79 -10.07,-52.17 0,-18.63 3.36,-36.39 10.18,-53.16 6.83,-16.65 17.51,-31.3 32.04,-43.72 14.53,-12.55 33.16,-22.49 56.02,-29.93 22.85,-7.33 50.3,-11.06 82.59,-11.06 9.43,0 19.37,0.37 29.68,1.25 10.31,0.87 20.49,1.99 30.56,3.35 10.05,1.25 19.75,2.86 29.07,4.72 9.43,1.74 18.01,3.6 25.71,5.59l0 81.97c-7.7,-2.98 -16.28,-5.59 -25.46,-8.07 -9.19,-2.36 -18.76,-4.59 -28.57,-6.34 -9.81,-1.86 -19.74,-3.22 -29.68,-4.21 -9.94,-1 -19.37,-1.5 -28.32,-1.5 -15.78,0 -29.07,1.25 -40,3.86 -10.92,2.48 -19.87,6.08 -26.94,10.56 -7.09,4.47 -12.18,9.93 -15.28,16.51 -3.11,6.59 -4.72,13.79 -4.72,21.86 0,9.94 3.36,18.5 10.07,25.59 6.58,7.2 15.53,13.66 26.46,19.24 11.05,5.71 23.6,11.06 37.51,16.02 14.04,4.97 28.32,10.31 42.98,16.02 14.65,5.71 28.94,12.18 42.97,19.5 13.91,7.2 26.46,16.15 37.52,26.58 10.92,10.44 19.87,22.73 26.45,36.88 6.71,14.16 10.07,30.93 10.07,50.43zm177.23 -225.8l0 240.71c0,20.12 3.73,35.39 11.31,45.7 7.57,10.31 19,15.4 34.27,15.4 14.78,0 29.07,-6.08 42.72,-18.38 13.79,-12.17 28.32,-28.81 43.6,-49.68l0 -233.75 88.68 0 0 369.63 -76.64 0 -2.23 -54.52c-7.7,9.43 -15.65,18.01 -23.6,25.71 -8.08,7.7 -16.77,14.28 -26.09,19.75 -9.32,5.46 -19.5,9.69 -30.56,12.66 -11.05,3.11 -23.23,4.59 -36.64,4.59 -18.87,0 -35.39,-3.11 -49.67,-9.32 -14.16,-6.08 -25.96,-14.9 -35.4,-26.33 -9.56,-11.43 -16.65,-24.96 -21.36,-40.86 -4.72,-15.9 -7.09,-33.65 -7.09,-53.27l0 -248.04 88.68 0zm654.18 178.23c0,34.03 -4.85,63.34 -14.41,88.18 -9.57,24.71 -22.86,45.33 -40,61.61 -17.02,16.39 -37.26,28.56 -60.49,36.51 -23.34,7.83 -48.68,11.8 -76,11.8 -26.95,0 -51.92,-1.99 -75.15,-5.96 -23.1,-4.11 -45.21,-9.44 -66.32,-16.28l0 -498.67 88.68 0 0 120.72 -3.6 72.78c13.29,-17.26 28.94,-31.04 46.69,-41.48 17.77,-10.44 39.25,-15.65 64.22,-15.65 21.86,0 41.23,4.35 58.12,13.17 17.02,8.69 31.31,21.11 42.73,37.25 11.54,16.15 20.36,35.65 26.45,58.63 6.09,22.97 9.07,48.68 9.07,77.38zm-93.16 3.6c0,-20.49 -1.49,-37.76 -4.34,-52.17 -2.99,-14.28 -7.09,-26.08 -12.55,-35.28 -5.46,-9.19 -12.17,-16.02 -19.99,-20.24 -7.95,-4.22 -16.9,-6.34 -27.08,-6.34 -15.03,0 -29.44,6.08 -43.09,18.25 -13.67,12.05 -28.2,28.57 -43.47,49.44l0 161.7c7.08,2.61 15.65,4.85 25.96,6.46 10.31,1.73 20.86,2.61 31.55,2.61 14.03,0 26.83,-2.86 38.24,-8.69 11.55,-5.84 21.37,-14.16 29.56,-24.84 8.07,-10.69 14.28,-23.72 18.63,-39.12 4.35,-15.41 6.58,-32.67 6.58,-51.8zm475.32 78.87c0,21.11 -4.72,39.12 -14.04,54.02 -9.32,14.9 -21.73,26.95 -37.14,36.4 -15.4,9.32 -32.78,16.15 -52.41,20.36 -19.5,4.22 -39.5,6.34 -59.87,6.34 -27.2,0 -51.67,-1.24 -73.53,-3.84 -21.85,-2.49 -42.47,-6.21 -61.85,-11.06l0 -79.73c22.86,9.43 45.59,16.27 68.19,20.49 22.73,4.22 44.1,6.34 64.22,6.34 23.34,0 40.74,-3.73 52.28,-11.19 11.55,-7.45 17.27,-17.14 17.27,-29.07 0,-5.59 -1.25,-10.68 -3.6,-15.27 -2.48,-4.59 -6.96,-9.06 -13.67,-13.29 -6.71,-4.22 -16.14,-8.58 -28.19,-13.04 -12.17,-4.59 -28.07,-9.56 -47.7,-15.16 -18.12,-5.09 -34.15,-10.8 -47.81,-17.26 -13.78,-6.46 -25.08,-14.04 -34.03,-22.73 -8.95,-8.69 -15.77,-18.87 -20.25,-30.43 -4.47,-11.55 -6.71,-24.97 -6.71,-40.49 0,-15.15 3.36,-29.31 10.19,-42.6 6.82,-13.41 16.89,-25.08 30.43,-35.15 13.41,-10.05 30.18,-18.01 50.42,-23.85 20.12,-5.83 43.59,-8.69 70.54,-8.69 23.35,0 43.97,1.25 61.85,3.73 18.01,2.48 33.91,5.22 47.7,8.2l0 72.29c-21.11,-6.83 -40.86,-11.67 -59.5,-14.41 -18.5,-2.86 -36.88,-4.22 -55.14,-4.22 -18.13,0 -32.78,3.23 -43.84,9.81 -11.06,6.46 -16.52,15.65 -16.52,27.2 0,5.59 1.12,10.56 3.23,14.9 2.23,4.35 6.58,8.58 12.92,12.8 6.45,4.1 15.4,8.44 26.94,12.92 11.55,4.47 26.83,9.32 45.71,14.65 21.37,6.08 39.25,12.55 53.9,19.5 14.53,6.96 26.21,14.79 35.03,23.48 8.94,8.69 15.27,18.63 19.13,29.81 3.84,11.19 5.83,23.98 5.83,38.26zm426.88 -104.46c0,6.09 -0.13,13.92 -0.5,23.61 -0.37,9.69 -0.99,18.87 -1.74,27.32l-242.94 0c0,16.27 2.48,30.56 7.46,42.98 4.96,12.41 12.04,22.85 21.11,31.17 9.06,8.45 19.99,14.78 32.66,19.13 12.8,4.35 26.83,6.58 42.35,6.58 18.01,0 37.14,-1.36 57.64,-4.22 20.49,-2.72 41.73,-7.32 63.84,-13.66l0 70.8c-9.44,2.61 -19.75,4.96 -30.93,7.2 -11.17,2.11 -22.49,3.97 -34.16,5.71 -11.67,1.62 -23.35,2.85 -35.28,3.73 -11.91,0.87 -23.34,1.24 -34.53,1.24 -28.06,0 -53.27,-3.97 -75.63,-12.05 -22.23,-7.94 -41.23,-19.74 -56.76,-35.39 -15.53,-15.65 -27.32,-35.02 -35.52,-58.12 -8.32,-22.98 -12.42,-49.68 -12.42,-79.99 0,-30.06 4.1,-57.38 12.42,-82.1 8.2,-24.6 19.87,-45.71 34.9,-63.22 15.03,-17.64 33.29,-31.17 54.65,-40.74 21.49,-9.56 45.46,-14.41 71.92,-14.41 26.2,0 49.3,4.1 69.42,12.18 20.12,8.2 37.02,19.5 50.55,34.03 13.54,14.52 23.85,31.92 30.93,52.04 7.09,20.12 10.56,42.23 10.56,66.19zm-90.17 -12.41c0.24,-14.53 -1.62,-27.33 -5.47,-38.14 -3.84,-10.8 -9.19,-19.74 -15.77,-26.83 -6.71,-6.95 -14.53,-12.17 -23.35,-15.64 -8.82,-3.36 -18.38,-5.09 -28.57,-5.09 -22.35,0 -40.61,7.45 -54.89,22.48 -14.28,14.9 -22.86,36.02 -25.46,63.22l153.52 0zm482.77 222.07c-16.02,3.6 -32.16,6.46 -48.44,8.69 -16.27,2.11 -31.68,3.23 -46.2,3.23 -24.22,0 -45.22,-2.48 -62.73,-7.57 -17.64,-5.09 -32.17,-12.92 -43.72,-23.35 -11.55,-10.44 -19.99,-23.6 -25.46,-39.74 -5.46,-16.15 -8.2,-35.28 -8.2,-57.63l0 -180.22 -99.11 0 0 -69.31 99.11 0 0 -94.76 90.92 -23.72 0 118.48 143.82 0 0 69.31 -143.82 0 0 173.75c0,21.11 4.85,37.02 14.53,47.82 9.69,10.8 25.95,16.14 48.81,16.14 14.53,0 28.81,-1.24 42.61,-3.6 13.78,-2.48 26.45,-5.22 37.88,-8.32l0 70.8z"/>
   <path class="fil1" d="M8725 1114.1l-26.09 -93.9 -166.18 0 -26.83 93.9 -88.8 0 140.73 -475.45 125.19 0 140.97 475.45 -98.99 0zm-108.19 -388.75l-63.34 221.82 125.07 0 -61.73 -221.82zm378.08 -56.14l-104.33 0 0 -69.31 195.25 0 0 444.89 106.56 0 0 69.31 -314.48 0 0 -69.31 117.01 0 0 -375.58zm409.74 0l-104.33 0 0 -69.31 195.25 0 0 444.89 106.56 0 0 69.31 -314.48 0 0 -69.31 117.01 0 0 -375.58zm1040.06 201.21c0,36.77 -4.59,70.3 -13.66,100.36 -9.07,30.05 -23.23,55.77 -42.61,76.88 -19.24,21.24 -43.96,37.63 -74.02,49.18 -30.06,11.55 -66.08,17.27 -108.06,17.27l-120.85 0 0 -475.45 140.84 0c36.4,0 68.19,4.59 95.51,13.67 27.32,9.06 50.05,23.1 68.31,41.97 18.13,18.88 31.79,42.98 40.86,72.04 9.06,29.07 13.66,63.84 13.66,104.08zm-96.12 5.71c0,-25.58 -2.11,-48.44 -6.21,-68.56 -4.1,-20.12 -11.06,-37.14 -20.87,-51.05 -9.81,-13.91 -22.97,-24.47 -39.49,-31.68 -16.52,-7.33 -37.02,-10.93 -61.61,-10.93l-45.46 0 0 324.92 39.37 0c43.84,0 77.25,-13.04 100.11,-39.25 22.73,-26.09 34.16,-67.2 34.16,-123.46zm397.93 237.97l-2.23 -48.31c-7.83,8.2 -15.9,15.77 -24.47,22.6 -8.44,6.95 -17.75,12.92 -27.95,18.01 -10.31,4.96 -21.36,8.95 -33.41,11.67 -12.05,2.86 -25.21,4.22 -39.49,4.22 -19.01,0 -35.65,-2.74 -49.94,-8.32 -14.28,-5.59 -26.33,-13.41 -36.02,-23.35 -9.81,-9.93 -17.14,-21.85 -22.11,-35.89 -4.96,-14.04 -7.46,-29.56 -7.46,-46.58 0,-17.38 3.73,-33.53 11.06,-48.31 7.46,-14.78 18.76,-27.45 33.9,-38.13 15.28,-10.69 34.16,-19 56.89,-25.1 22.73,-6.08 49.31,-9.06 79.99,-9.06l48.44 0 0 -22.23c0,-9.44 -1.36,-18.01 -3.97,-25.71 -2.74,-7.7 -6.96,-14.16 -12.92,-19.5 -5.96,-5.34 -13.67,-9.44 -23.1,-12.42 -9.44,-2.86 -21.11,-4.35 -34.91,-4.35 -21.85,0 -43.46,2.48 -64.58,7.46 -21.24,4.96 -41.86,11.92 -61.73,20.86l0 -70.8c17.77,-7.08 38.13,-12.92 61.24,-17.63 23.22,-4.59 47.32,-6.96 72.28,-6.96 27.32,0 50.93,2.61 70.55,7.83 19.62,5.22 35.76,13.04 48.56,23.47 12.66,10.44 22.11,23.48 28.19,39.13 6.08,15.64 9.06,33.9 9.06,54.77l0 252.62 -75.89 0zm-12.79 -163.2l-54.39 0c-15.03,0 -27.82,1.49 -38.26,4.35 -10.44,2.98 -18.88,6.95 -25.46,12.04 -6.58,5.1 -11.43,10.93 -14.41,17.52 -3.11,6.71 -4.59,13.78 -4.59,21.36 0,14.9 4.85,26.46 14.53,34.28 9.81,7.83 22.97,11.8 39.87,11.8 12.29,0 25.21,-4.47 38.63,-13.41 13.29,-8.95 28.06,-21.86 44.09,-38.51l0 -49.43zm495.44 159.47c-16.02,3.6 -32.16,6.46 -48.44,8.69 -16.27,2.11 -31.68,3.23 -46.2,3.23 -24.22,0 -45.22,-2.48 -62.73,-7.57 -17.64,-5.09 -32.17,-12.92 -43.72,-23.35 -11.55,-10.44 -19.99,-23.6 -25.46,-39.74 -5.46,-16.15 -8.2,-35.28 -8.2,-57.63l0 -180.22 -99.11 0 0 -69.31 99.11 0 0 -94.76 90.92 -23.72 0 118.48 143.82 0 0 69.31 -143.82 0 0 173.75c0,21.11 4.85,37.02 14.53,47.82 9.69,10.8 25.95,16.14 48.81,16.14 14.53,0 28.81,-1.24 42.61,-3.6 13.78,-2.48 26.45,-5.22 37.88,-8.32l0 70.8zm336.83 3.73l-2.23 -48.31c-7.83,8.2 -15.9,15.77 -24.47,22.6 -8.44,6.95 -17.75,12.92 -27.95,18.01 -10.31,4.96 -21.36,8.95 -33.41,11.67 -12.05,2.86 -25.21,4.22 -39.49,4.22 -19.01,0 -35.65,-2.74 -49.94,-8.32 -14.28,-5.59 -26.33,-13.41 -36.02,-23.35 -9.81,-9.93 -17.14,-21.85 -22.11,-35.89 -4.96,-14.04 -7.46,-29.56 -7.46,-46.58 0,-17.38 3.73,-33.53 11.06,-48.31 7.46,-14.78 18.76,-27.45 33.9,-38.13 15.28,-10.69 34.16,-19 56.89,-25.1 22.73,-6.08 49.31,-9.06 79.99,-9.06l48.44 0 0 -22.23c0,-9.44 -1.36,-18.01 -3.97,-25.71 -2.74,-7.7 -6.96,-14.16 -12.92,-19.5 -5.96,-5.34 -13.67,-9.44 -23.1,-12.42 -9.44,-2.86 -21.11,-4.35 -34.91,-4.35 -21.85,0 -43.46,2.48 -64.58,7.46 -21.24,4.96 -41.86,11.92 -61.73,20.86l0 -70.8c17.77,-7.08 38.13,-12.92 61.24,-17.63 23.22,-4.59 47.32,-6.96 72.28,-6.96 27.32,0 50.93,2.61 70.55,7.83 19.62,5.22 35.76,13.04 48.56,23.47 12.66,10.44 22.11,23.48 28.19,39.13 6.08,15.64 9.06,33.9 9.06,54.77l0 252.62 -75.89 0zm-12.79 -163.2l-54.39 0c-15.03,0 -27.82,1.49 -38.26,4.35 -10.44,2.98 -18.88,6.95 -25.46,12.04 -6.58,5.1 -11.43,10.93 -14.41,17.52 -3.11,6.71 -4.59,13.78 -4.59,21.36 0,14.9 4.85,26.46 14.53,34.28 9.81,7.83 22.97,11.8 39.87,11.8 12.29,0 25.21,-4.47 38.63,-13.41 13.29,-8.95 28.06,-21.86 44.09,-38.51l0 -49.43z"/>
   <path class="fil1" d="M15891.93 5087.7c0,25.95 -4.85,48.44 -14.41,67.56 -9.57,19.24 -22.98,35.02 -40.11,47.57 -17.27,12.42 -37.76,21.73 -61.48,27.82 -23.85,6.08 -49.68,9.06 -77.87,9.06 -24.97,0 -49.06,-1.49 -72.41,-4.34 -23.23,-2.86 -46.21,-7.58 -69.05,-14.29l0 -88.68c11.17,3.97 22.73,7.57 34.9,11.06 12.05,3.35 24.22,6.45 36.51,8.94 12.29,2.61 24.47,4.59 36.52,6.09 12.17,1.49 23.84,2.23 35.27,2.23 17.02,0 31.42,-1.49 43.22,-4.34 11.92,-2.99 21.62,-6.96 29.07,-12.18 7.57,-5.09 13.04,-11.17 16.39,-18.25 3.36,-7.09 5.09,-14.91 5.09,-23.35 0,-11.68 -3.35,-21.49 -10.05,-29.31 -6.58,-7.83 -15.4,-14.91 -26.33,-20.87 -10.93,-6.08 -23.35,-11.55 -37.26,-16.39 -14.04,-4.85 -28.19,-10.07 -42.6,-15.65 -14.41,-5.59 -28.57,-11.92 -42.61,-19 -13.91,-6.96 -26.33,-15.65 -37.25,-26.09 -10.93,-10.42 -19.75,-22.85 -26.33,-37.38 -6.71,-14.41 -10.07,-31.79 -10.07,-52.17 0,-18.63 3.36,-36.39 10.18,-53.16 6.83,-16.65 17.51,-31.3 32.04,-43.72 14.53,-12.55 33.16,-22.49 56.02,-29.93 22.85,-7.33 50.3,-11.06 82.59,-11.06 9.43,0 19.37,0.37 29.68,1.25 10.31,0.87 20.49,1.99 30.56,3.35 10.05,1.25 19.75,2.86 29.07,4.72 9.43,1.74 18.01,3.6 25.71,5.59l0 81.97c-7.7,-2.98 -16.28,-5.59 -25.46,-8.07 -9.19,-2.36 -18.76,-4.59 -28.57,-6.34 -9.81,-1.86 -19.74,-3.22 -29.68,-4.21 -9.94,-1 -19.37,-1.5 -28.32,-1.5 -15.78,0 -29.07,1.25 -40,3.86 -10.92,2.48 -19.87,6.08 -26.94,10.56 -7.09,4.47 -12.18,9.93 -15.28,16.51 -3.11,6.59 -4.72,13.79 -4.72,21.86 0,9.94 3.36,18.5 10.07,25.59 6.58,7.2 15.53,13.66 26.46,19.24 11.05,5.71 23.6,11.06 37.51,16.02 14.04,4.97 28.32,10.31 42.98,16.02 14.65,5.71 28.94,12.18 42.97,19.5 13.91,7.2 26.46,16.15 37.52,26.58 10.92,10.44 19.87,22.73 26.45,36.88 6.71,14.16 10.07,30.93 10.07,50.43zm177.23 -225.8l0 240.71c0,20.12 3.73,35.39 11.31,45.7 7.57,10.31 19,15.4 34.27,15.4 14.78,0 29.07,-6.08 42.72,-18.38 13.79,-12.17 28.32,-28.81 43.6,-49.68l0 -233.75 88.68 0 0 369.63 -76.64 0 -2.23 -54.52c-7.7,9.43 -15.65,18.01 -23.6,25.71 -8.08,7.7 -16.77,14.28 -26.09,19.75 -9.32,5.46 -19.5,9.69 -30.56,12.66 -11.05,3.11 -23.23,4.59 -36.64,4.59 -18.87,0 -35.39,-3.11 -49.67,-9.32 -14.16,-6.08 -25.96,-14.9 -35.4,-26.33 -9.56,-11.43 -16.65,-24.96 -21.36,-40.86 -4.72,-15.9 -7.09,-33.65 -7.09,-53.27l0 -248.04 88.68 0zm654.18 178.23c0,34.03 -4.85,63.34 -14.41,88.18 -9.57,24.71 -22.86,45.33 -40,61.61 -17.02,16.39 -37.26,28.56 -60.49,36.51 -23.34,7.83 -48.68,11.8 -76,11.8 -26.95,0 -51.92,-1.99 -75.15,-5.96 -23.1,-4.11 -45.21,-9.44 -66.32,-16.28l0 -498.67 88.68 0 0 120.72 -3.6 72.78c13.29,-17.26 28.94,-31.04 46.69,-41.48 17.77,-10.44 39.25,-15.65 64.22,-15.65 21.86,0 41.23,4.35 58.12,13.17 17.02,8.69 31.31,21.11 42.73,37.25 11.54,16.15 20.36,35.65 26.45,58.63 6.09,22.97 9.07,48.68 9.07,77.38zm-93.16 3.6c0,-20.49 -1.49,-37.76 -4.34,-52.17 -2.99,-14.28 -7.09,-26.08 -12.55,-35.28 -5.46,-9.19 -12.17,-16.02 -19.99,-20.24 -7.95,-4.22 -16.9,-6.34 -27.08,-6.34 -15.03,0 -29.44,6.08 -43.09,18.25 -13.67,12.05 -28.2,28.57 -43.47,49.44l0 161.7c7.08,2.61 15.65,4.85 25.96,6.46 10.31,1.73 20.86,2.61 31.55,2.61 14.03,0 26.83,-2.86 38.24,-8.69 11.55,-5.84 21.37,-14.16 29.56,-24.84 8.07,-10.69 14.28,-23.72 18.63,-39.12 4.35,-15.41 6.58,-32.67 6.58,-51.8zm475.32 78.87c0,21.11 -4.72,39.12 -14.04,54.02 -9.32,14.9 -21.73,26.95 -37.14,36.4 -15.4,9.32 -32.78,16.15 -52.41,20.36 -19.5,4.22 -39.5,6.34 -59.87,6.34 -27.2,0 -51.67,-1.24 -73.53,-3.84 -21.85,-2.49 -42.47,-6.21 -61.85,-11.06l0 -79.73c22.86,9.43 45.59,16.27 68.19,20.49 22.73,4.22 44.1,6.34 64.22,6.34 23.34,0 40.74,-3.73 52.28,-11.19 11.55,-7.45 17.27,-17.14 17.27,-29.07 0,-5.59 -1.25,-10.68 -3.6,-15.27 -2.48,-4.59 -6.96,-9.06 -13.67,-13.29 -6.71,-4.22 -16.14,-8.58 -28.19,-13.04 -12.17,-4.59 -28.07,-9.56 -47.7,-15.16 -18.12,-5.09 -34.15,-10.8 -47.81,-17.26 -13.78,-6.46 -25.08,-14.04 -34.03,-22.73 -8.95,-8.69 -15.77,-18.87 -20.25,-30.43 -4.47,-11.55 -6.71,-24.97 -6.71,-40.49 0,-15.15 3.36,-29.31 10.19,-42.6 6.82,-13.41 16.89,-25.08 30.43,-35.15 13.41,-10.05 30.18,-18.01 50.42,-23.85 20.12,-5.83 43.59,-8.69 70.54,-8.69 23.35,0 43.97,1.25 61.85,3.73 18.01,2.48 33.91,5.22 47.7,8.2l0 72.29c-21.11,-6.83 -40.86,-11.67 -59.5,-14.41 -18.5,-2.86 -36.88,-4.22 -55.14,-4.22 -18.13,0 -32.78,3.23 -43.84,9.81 -11.06,6.46 -16.52,15.65 -16.52,27.2 0,5.59 1.12,10.56 3.23,14.9 2.23,4.35 6.58,8.58 12.92,12.8 6.45,4.1 15.4,8.44 26.94,12.92 11.55,4.47 26.83,9.32 45.71,14.65 21.37,6.08 39.25,12.55 53.9,19.5 14.53,6.96 26.21,14.79 35.03,23.48 8.94,8.69 15.27,18.63 19.13,29.81 3.84,11.19 5.83,23.98 5.83,38.26zm426.88 -104.46c0,6.09 -0.13,13.92 -0.5,23.61 -0.37,9.69 -0.99,18.87 -1.74,27.32l-242.94 0c0,16.27 2.48,30.56 7.46,42.98 4.96,12.41 12.04,22.85 21.11,31.17 9.06,8.45 19.99,14.78 32.66,19.13 12.8,4.35 26.83,6.58 42.35,6.58 18.01,0 37.14,-1.36 57.64,-4.22 20.49,-2.72 41.73,-7.32 63.84,-13.66l0 70.8c-9.44,2.61 -19.75,4.96 -30.93,7.2 -11.17,2.11 -22.49,3.97 -34.16,5.71 -11.67,1.62 -23.35,2.85 -35.28,3.73 -11.91,0.87 -23.34,1.24 -34.53,1.24 -28.06,0 -53.27,-3.97 -75.63,-12.05 -22.23,-7.94 -41.23,-19.74 -56.76,-35.39 -15.53,-15.65 -27.32,-35.02 -35.52,-58.12 -8.32,-22.98 -12.42,-49.68 -12.42,-79.99 0,-30.06 4.1,-57.38 12.42,-82.1 8.2,-24.6 19.87,-45.71 34.9,-63.22 15.03,-17.64 33.29,-31.17 54.65,-40.74 21.49,-9.56 45.46,-14.41 71.92,-14.41 26.2,0 49.3,4.1 69.42,12.18 20.12,8.2 37.02,19.5 50.55,34.03 13.54,14.52 23.85,31.92 30.93,52.04 7.09,20.12 10.56,42.23 10.56,66.19zm-90.17 -12.41c0.24,-14.53 -1.62,-27.33 -5.47,-38.14 -3.84,-10.8 -9.19,-19.74 -15.77,-26.83 -6.71,-6.95 -14.53,-12.17 -23.35,-15.64 -8.82,-3.36 -18.38,-5.09 -28.57,-5.09 -22.35,0 -40.61,7.45 -54.89,22.48 -14.28,14.9 -22.86,36.02 -25.46,63.22l153.52 0zm482.77 222.07c-16.02,3.6 -32.16,6.46 -48.44,8.69 -16.27,2.11 -31.68,3.23 -46.2,3.23 -24.22,0 -45.22,-2.48 -62.73,-7.57 -17.64,-5.09 -32.17,-12.92 -43.72,-23.35 -11.55,-10.44 -19.99,-23.6 -25.46,-39.74 -5.46,-16.15 -8.2,-35.28 -8.2,-57.63l0 -180.22 -99.11 0 0 -69.31 99.11 0 0 -94.76 90.92 -23.72 0 118.48 143.82 0 0 69.31 -143.82 0 0 173.75c0,21.11 4.85,37.02 14.53,47.82 9.69,10.8 25.95,16.14 48.81,16.14 14.53,0 28.81,-1.24 42.61,-3.6 13.78,-2.48 26.45,-5.22 37.88,-8.32l0 70.8z"/>
   <g>
    <g>
     <path class="fil0" d="M5010.09 17140.58l9789.26 0 0 1722.18 -9789.26 0 0 -1722.18zm9683.64 105.62l-9578.02 0 0 1510.94 9578.02 0 0 -1510.94z"/>
    </g>
    <path class="fil1" d="M7150 18326.75l-8.57 -268.9 -3.23 -107.31 -22.98 72.41 -53.03 162.2 -56.01 0 -47.44 -162.2 -20 -72.41 -2.61 105.2 -8.2 271.01 -76 0 23.47 -475.45 101.23 0 41.6 135.26 20 76.26 20.12 -71.91 44.21 -139.61 102.96 0 23.48 475.45 -78.99 0zm377.44 0l-2.23 -48.31c-7.83,8.2 -15.9,15.77 -24.47,22.6 -8.44,6.95 -17.75,12.92 -27.95,18.01 -10.31,4.96 -21.36,8.95 -33.41,11.67 -12.05,2.86 -25.21,4.22 -39.49,4.22 -19.01,0 -35.65,-2.74 -49.94,-8.32 -14.28,-5.59 -26.33,-13.41 -36.02,-23.35 -9.81,-9.93 -17.14,-21.85 -22.11,-35.89 -4.96,-14.04 -7.46,-29.56 -7.46,-46.58 0,-17.38 3.73,-33.53 11.06,-48.31 7.46,-14.78 18.76,-27.45 33.9,-38.13 15.28,-10.69 34.16,-19 56.89,-25.1 22.73,-6.08 49.31,-9.06 79.99,-9.06l48.44 0 0 -22.23c0,-9.44 -1.36,-18.01 -3.97,-25.71 -2.74,-7.7 -6.96,-14.16 -12.92,-19.5 -5.96,-5.34 -13.67,-9.44 -23.1,-12.42 -9.44,-2.86 -21.11,-4.35 -34.91,-4.35 -21.85,0 -43.46,2.48 -64.58,7.46 -21.24,4.96 -41.86,11.92 -61.73,20.86l0 -70.8c17.77,-7.08 38.13,-12.92 61.24,-17.63 23.22,-4.59 47.32,-6.96 72.28,-6.96 27.32,0 50.93,2.61 70.55,7.83 19.62,5.22 35.76,13.04 48.56,23.47 12.66,10.44 22.11,23.48 28.19,39.13 6.08,15.64 9.06,33.9 9.06,54.77l0 252.62 -75.89 0zm-12.79 -163.2l-54.39 0c-15.03,0 -27.82,1.49 -38.26,4.35 -10.44,2.98 -18.88,6.95 -25.46,12.04 -6.58,5.1 -11.43,10.93 -14.41,17.52 -3.11,6.71 -4.59,13.78 -4.59,21.36 0,14.9 4.85,26.46 14.53,34.28 9.81,7.83 22.97,11.8 39.87,11.8 12.29,0 25.21,-4.47 38.63,-13.41 13.29,-8.95 28.06,-21.86 44.09,-38.51l0 -49.43zm461.17 152.64c0,27.58 -4.1,51.67 -12.18,72.17 -8.2,20.49 -19.75,37.51 -34.9,50.92 -15.16,13.54 -33.41,23.6 -54.65,30.18 -21.24,6.71 -44.84,10.07 -71.05,10.07 -21.36,0 -41.23,-1.86 -59.74,-5.46 -18.38,-3.73 -33.53,-8.08 -45.46,-13.17l0 -81.23c6.83,3.6 14.53,7.21 23.1,10.69 8.58,3.6 17.64,6.71 26.95,9.43 9.32,2.86 18.88,4.97 28.57,6.59 9.69,1.62 19.25,2.36 28.69,2.36 26.95,0 47.07,-7.83 60.49,-23.35 13.29,-15.53 19.99,-38.37 19.99,-68.43l0 -290.51 -175.87 0 0 -69.31 266.04 0 0 359.06zm7.45 -460.29c0,8.08 -1.49,15.65 -4.34,22.61 -2.99,7.08 -6.96,13.29 -12.18,18.5 -5.33,5.22 -11.43,9.32 -18.63,12.29 -7.2,3.11 -14.9,4.59 -23.1,4.59 -8.32,0 -16.02,-1.49 -22.97,-4.59 -7.09,-2.98 -13.17,-7.08 -18.39,-12.29 -5.33,-5.22 -9.32,-11.43 -12.29,-18.5 -2.85,-6.96 -4.35,-14.53 -4.35,-22.61 0,-7.94 1.5,-15.53 4.35,-22.48 2.98,-7.08 6.96,-13.29 12.29,-18.63 5.22,-5.34 11.3,-9.56 18.39,-12.55 6.95,-3.11 14.65,-4.59 22.97,-4.59 8.2,0 15.9,1.49 23.1,4.59 7.2,2.99 13.3,7.2 18.63,12.55 5.22,5.34 9.19,11.55 12.18,18.63 2.85,6.95 4.34,14.53 4.34,22.48zm464.14 282.93c0,29.07 -4.1,55.77 -12.42,79.86 -8.2,24.1 -19.99,44.84 -35.52,62.1 -15.53,17.14 -34.53,30.56 -57.14,40 -22.48,9.43 -48.18,14.15 -77,14.15 -27.45,0 -51.92,-3.97 -73.41,-12.05 -21.61,-7.94 -39.87,-19.87 -54.9,-35.76 -15.03,-15.9 -26.57,-35.77 -34.53,-59.74 -8.07,-23.85 -12.05,-51.67 -12.05,-83.47 0,-29.31 4.22,-56.01 12.55,-79.99 8.32,-24.09 20.37,-44.58 36.02,-61.48 15.65,-17.02 34.65,-30.18 57.26,-39.49 22.49,-9.32 47.95,-14.04 76.27,-14.04 27.69,0 52.28,4.1 73.78,12.18 21.61,8.2 39.86,20.24 54.89,36.26 15.03,15.9 26.46,35.77 34.41,59.5 7.82,23.6 11.8,50.92 11.8,81.97zm-92.41 2.24c0,-38.38 -7.2,-67.2 -21.61,-86.45 -14.41,-19.24 -35.65,-28.94 -63.72,-28.94 -15.53,0 -28.69,2.99 -39.62,9.07 -10.93,6.08 -19.88,14.41 -26.83,24.96 -7.08,10.56 -12.17,22.86 -15.53,36.89 -3.23,14.16 -4.85,29.18 -4.85,45.09 0,38.63 7.7,67.68 23.23,87.19 15.53,19.5 36.64,29.31 63.59,29.31 14.79,0 27.58,-2.98 38.51,-8.95 10.92,-5.96 19.74,-14.15 26.45,-24.71 6.83,-10.55 11.92,-22.97 15.28,-37.26 3.35,-14.28 5.09,-29.81 5.09,-46.2zm407.5 -40.11c0.5,-13.79 -0.13,-25.59 -1.99,-35.28 -1.86,-9.69 -4.72,-17.77 -8.69,-24.09 -4.1,-6.21 -8.95,-10.8 -14.78,-13.79 -5.84,-2.85 -12.42,-4.34 -20,-4.34 -13.03,0 -26.57,5.46 -40.48,16.27 -13.91,10.93 -29.19,28.81 -45.96,53.78l0 233.25 -90.92 0 0 -369.63 80.36 0 3.23 54.4c6.08,-9.57 12.92,-18.13 20.62,-25.83 7.7,-7.57 16.15,-14.16 25.46,-19.62 9.32,-5.59 19.74,-9.81 31.17,-12.67 11.43,-2.98 23.85,-4.47 37.52,-4.47 18.62,0 35.14,3.23 49.67,9.69 14.41,6.46 26.58,15.91 36.4,28.57 9.81,12.66 17.14,28.57 21.85,47.57 4.72,19.13 6.71,41.11 5.97,66.2l-89.43 0zm389.62 -245.06c0,8.08 -1.49,15.65 -4.34,22.61 -2.99,7.08 -6.96,13.29 -12.18,18.5 -5.33,5.22 -11.43,9.32 -18.5,12.29 -6.95,3.11 -14.66,4.59 -22.86,4.59 -8.32,0 -16.02,-1.49 -23.23,-4.59 -7.2,-2.98 -13.29,-7.08 -18.5,-12.29 -5.33,-5.22 -9.32,-11.43 -12.29,-18.5 -2.85,-6.96 -4.35,-14.53 -4.35,-22.61 0,-7.94 1.5,-15.53 4.35,-22.48 2.98,-7.08 6.96,-13.29 12.29,-18.63 5.22,-5.34 11.3,-9.56 18.5,-12.55 7.2,-3.11 14.9,-4.59 23.23,-4.59 8.2,0 15.91,1.49 22.86,4.59 7.08,2.99 13.17,7.2 18.5,12.55 5.22,5.34 9.19,11.55 12.18,18.63 2.85,6.95 4.34,14.53 4.34,22.48zm-98.36 170.53l-104.33 0 0 -69.31 195.25 0 0 300.32 106.56 0 0 69.31 -314.48 0 0 -69.31 117.01 0 0 -231.01zm595.29 296.59c-16.02,3.6 -32.16,6.46 -48.44,8.69 -16.27,2.11 -31.68,3.23 -46.2,3.23 -24.22,0 -45.22,-2.48 -62.73,-7.57 -17.64,-5.09 -32.17,-12.92 -43.72,-23.35 -11.55,-10.44 -19.99,-23.6 -25.46,-39.74 -5.46,-16.15 -8.2,-35.28 -8.2,-57.63l0 -180.22 -99.11 0 0 -69.31 99.11 0 0 -94.76 90.92 -23.72 0 118.48 143.82 0 0 69.31 -143.82 0 0 173.75c0,21.11 4.85,37.02 14.53,47.82 9.69,10.8 25.95,16.14 48.81,16.14 14.53,0 28.81,-1.24 42.61,-3.6 13.78,-2.48 26.45,-5.22 37.88,-8.32l0 70.8zm326.9 -37.01c-12.79,32.04 -26.2,60.11 -40.12,84.34 -14.03,24.22 -29.31,44.34 -46.07,60.48 -16.77,16.28 -35.4,28.32 -55.89,36.52 -20.49,8.07 -43.47,12.17 -68.93,12.17 -6.09,0 -12.67,-0.25 -19.88,-0.87 -7.08,-0.62 -14.41,-1.62 -21.98,-2.74l0 -75.39c2.85,0.5 6.21,0.99 10.05,1.62 3.73,0.62 7.7,1.12 11.8,1.49 4.1,0.37 8.32,0.75 12.55,0.99 4.22,0.25 8.2,0.37 11.8,0.37 10.18,0 19.62,-1.99 28.44,-5.83 8.69,-3.86 16.77,-9.32 24.22,-16.15 7.33,-6.96 14.04,-15.16 20.12,-24.84 6.08,-9.56 11.43,-19.99 16.02,-31.42l-146.93 -369.63 98.99 0 77.01 209.9 22.97 67.32 22.49 -64.71 77.38 -212.51 95.38 0 -129.42 328.89zm810.41 40.74l-118.61 0 -145.31 -475.45 101.47 0 80.61 286.29 25.83 93.9 26.95 -99.37 79.61 -280.82 95.4 0 -145.95 475.45zm529.23 -187.92c0,29.07 -4.1,55.77 -12.42,79.86 -8.2,24.1 -19.99,44.84 -35.52,62.1 -15.53,17.14 -34.53,30.56 -57.14,40 -22.48,9.43 -48.18,14.15 -77,14.15 -27.45,0 -51.92,-3.97 -73.41,-12.05 -21.61,-7.94 -39.87,-19.87 -54.9,-35.76 -15.03,-15.9 -26.57,-35.77 -34.53,-59.74 -8.07,-23.85 -12.05,-51.67 -12.05,-83.47 0,-29.31 4.22,-56.01 12.55,-79.99 8.32,-24.09 20.37,-44.58 36.02,-61.48 15.65,-17.02 34.65,-30.18 57.26,-39.49 22.49,-9.32 47.95,-14.04 76.27,-14.04 27.69,0 52.28,4.1 73.78,12.18 21.61,8.2 39.86,20.24 54.89,36.26 15.03,15.9 26.46,35.77 34.41,59.5 7.82,23.6 11.8,50.92 11.8,81.97zm-92.41 2.24c0,-38.38 -7.2,-67.2 -21.61,-86.45 -14.41,-19.24 -35.65,-28.94 -63.72,-28.94 -15.53,0 -28.69,2.99 -39.62,9.07 -10.93,6.08 -19.88,14.41 -26.83,24.96 -7.08,10.56 -12.17,22.86 -15.53,36.89 -3.23,14.16 -4.85,29.18 -4.85,45.09 0,38.63 7.7,67.68 23.23,87.19 15.53,19.5 36.64,29.31 63.59,29.31 14.79,0 27.58,-2.98 38.51,-8.95 10.92,-5.96 19.74,-14.15 26.45,-24.71 6.83,-10.55 11.92,-22.97 15.28,-37.26 3.35,-14.28 5.09,-29.81 5.09,-46.2zm474.57 181.95c-16.02,3.6 -32.16,6.46 -48.44,8.69 -16.27,2.11 -31.68,3.23 -46.2,3.23 -24.22,0 -45.22,-2.48 -62.73,-7.57 -17.64,-5.09 -32.17,-12.92 -43.72,-23.35 -11.55,-10.44 -19.99,-23.6 -25.46,-39.74 -5.46,-16.15 -8.2,-35.28 -8.2,-57.63l0 -180.22 -99.11 0 0 -69.31 99.11 0 0 -94.76 90.92 -23.72 0 118.48 143.82 0 0 69.31 -143.82 0 0 173.75c0,21.11 4.85,37.02 14.53,47.82 9.69,10.8 25.95,16.14 48.81,16.14 14.53,0 28.81,-1.24 42.61,-3.6 13.78,-2.48 26.45,-5.22 37.88,-8.32l0 70.8zm322.55 -467.12c0,8.08 -1.49,15.65 -4.34,22.61 -2.99,7.08 -6.96,13.29 -12.18,18.5 -5.33,5.22 -11.43,9.32 -18.5,12.29 -6.95,3.11 -14.66,4.59 -22.86,4.59 -8.32,0 -16.02,-1.49 -23.23,-4.59 -7.2,-2.98 -13.29,-7.08 -18.5,-12.29 -5.33,-5.22 -9.32,-11.43 -12.29,-18.5 -2.85,-6.96 -4.35,-14.53 -4.35,-22.61 0,-7.94 1.5,-15.53 4.35,-22.48 2.98,-7.08 6.96,-13.29 12.29,-18.63 5.22,-5.34 11.3,-9.56 18.5,-12.55 7.2,-3.11 14.9,-4.59 23.23,-4.59 8.2,0 15.91,1.49 22.86,4.59 7.08,2.99 13.17,7.2 18.5,12.55 5.22,5.34 9.19,11.55 12.18,18.63 2.85,6.95 4.34,14.53 4.34,22.48zm-98.36 170.53l-104.33 0 0 -69.31 195.25 0 0 300.32 106.56 0 0 69.31 -314.48 0 0 -69.31 117.01 0 0 -231.01zm511.08 300.32l0 -240.95c0,-40.61 -15.02,-60.86 -45.21,-60.86 -15.03,0 -29.44,6.08 -43.1,18.25 -13.78,12.05 -28.32,28.57 -43.59,49.44l0 234.12 -88.68 0 0 -369.63 76.63 0 2.24 54.53c7.46,-9.44 15.27,-18.13 23.47,-25.83 8.08,-7.83 16.9,-14.41 26.33,-19.88 9.57,-5.46 19.75,-9.69 30.68,-12.66 10.8,-2.86 23.1,-4.35 36.77,-4.35 18.87,0 35.39,3.11 49.43,9.32 14.04,6.21 25.83,14.9 35.28,26.2 9.56,11.3 16.64,24.84 21.36,40.74 4.72,15.91 7.09,33.66 7.09,53.29l0 248.28 -88.69 0zm466.5 -304.79c6.71,8.44 11.55,17.38 14.29,26.7 2.85,9.32 4.22,18.76 4.22,28.44 0,20.62 -3.6,38.87 -10.69,54.65 -7.2,15.77 -17.26,28.94 -30.3,39.62 -12.92,10.68 -28.44,18.76 -46.58,24.22 -18.01,5.47 -38,8.2 -59.74,8.2 -12.92,0 -24.84,-1.24 -35.77,-3.84 -10.93,-2.48 -19.13,-5.47 -24.71,-8.95 -4.1,4.22 -7.7,8.69 -10.68,13.67 -2.86,4.96 -4.35,10.55 -4.35,16.89 0,3.84 0.99,7.7 2.86,11.54 1.99,3.86 4.84,7.33 8.57,10.44 3.86,2.98 8.32,5.47 13.54,7.33 5.22,1.99 11.06,3.11 17.64,3.36l87.69 3.22c19.62,0.5 37.38,2.99 53.29,7.46 15.77,4.47 29.44,10.93 40.85,19.13 11.43,8.32 20.25,18.25 26.33,30.06 6.21,11.8 9.32,25.21 9.32,40.24 0,17.13 -3.84,33.41 -11.67,48.68 -7.7,15.4 -19.37,28.7 -35.02,39.87 -15.65,11.3 -35.15,20.25 -58.5,26.83 -23.23,6.58 -50.3,9.81 -81.11,9.81 -29.81,0 -55.51,-2.36 -77,-7.08 -21.37,-4.72 -39.01,-11.3 -52.66,-19.88 -13.79,-8.44 -23.85,-18.63 -30.43,-30.3 -6.59,-11.8 -9.81,-24.71 -9.81,-38.75 0,-8.57 1.11,-16.39 3.22,-23.72 2.24,-7.2 5.59,-14.16 9.94,-20.87 4.35,-6.71 9.81,-13.16 16.39,-19.5 6.59,-6.34 14.41,-12.54 23.35,-18.87 -11.92,-6.83 -20.99,-15.53 -27.2,-26.2 -6.21,-10.69 -9.32,-22.12 -9.32,-34.16 0,-8.32 1.12,-16.02 3.23,-23.1 2.23,-7.21 5.09,-14.04 8.69,-20.63 3.47,-6.58 7.57,-12.79 12.17,-18.87 4.72,-6.08 9.57,-12.05 14.66,-17.88 -8.95,-8.95 -16.4,-19.75 -22.36,-32.54 -5.96,-12.79 -8.95,-28.7 -8.95,-47.82 0,-20.73 3.73,-39.12 11.06,-55.26 7.46,-16.15 17.64,-29.69 30.8,-40.75 13.04,-11.05 28.7,-19.37 46.7,-25.08 18.13,-5.71 37.76,-8.57 59.12,-8.57 10.93,0 21.37,0.5 31.42,1.62 10.07,1.11 19.25,3.11 27.45,5.83l128.05 0 0 64.84 -58.01 0zm-209.53 353.85c0,14.28 7.2,24.84 21.62,31.68 14.52,6.82 34.77,10.18 60.97,10.18 16.77,0 30.93,-1.62 42.48,-4.72 11.55,-3.23 20.87,-7.33 28.19,-12.42 7.2,-5.09 12.42,-11.06 15.65,-17.77 3.11,-6.82 4.72,-13.91 4.72,-21.11 0,-6.58 -1.49,-12.04 -4.59,-16.52 -2.98,-4.59 -7.2,-8.31 -12.67,-11.3 -5.46,-3.11 -11.91,-5.33 -19.37,-6.95 -7.33,-1.62 -15.53,-2.61 -24.47,-3.11l-78.24 -1.49c-7.08,4.96 -12.92,9.56 -17.38,13.91 -4.48,4.34 -7.95,8.69 -10.56,12.92 -2.48,4.21 -4.22,8.57 -5.09,12.92 -0.87,4.34 -1.25,8.94 -1.25,13.78zm14.91 -296.47c0,19.62 5.7,35.28 17.26,46.83 11.55,11.54 27.69,17.26 48.31,17.26 10.93,0 20.5,-1.86 28.57,-5.46 8.2,-3.6 14.9,-8.45 20.25,-14.53 5.34,-6.08 9.32,-13.17 12.05,-21.24 2.6,-7.94 3.97,-16.39 3.97,-25.08 0,-20.62 -5.71,-36.77 -17.27,-48.32 -11.54,-11.54 -27.69,-17.26 -48.31,-17.26 -10.93,0 -20.49,1.86 -28.57,5.46 -8.2,3.6 -14.9,8.58 -20.25,14.79 -5.33,6.21 -9.31,13.41 -12.04,21.61 -2.61,8.32 -3.97,16.89 -3.97,25.95z"/>
   </g>
   <g>
    <g>
     <path class="fil0" d="M7603.36 20638.92l4602.73 0c292.88,0 532.48,239.61 532.48,532.48l0 657.22c0,292.87 -239.6,532.48 -532.48,532.48l-4602.73 0c-292.88,0 -532.48,-239.61 -532.48,-532.48l0 -657.22c0,-292.87 239.6,-532.48 532.48,-532.48zm4602.73 105.62l-4602.73 0c-117.29,0 -224,48.06 -301.4,125.47 -77.41,77.41 -125.47,184.12 -125.47,301.4l0 657.22c0,117.28 48.06,223.99 125.47,301.4 77.4,77.41 184.11,125.47 301.4,125.47l4602.73 0c117.29,0 224,-48.06 301.4,-125.47 77.41,-77.41 125.47,-184.12 125.47,-301.4l0 -657.22c0,-117.28 -48.06,-223.99 -125.47,-301.4 -77.4,-77.41 -184.11,-125.47 -301.4,-125.47z"/>
    </g>
    <path class="fil1" d="M7802.74 21361.03l0 131.16 179.6 0 0 73.78 -179.6 0 0 194.5 -90.92 0 0 -475.45 280.95 0 0 76.01 -190.03 0zm520.03 -71.42c0,8.08 -1.49,15.65 -4.34,22.61 -2.99,7.08 -6.96,13.29 -12.18,18.5 -5.33,5.22 -11.43,9.32 -18.5,12.29 -6.95,3.11 -14.66,4.59 -22.86,4.59 -8.32,0 -16.02,-1.49 -23.23,-4.59 -7.2,-2.98 -13.29,-7.08 -18.5,-12.29 -5.33,-5.22 -9.32,-11.43 -12.29,-18.5 -2.85,-6.96 -4.35,-14.53 -4.35,-22.61 0,-7.94 1.5,-15.53 4.35,-22.48 2.98,-7.08 6.96,-13.29 12.29,-18.63 5.22,-5.34 11.3,-9.56 18.5,-12.55 7.2,-3.11 14.9,-4.59 23.23,-4.59 8.2,0 15.91,1.49 22.86,4.59 7.08,2.99 13.17,7.2 18.5,12.55 5.22,5.34 9.19,11.55 12.18,18.63 2.85,6.95 4.34,14.53 4.34,22.48zm-98.36 170.53l-104.33 0 0 -69.31 195.25 0 0 300.32 106.56 0 0 69.31 -314.48 0 0 -69.31 117.01 0 0 -231.01zm511.08 300.32l0 -240.95c0,-40.61 -15.02,-60.86 -45.21,-60.86 -15.03,0 -29.44,6.08 -43.1,18.25 -13.78,12.05 -28.32,28.57 -43.59,49.44l0 234.12 -88.68 0 0 -369.63 76.63 0 2.24 54.53c7.46,-9.44 15.27,-18.13 23.47,-25.83 8.08,-7.83 16.9,-14.41 26.33,-19.88 9.57,-5.46 19.75,-9.69 30.68,-12.66 10.8,-2.86 23.1,-4.35 36.77,-4.35 18.87,0 35.39,3.11 49.43,9.32 14.04,6.21 25.83,14.9 35.28,26.2 9.56,11.3 16.64,24.84 21.36,40.74 4.72,15.91 7.09,33.66 7.09,53.29l0 248.28 -88.69 0zm421.04 0l-2.23 -48.31c-7.83,8.2 -15.9,15.77 -24.47,22.6 -8.44,6.95 -17.75,12.92 -27.95,18.01 -10.31,4.96 -21.36,8.95 -33.41,11.67 -12.05,2.86 -25.21,4.22 -39.49,4.22 -19.01,0 -35.65,-2.74 -49.94,-8.32 -14.28,-5.59 -26.33,-13.41 -36.02,-23.35 -9.81,-9.93 -17.14,-21.85 -22.11,-35.89 -4.96,-14.04 -7.46,-29.56 -7.46,-46.58 0,-17.38 3.73,-33.53 11.06,-48.31 7.46,-14.78 18.76,-27.45 33.9,-38.13 15.28,-10.69 34.16,-19 56.89,-25.1 22.73,-6.08 49.31,-9.06 79.99,-9.06l48.44 0 0 -22.23c0,-9.44 -1.36,-18.01 -3.97,-25.71 -2.74,-7.7 -6.96,-14.16 -12.92,-19.5 -5.96,-5.34 -13.67,-9.44 -23.1,-12.42 -9.44,-2.86 -21.11,-4.35 -34.91,-4.35 -21.85,0 -43.46,2.48 -64.58,7.46 -21.24,4.96 -41.86,11.92 -61.73,20.86l0 -70.8c17.77,-7.08 38.13,-12.92 61.24,-17.63 23.22,-4.59 47.32,-6.96 72.28,-6.96 27.32,0 50.93,2.61 70.55,7.83 19.62,5.22 35.76,13.04 48.56,23.47 12.66,10.44 22.11,23.48 28.19,39.13 6.08,15.64 9.06,33.9 9.06,54.77l0 252.62 -75.89 0zm-12.79 -163.2l-54.39 0c-15.03,0 -27.82,1.49 -38.26,4.35 -10.44,2.98 -18.88,6.95 -25.46,12.04 -6.58,5.1 -11.43,10.93 -14.41,17.52 -3.11,6.71 -4.59,13.78 -4.59,21.36 0,14.9 4.85,26.46 14.53,34.28 9.81,7.83 22.97,11.8 39.87,11.8 12.29,0 25.21,-4.47 38.63,-13.41 13.29,-8.95 28.06,-21.86 44.09,-38.51l0 -49.43zm309.89 -281.69l-104.33 0 0 -69.31 195.25 0 0 444.89 106.56 0 0 69.31 -314.48 0 0 -69.31 117.01 0 0 -375.58zm1014.72 426.26c-21.11,8.57 -41.48,14.9 -61.23,19.13 -19.87,4.1 -40.37,6.21 -61.72,6.21 -34.16,0 -64.46,-5.09 -90.67,-15.16 -26.33,-10.05 -48.56,-24.96 -66.57,-44.96 -18.12,-19.87 -31.79,-44.58 -41.11,-74.02 -9.32,-29.44 -14.04,-63.72 -14.04,-102.84 0,-39.99 5.09,-75.63 15.28,-106.81 10.18,-31.17 24.71,-57.5 43.59,-78.99 19,-21.48 41.98,-37.88 68.94,-49.18 27.07,-11.31 57.5,-16.9 91.16,-16.9 10.93,0 21.11,0.25 30.68,0.75 9.69,0.5 19,1.36 28.19,2.74 9.32,1.36 18.63,3.11 28.06,5.21 9.44,2.24 19.25,5.1 29.44,8.45l0 88.68c-20.62,-9.69 -40.24,-16.52 -58.86,-20.62 -18.63,-4.1 -35.65,-6.21 -50.93,-6.21 -22.48,0 -41.73,4.1 -57.75,12.18 -16.02,8.2 -29.18,19.5 -39.49,34.27 -10.19,14.66 -17.77,32.04 -22.61,52.42 -4.84,20.24 -7.32,42.47 -7.32,66.69 0,25.72 2.48,48.69 7.45,69.06 4.97,20.24 12.67,37.38 23.1,51.42 10.44,14.16 23.72,24.84 40,32.29 16.15,7.33 35.52,11.06 57.75,11.06 7.95,0 16.65,-0.75 25.96,-2.36 9.32,-1.62 18.75,-3.6 28.32,-6.21 9.69,-2.49 19.13,-5.6 28.44,-9.07 9.32,-3.47 18.01,-7.08 25.95,-10.68l0 83.46zm214.5 -426.26l-104.33 0 0 -69.31 195.25 0 0 444.89 106.56 0 0 69.31 -314.48 0 0 -69.31 117.01 0 0 -375.58zm522.38 444.89l-2.23 -48.31c-7.83,8.2 -15.9,15.77 -24.47,22.6 -8.44,6.95 -17.75,12.92 -27.95,18.01 -10.31,4.96 -21.36,8.95 -33.41,11.67 -12.05,2.86 -25.21,4.22 -39.49,4.22 -19.01,0 -35.65,-2.74 -49.94,-8.32 -14.28,-5.59 -26.33,-13.41 -36.02,-23.35 -9.81,-9.93 -17.14,-21.85 -22.11,-35.89 -4.96,-14.04 -7.46,-29.56 -7.46,-46.58 0,-17.38 3.73,-33.53 11.06,-48.31 7.46,-14.78 18.76,-27.45 33.9,-38.13 15.28,-10.69 34.16,-19 56.89,-25.1 22.73,-6.08 49.31,-9.06 79.99,-9.06l48.44 0 0 -22.23c0,-9.44 -1.36,-18.01 -3.97,-25.71 -2.74,-7.7 -6.96,-14.16 -12.92,-19.5 -5.96,-5.34 -13.67,-9.44 -23.1,-12.42 -9.44,-2.86 -21.11,-4.35 -34.91,-4.35 -21.85,0 -43.46,2.48 -64.58,7.46 -21.24,4.96 -41.86,11.92 -61.73,20.86l0 -70.8c17.77,-7.08 38.13,-12.92 61.24,-17.63 23.22,-4.59 47.32,-6.96 72.28,-6.96 27.32,0 50.93,2.61 70.55,7.83 19.62,5.22 35.76,13.04 48.56,23.47 12.66,10.44 22.11,23.48 28.19,39.13 6.08,15.64 9.06,33.9 9.06,54.77l0 252.62 -75.89 0zm-12.79 -163.2l-54.39 0c-15.03,0 -27.82,1.49 -38.26,4.35 -10.44,2.98 -18.88,6.95 -25.46,12.04 -6.58,5.1 -11.43,10.93 -14.41,17.52 -3.11,6.71 -4.59,13.78 -4.59,21.36 0,14.9 4.85,26.46 14.53,34.28 9.81,7.83 22.97,11.8 39.87,11.8 12.29,0 25.21,-4.47 38.63,-13.41 13.29,-8.95 28.06,-21.86 44.09,-38.51l0 -49.43zm495.44 54.28c0,21.11 -4.72,39.12 -14.04,54.02 -9.32,14.9 -21.73,26.95 -37.14,36.4 -15.4,9.32 -32.78,16.15 -52.41,20.36 -19.5,4.22 -39.5,6.34 -59.87,6.34 -27.2,0 -51.67,-1.24 -73.53,-3.84 -21.85,-2.49 -42.47,-6.21 -61.85,-11.06l0 -79.73c22.86,9.43 45.59,16.27 68.19,20.49 22.73,4.22 44.1,6.34 64.22,6.34 23.34,0 40.74,-3.73 52.28,-11.19 11.55,-7.45 17.27,-17.14 17.27,-29.07 0,-5.59 -1.25,-10.68 -3.6,-15.27 -2.48,-4.59 -6.96,-9.06 -13.67,-13.29 -6.71,-4.22 -16.14,-8.58 -28.19,-13.04 -12.17,-4.59 -28.07,-9.56 -47.7,-15.16 -18.12,-5.09 -34.15,-10.8 -47.81,-17.26 -13.78,-6.46 -25.08,-14.04 -34.03,-22.73 -8.95,-8.69 -15.77,-18.87 -20.25,-30.43 -4.47,-11.55 -6.71,-24.97 -6.71,-40.49 0,-15.15 3.36,-29.31 10.19,-42.6 6.82,-13.41 16.89,-25.08 30.43,-35.15 13.41,-10.05 30.18,-18.01 50.42,-23.85 20.12,-5.83 43.59,-8.69 70.54,-8.69 23.35,0 43.97,1.25 61.85,3.73 18.01,2.48 33.91,5.22 47.7,8.2l0 72.29c-21.11,-6.83 -40.86,-11.67 -59.5,-14.41 -18.5,-2.86 -36.88,-4.22 -55.14,-4.22 -18.13,0 -32.78,3.23 -43.84,9.81 -11.06,6.46 -16.52,15.65 -16.52,27.2 0,5.59 1.12,10.56 3.23,14.9 2.23,4.35 6.58,8.58 12.92,12.8 6.45,4.1 15.4,8.44 26.94,12.92 11.55,4.47 26.83,9.32 45.71,14.65 21.37,6.08 39.25,12.55 53.9,19.5 14.53,6.96 26.21,14.79 35.03,23.48 8.94,8.69 15.27,18.63 19.13,29.81 3.84,11.19 5.83,23.98 5.83,38.26zm409.74 0c0,21.11 -4.72,39.12 -14.04,54.02 -9.32,14.9 -21.73,26.95 -37.14,36.4 -15.4,9.32 -32.78,16.15 -52.41,20.36 -19.5,4.22 -39.5,6.34 -59.87,6.34 -27.2,0 -51.67,-1.24 -73.53,-3.84 -21.85,-2.49 -42.47,-6.21 -61.85,-11.06l0 -79.73c22.86,9.43 45.59,16.27 68.19,20.49 22.73,4.22 44.1,6.34 64.22,6.34 23.34,0 40.74,-3.73 52.28,-11.19 11.55,-7.45 17.27,-17.14 17.27,-29.07 0,-5.59 -1.25,-10.68 -3.6,-15.27 -2.48,-4.59 -6.96,-9.06 -13.67,-13.29 -6.71,-4.22 -16.14,-8.58 -28.19,-13.04 -12.17,-4.59 -28.07,-9.56 -47.7,-15.16 -18.12,-5.09 -34.15,-10.8 -47.81,-17.26 -13.78,-6.46 -25.08,-14.04 -34.03,-22.73 -8.95,-8.69 -15.77,-18.87 -20.25,-30.43 -4.47,-11.55 -6.71,-24.97 -6.71,-40.49 0,-15.15 3.36,-29.31 10.19,-42.6 6.82,-13.41 16.89,-25.08 30.43,-35.15 13.41,-10.05 30.18,-18.01 50.42,-23.85 20.12,-5.83 43.59,-8.69 70.54,-8.69 23.35,0 43.97,1.25 61.85,3.73 18.01,2.48 33.91,5.22 47.7,8.2l0 72.29c-21.11,-6.83 -40.86,-11.67 -59.5,-14.41 -18.5,-2.86 -36.88,-4.22 -55.14,-4.22 -18.13,0 -32.78,3.23 -43.84,9.81 -11.06,6.46 -16.52,15.65 -16.52,27.2 0,5.59 1.12,10.56 3.23,14.9 2.23,4.35 6.58,8.58 12.92,12.8 6.45,4.1 15.4,8.44 26.94,12.92 11.55,4.47 26.83,9.32 45.71,14.65 21.37,6.08 39.25,12.55 53.9,19.5 14.53,6.96 26.21,14.79 35.03,23.48 8.94,8.69 15.27,18.63 19.13,29.81 3.84,11.19 5.83,23.98 5.83,38.26z"/>
   </g>
   <g>
    <path class="fil1" d="M3110.55 18054.47c-29.16,0 -52.81,-23.65 -52.81,-52.81 0,-29.16 23.65,-52.81 52.81,-52.81l0 105.62zm1935.08 0l-1935.08 0 0 -105.62 1935.08 0 0 105.62zm0 -105.62c29.16,0 52.81,23.65 52.81,52.81 0,29.16 -23.65,52.81 -52.81,52.81l0 -105.62z"/>
   </g>
   <g>
    <path class="fil1" d="M14780.46 18054.47c-29.16,0 -52.81,-23.65 -52.81,-52.81 0,-29.16 23.65,-52.81 52.81,-52.81l0 105.62zm1935.08 0l-1935.08 0 0 -105.62 1935.08 0 0 105.62zm0 -105.62c29.16,0 52.81,23.65 52.81,52.81 0,29.16 -23.65,52.81 -52.81,52.81l0 -105.62z"/>
   </g>
   <g>
    <path class="fil1" d="M3057.74 15621.7c0,-29.16 23.65,-52.81 52.81,-52.81 29.16,0 52.81,23.65 52.81,52.81l-105.62 0zm0 2379.97l0 -2379.97 105.62 0 0 2379.97 -105.62 0zm105.62 0c0,29.16 -23.65,52.81 -52.81,52.81 -29.16,0 -52.81,-23.65 -52.81,-52.81l105.62 0z"/>
   </g>
   <g>
    <path class="fil1" d="M16687.96 15621.7c0,-29.16 23.65,-52.81 52.81,-52.81 29.16,0 52.81,23.65 52.81,52.81l-105.62 0zm0 2379.97l0 -2379.97 105.62 0 0 2379.97 -105.62 0zm105.62 0c0,29.16 -23.65,52.81 -52.81,52.81 -29.16,0 -52.81,-23.65 -52.81,-52.81l105.62 0z"/>
   </g>
   <g>
    <path class="fil1" d="M9976.66 15621.7c0,-29.16 23.65,-52.81 52.81,-52.81 29.16,0 52.81,23.65 52.81,52.81l-105.62 0zm0 1548.17l0 -1548.17 105.62 0 0 1548.17 -105.62 0zm105.62 0c0,29.16 -23.65,52.81 -52.81,52.81 -29.16,0 -52.81,-23.65 -52.81,-52.81l105.62 0z"/>
   </g>
   <g>
    <path class="fil1" d="M9976.66 18976.75c0,-29.16 23.65,-52.81 52.81,-52.81 29.16,0 52.81,23.65 52.81,52.81l-105.62 0zm0 1176.6l0 -1176.6 105.62 0 0 1176.6 -105.62 0zm52.81 371.57l-316.86 -739.34 19.8 9.59 19.8 8.98 19.8 8.35 19.8 7.73 19.8 7.12 19.8 6.5 19.8 5.88 19.8 5.26 19.8 4.64 19.8 4.02 19.8 3.41 19.8 2.78 19.8 2.17 19.8 1.55 19.8 0.93 19.8 0.31 19.8 -0.31 19.8 -0.93 19.8 -1.55 19.8 -2.17 19.8 -2.78 19.8 -3.41 19.8 -4.02 19.8 -4.64 19.8 -5.26 19.8 -5.88 19.8 -6.5 19.8 -7.12 19.8 -7.73 19.8 -8.35 19.8 -8.98 19.8 -9.59 0 0 -316.86 739.34zm52.81 -371.57c0,29.16 -23.65,52.81 -52.81,52.81 -29.16,0 -52.81,-23.65 -52.81,-52.81l105.62 0z"/>
   </g>
  </g>
 </g>
</svg>
